<svg id="background" xmlns="http://www.w3.org/2000/svg" viewBox="0 0 1920.26 1080.5"><defs><style>.cls-1,.cls-2,.cls-3{fill:none;stroke:#1d1d1b;stroke-miterlimit:10;}.cls-2{stroke-width:1.25px;}.cls-3{stroke-width:0.98px;}</style></defs><title>background</title><path class="cls-1" d="M843.55,508.06" transform="translate(0.18)"/><path class="cls-1" d="M1473.15,586.43l235.3,29.29s35.62,4,37.6,19.79-201.82,221.6-201.82,221.6-7.92,5.94-43.53,0S487.64,675.08,382.77,643.42c0,0,7.92-19.79,21.77-25.72S754.75,497,754.75,497l4.71.59,84.09,10.47,442.21,55,75.62,9.41,13.08,1.63Z" transform="translate(0.18)"/><path class="cls-1" d="M404.54,617.7l1079.9,191.41c31.67,5.28,63.36-11.62,86-34.39L1724.17,619" transform="translate(0.18)"/><path class="cls-1" d="M1554.28,907.35c38.21-46.8,139.56-160.82,139.56-160.82v-45.7" transform="translate(0.18)"/><path class="cls-1" d="M472.16,732.61,1462.72,940s1.61.47,4.46,1" transform="translate(0.18)"/><line class="cls-1" x1="382.95" y1="643.42" x2="382.95" y2="694.54"/><line class="cls-1" x1="1534.73" y1="1080.37" x2="1562.25" y2="838.98"/><line class="cls-1" x1="1474.55" y1="852.47" x2="1456.03" y2="1080.37"/><polyline class="cls-1" points="1668.03 775.9 1626.49 1080 1678.51 1080 1746.22 635.51"/><path class="cls-1" d="M501.64,920.9S496.17,768.35,391.2,720.24c0,0-25.23-29.84,10.68-48a21.58,21.58,0,0,1,15.2-1.63c17.06,4.5,44.1,15.77,59.41,77C476.49,747.58,492.35,820.84,501.64,920.9Z" transform="translate(0.18)"/><path class="cls-1" d="M404.54,738.46s3.27,45.1,21.31,62.13S503,919.07,510,941s53.12,121.74,52.11,139H525.06s-9.26-49.9-41.71-75c-22.9-17.68-39.13-82.78-46.69-119.55a129.17,129.17,0,0,0-20.46-47.67c-7.54-10.85-16.62-24.36-24.43-37.23-17-28.06-9-56.12-9-56.12S384.42,735.45,404.54,738.46Z" transform="translate(0.18)"/><path class="cls-1" d="M416.47,787.11H435.9s-11.35-51.43-44.7-66.87" transform="translate(0.18)"/><polyline class="cls-1" points="430.2 805.14 446.45 800.88 436.08 787.11"/><path class="cls-1" d="M421.88,796.13s11.48.07,20.24-.77" transform="translate(0.18)"/><path class="cls-1" d="M440.42,802.42s2,10,0,16.58" transform="translate(0.18)"/><polyline class="cls-1" points="445.75 923.49 475.41 1080 525.24 1080"/><path class="cls-1" d="M560.48,1070s29.44-3.3,32.14-7.35,0-13.51,0-13.51-42.54-27.88-45.24-47.36c-.68-4.87-3.08-12.2-5.5-20.82-7.25-25.85-14.59-63.32,24.41-81,52-23.63,187-56,234.31-44.57,36.58,8.89,67.49,72,79.61,100A12.91,12.91,0,0,1,872,972.86c-48.23,14-211.48,57.93-291.5,35.06,0,0-26.78-14.13-38.59-27" transform="translate(0.18)"/><path class="cls-1" d="M592.62,1049.11s268.09-25.58,284.85-39.54,2.74-54.24,2.74-54.24" transform="translate(0.18)"/><path class="cls-1" d="M667.45,1041.46s8.49,4.46,8.49,7.65V1080H716.5v-7.41s2.58-12.29,13.64-11.86v-19.27s-1.23-8.87,57.82-14.31" transform="translate(0.18)"/><path class="cls-1" d="M646.1,1043.72s5.82.23,13.23,5.06a9.32,9.32,0,0,1,4.23,7.79V1080h12.38" transform="translate(0.18)"/><path class="cls-1" d="M661.51,1050.75s4.57-2.93,14.43-1.64,20.59-10.47,54.2-7.65" transform="translate(0.18)"/><path class="cls-1" d="M752.08,791.21,758,853.59s37.73-3.55,50.63,4.54l-4-55.93Z" transform="translate(0.18)"/><line class="cls-1" x1="0.18" y1="877.01" x2="401.91" y2="726.23"/><line class="cls-1" x1="1641.08" y1="973.22" x2="1548.49" y2="955.33"/><line class="cls-1" x1="1920.17" y1="1027.15" x2="1693.24" y2="983.3"/><line class="cls-2" x1="404.71" y1="617.7" x2="404.71"/><polyline class="cls-1" points="685.14 520.95 685.14 463.35 685.14 303.91 685.14 62.35 1329.87 70.51 1329.87 508.06 1329.87 568.98"/><polyline class="cls-3" points="0.18 622.11 258.06 535.58 258.06 89.84 0.18 149.13"/></svg>