<svg id="Layer_1" data-name="Layer 1" xmlns="http://www.w3.org/2000/svg" viewBox="0 0 510.65 359.85"><defs><style>.cls-1{fill:#1d1d1b;}</style></defs><title>blood</title><path class="cls-1" d="M176.85,591s63.7-11.93,73.91-83.36-51-81.63,0-100S361,420.85,375.25,372.4s15.16-110.68,72.89-113.24S563,221.91,577.29,272.93s85.4,45.3,80.75,73.47,29.46,26.1,29.46,26.1-76.26-6.3-126.85,54.95c0,0-14,15.48-19.14,29.59,0,0-66.56,82.11-88.93,103a606.47,606.47,0,0,1-47.64,39.41L392.14,605s-4.24.73-17.8-1.57-62.55-5-62.55-5l-58.47,1.88L232.89,596Z" transform="translate(-176.85 -245.27)"/></svg>