<svg id="Layer_1" data-name="Layer 1" xmlns="http://www.w3.org/2000/svg" viewBox="0 0 71.82 54.63"><defs><style>.cls-1{fill:none;stroke:#000;stroke-miterlimit:10;stroke-width:0.31px;}</style></defs><title>glove</title><path class="cls-1" d="M214.42,160s6.23-17.95,9.05-17.5,3.41-3.86,4.3-3.11,13.79,10,15,10.87,9.2,3.21,10.53,4,10.83,3.11,12.31,4.45,8.9,4.74,9.94,5.63,6.82,5.19,6.67,7.71l-16.76-7.86L285,173.3s3.26,6.08-2.82,4.74-15.13-7.71-17.5-7.71c0,0,10.08,5.43,11.86,7.9s8.46,9.31,4.16,9.9-5.79-2.23-5.79-2.23-5.48-5.93-7.71-7.11-7.12-8.31-7.12-8.31S270,181,270,182.34s5.19,10.09,1.19,11.13-6.23-6.38-6.23-6.38-8.74-12.61-9.63-13.94c0,0-4.91.15-6.54,0,0,0-1.19,17.65-4.89,16.31s-3.56-3.85-3.56-3.85-.45-15.31,0-16.26c0,0-7.27-.8-8.16-1.84s-11.12-5.63-12.9-5.93A30,30,0,0,1,214.42,160Z" transform="translate(-214.23 -139.09)"/></svg>