<svg id="Layer_1" data-name="Layer 1" xmlns="http://www.w3.org/2000/svg" viewBox="0 0 60.72 310.71"><defs><style>.cls-1{fill:#fff;stroke:#000;stroke-miterlimit:10;stroke-width:0.57px;}</style></defs><title>lamp</title><path class="cls-1" d="M269.09,335c-14.5.47-27.32-5.78-27.23-9.8s16.89-6.53,18.29-6.62,4.39-6.53,4.39-6.53l2.76-.46V139.24l-1.05-1.05c-.14-2.33-2-13.24-3-17.47s-1.78-12.37,0-13.53,3-6.7,3-6.7h-2.33a8.93,8.93,0,0,0,2.71-2.33c1.24-1.6-2.12-5.68-3.54-6.11a33.73,33.73,0,0,1-3.53-1.46h7.07v-14h3.14v14h7.07a33.73,33.73,0,0,1-3.53,1.46c-1.42.43-4.79,4.51-3.54,6.11a9,9,0,0,0,2.7,2.33h-2.33s1.25,5.53,3,6.7,1,9.31,0,13.53-2.88,15.14-3,17.47l-1.05,1.05V311.56l2.76.46s3,6.44,4.39,6.53,18.2,2.61,18.29,6.62-10.93,10.27-25.44,9.8" transform="translate(-238.49 -24.57)"/><path class="cls-1" d="M267.69,76.6h-28.8s13.32-37.49,14.4-51.75h16.87" transform="translate(-238.49 -24.57)"/><path class="cls-1" d="M270,76.6h28.8s-13.32-37.49-14.4-51.75H267.53" transform="translate(-238.49 -24.57)"/></svg>