<svg id="Layer_6" data-name="Layer 6" xmlns="http://www.w3.org/2000/svg" viewBox="0 0 432.49 302.41"><defs><style>.cls-1{fill:#fff;}.cls-2,.cls-3{fill:#1d1d1b;}.cls-3{font-size:15px;font-family:AndaleMono, Andale Mono;}</style></defs><title>note3</title><rect class="cls-1" x="1.93" y="1.66" width="428.64" height="286.26"/><path class="cls-2" d="M1636.75,448.31c0,2.11.2,1.35.23,1.67C1636.94,446.45,1636.7,448.4,1636.75,448.31Z" transform="translate(-1204.97 -162.05)"/><polygon class="cls-2" points="431.31 251.41 431.39 252.02 431.18 246.89 431.31 251.41"/><path class="cls-2" d="M1636.28,380.88c-.35,3.08.06,11.8-.07,17.61l-.08,1,.29,2.61C1636.37,395,1636.18,385.84,1636.28,380.88Z" transform="translate(-1204.97 -162.05)"/><path class="cls-2" d="M1637.06,363.5c-.14,1.07-.12-3.76,0,4.05,0-.39,0-.5,0-.73C1637.05,366.12,1637.05,365.15,1637.06,363.5Z" transform="translate(-1204.97 -162.05)"/><path class="cls-2" d="M1637.05,366.82c0,3.43.11-2.25,0,0Z" transform="translate(-1204.97 -162.05)"/><path class="cls-2" d="M1637,351l.12,4.52c.08-.94.1-5,.16-3.47C1637.18,347.38,1637.1,348.34,1637,351Z" transform="translate(-1204.97 -162.05)"/><path class="cls-2" d="M1636.71,346.69l0,2.34A15.13,15.13,0,0,0,1636.71,346.69Z" transform="translate(-1204.97 -162.05)"/><path class="cls-2" d="M1636.87,354l-.11-5a6.26,6.26,0,0,0,0,2.28C1636.69,350.9,1636.8,351.88,1636.87,354Z" transform="translate(-1204.97 -162.05)"/><path class="cls-2" d="M1636.82,356.81c-.08,2.53-.13,5.81-.25,1.27C1636.61,366.73,1636.87,365.46,1636.82,356.81Z" transform="translate(-1204.97 -162.05)"/><path class="cls-2" d="M1635.91,379.21l-.1,3.39.12,2.93C1635.87,384.07,1636,379,1635.91,379.21Z" transform="translate(-1204.97 -162.05)"/><path class="cls-2" d="M1637.15,322.81a16.1,16.1,0,0,0-.3,1.86l.09,3.34C1637,326.29,1637,323,1637.15,322.81Z" transform="translate(-1204.97 -162.05)"/><path class="cls-2" d="M1636.85,324.67l-.13-5C1636.71,324.14,1636.77,325,1636.85,324.67Z" transform="translate(-1204.97 -162.05)"/><polygon class="cls-2" points="431.34 183.82 431.61 192.03 431.33 182.24 431.34 183.82"/><polygon class="cls-2" points="432.19 141.68 432.37 144.51 432.1 139.47 432.19 141.68"/><path class="cls-2" d="M1637.13,291.08c.15,2.09.25-2.88.34-.66,0-3.44-.15-6.37-.27-9C1637.27,284.21,1637.25,287.21,1637.13,291.08Z" transform="translate(-1204.97 -162.05)"/><path class="cls-2" d="M1637,277c0,1.4.1,2.85.16,4.43C1637.17,279.91,1637.12,278.44,1637,277Z" transform="translate(-1204.97 -162.05)"/><path class="cls-2" d="M1636.76,311.16a30.13,30.13,0,0,0,.22-3.93l-.22,2Z" transform="translate(-1204.97 -162.05)"/><path class="cls-2" d="M1636.76,309.27v-.07c0-2.14,0-3.61,0-4.25C1636.77,305.5,1636.77,306.8,1636.76,309.27Z" transform="translate(-1204.97 -162.05)"/><path class="cls-2" d="M1636.76,311.66v-.5A1.68,1.68,0,0,0,1636.76,311.66Z" transform="translate(-1204.97 -162.05)"/><path class="cls-2" d="M1636.5,332.78c-.12-2.93-.24-9-.43-3.13C1636.22,331.76,1636.32,328.37,1636.5,332.78Z" transform="translate(-1204.97 -162.05)"/><path class="cls-2" d="M1636.49,314.1l0,5.31c.06-.11.14-1.07.2.39Z" transform="translate(-1204.97 -162.05)"/><polygon class="cls-2" points="431.45 149.45 431.52 152.04 431.54 150.08 431.45 149.45"/><path class="cls-2" d="M1636.84,286.06c-.09-2.3-.1-4.8-.12-7.64,0,3-.06,6.18-.06,9.16C1636.73,288,1636.85,289.31,1636.84,286.06Z" transform="translate(-1204.97 -162.05)"/><path class="cls-2" d="M1636.78,297.33v-.5C1636.75,297.14,1636.74,297.39,1636.78,297.33Z" transform="translate(-1204.97 -162.05)"/><path class="cls-2" d="M1636.73,250.54l0,.45,0,.1Z" transform="translate(-1204.97 -162.05)"/><path class="cls-2" d="M1636.62,288.09c0,2.28,0,3.64.08,4.94,0-1.7,0-3.51,0-5.45C1636.63,287.39,1636.61,287.35,1636.62,288.09Z" transform="translate(-1204.97 -162.05)"/><path class="cls-2" d="M1636.94,269.19c0,1.19-.08,2.53-.12,3.95C1636.89,272,1637,269.61,1636.94,269.19Z" transform="translate(-1204.97 -162.05)"/><path class="cls-2" d="M1636.83,296.06v.34C1636.88,295.65,1636.86,295.74,1636.83,296.06Z" transform="translate(-1204.97 -162.05)"/><path class="cls-2" d="M1636.83,296.06c0-1.18-.09-2.1-.13-3,0,1.39,0,2.68.07,3.8C1636.78,296.54,1636.81,296.26,1636.83,296.06Z" transform="translate(-1204.97 -162.05)"/><path class="cls-2" d="M1635.35,242.09a84.39,84.39,0,0,1,.17,11.58c.15,5.1.8,1.77,1.17-2.68-.09-.16-.17-.16-.29-5.4-.1,1.83-.25,11.63-.43,7.21a89.27,89.27,0,0,1,.18-9.07c-.25,2.87-.36-8.84-.73-7.32l.13,6.09C1635.5,242.61,1635.41,240.4,1635.35,242.09Z" transform="translate(-1204.97 -162.05)"/><path class="cls-2" d="M1636.67,261l0,2.16c0-2.46.11-4.22.27-7.46a34.14,34.14,0,0,0-.24-4.59l0,10.63Z" transform="translate(-1204.97 -162.05)"/><path class="cls-2" d="M1636.69,272.83c-.21-1.69-.31-6.87-.54-3.7,0,6.33.18,4.44.27,8.22-.05-10.22.12,2.94.25-4.45,0,2,0,3.82,0,5.52,0-1.84.07-3.61.1-5.28v.28h0c0,.44,0,.59,0,.09v-.21a3.13,3.13,0,0,1-.08-.46c0-3,.06-.47.08.46,0,0,0,.11,0,.12v0l-.12-10.23C1636.66,265.3,1636.67,268,1636.69,272.83Z" transform="translate(-1204.97 -162.05)"/><path class="cls-2" d="M1635.61,324.19c0-.32,0-.3.05-.33C1635.63,323.2,1635.62,323,1635.61,324.19Z" transform="translate(-1204.97 -162.05)"/><path class="cls-2" d="M1635.74,320c0,.75.12,1.36.1,3.78-.07,2.1-.11,0-.18.1.06,1.46.16,5.11.26.53l0-.72c.07-4.12.34-9.42.37-8.7C1636.07,316.18,1635.93,317.24,1635.74,320Z" transform="translate(-1204.97 -162.05)"/><path class="cls-2" d="M1636.16,296.11l-.1-8.53-.19,4.35.11-.22C1635.94,296.55,1636.08,295.51,1636.16,296.11Z" transform="translate(-1204.97 -162.05)"/><polygon class="cls-2" points="431.86 87.51 432.09 88.64 431.77 83.72 431.86 87.51"/><polygon class="cls-2" points="431.83 76.44 432.03 76.84 431.91 73.92 431.83 76.44"/><path class="cls-2" d="M1208.09,285.37l.06,2.51C1208.12,286.69,1208.1,285.93,1208.09,285.37Z" transform="translate(-1204.97 -162.05)"/><path class="cls-2" d="M1208.1,267.24l-.09-.44C1208.06,267.64,1208.1,268,1208.1,267.24Z" transform="translate(-1204.97 -162.05)"/><path class="cls-2" d="M1438.27,162.47c-3.65-.18-7.72-.47-7.28-.25l1.12.22C1434.66,162.4,1436.61,162.43,1438.27,162.47Z" transform="translate(-1204.97 -162.05)"/><path class="cls-2" d="M1252,163.77l1.07.06,2.46-.2Z" transform="translate(-1204.97 -162.05)"/><path class="cls-2" d="M1249.39,164.66l-4.81-.14C1245.66,164.57,1247.2,164.62,1249.39,164.66Z" transform="translate(-1204.97 -162.05)"/><path class="cls-2" d="M1208.32,384.4l.22,2.93C1208.54,382.75,1208.43,384.77,1208.32,384.4Z" transform="translate(-1204.97 -162.05)"/><path class="cls-2" d="M1596.86,162.53c-3.15-.09-5.65-.12-7.85-.13A75.25,75.25,0,0,0,1596.86,162.53Z" transform="translate(-1204.97 -162.05)"/><path class="cls-2" d="M1205.79,278.24a10.12,10.12,0,0,0,.13,2.14C1205.88,278.8,1205.84,277.91,1205.79,278.24Z" transform="translate(-1204.97 -162.05)"/><path class="cls-2" d="M1579.92,162.4l1.66,0c2.3,0,4.62-.07,7.43,0C1586.21,162.31,1583,162.25,1579.92,162.4Z" transform="translate(-1204.97 -162.05)"/><path class="cls-2" d="M1500.48,448.74l.82,0A3,3,0,0,0,1500.48,448.74Z" transform="translate(-1204.97 -162.05)"/><path class="cls-2" d="M1605.12,450.93l-4.3,0C1601.59,451,1602.89,451,1605.12,450.93Z" transform="translate(-1204.97 -162.05)"/><path class="cls-2" d="M1636.9,193.92c0,2.35,0,.37,0,0Z" transform="translate(-1204.97 -162.05)"/><path class="cls-2" d="M1636,205.35a3.45,3.45,0,0,0-.1-.94A5.33,5.33,0,0,1,1636,205.35Z" transform="translate(-1204.97 -162.05)"/><path class="cls-2" d="M1556.52,163.75h-.21C1557,163.79,1556.89,163.78,1556.52,163.75Z" transform="translate(-1204.97 -162.05)"/><path class="cls-2" d="M1636.8,197.46c0-.89,0-1.9.07-3C1636.86,194.94,1636.84,195.85,1636.8,197.46Z" transform="translate(-1204.97 -162.05)"/><path class="cls-2" d="M1636.9,197c0,.81,0,1.45,0,2.05C1636.92,199.33,1636.94,199.07,1636.9,197Z" transform="translate(-1204.97 -162.05)"/><path class="cls-2" d="M1636.89,190.65c0,1.34,0,2.6,0,3.8,0-.46,0-.65,0-.53C1636.9,193.23,1636.89,192.26,1636.89,190.65Z" transform="translate(-1204.97 -162.05)"/><path class="cls-2" d="M1308.05,449.32l.5,0C1310.92,449.25,1309.88,449.27,1308.05,449.32Z" transform="translate(-1204.97 -162.05)"/><path class="cls-2" d="M1377.13,164.72h0Z" transform="translate(-1204.97 -162.05)"/><path class="cls-2" d="M1368.69,164.89a74.49,74.49,0,0,1,8.36-.18l-2.79-.63Z" transform="translate(-1204.97 -162.05)"/><path class="cls-2" d="M1208.15,328.79l.2-5.92c.32,7.15.21,12.32.48,6.76-.68-.84-.07-23-.75-23.86l.15-3.9c0,1.12,0,1.3,0,2.4.33-7.59-.49-5.64-.39-15.43.05-3.41.15-5.79.23-3.47l-.17-7.6c0-2.21.13-1.67.12.53l0-11.59,0,.09c-.11-1.66-.28-5.4-.35-7.23.1-2.95.08,1.47.16.72l-.16-6.42c.17-2.62.34,2.7.32,7.14.68-6-.17-5.33.22-18.26l.09,6.06c.38-3.91.24-8.64.49-15.49-.13,1.62-.61,13.72-.78,6.75,0-2,.08-4.55-.06-8.31.24,0,.18-3.71.17-8.3l.32.32c-.09-5-.26-4.58-.4-7.5a41.08,41.08,0,0,1,.49-8c0-8.86-.4,6.12-.46-4.37.12-7.37,0-12.54-.2-21.36.11-5.16.2.9.29-.95l-.26-4.57c0-1.12.09-.76.13-.57-.1-3.86-.32-.32-.41-6.38a12.74,12.74,0,0,1-.08-2.26c0-.56,0-1.19,0-1.88,0-.46,0-1,.07-1.51l1,.06,1.52.05,3.48.07c2.35,0,4.71,0,6.82-.09,1.85.09-.89.19-.33.32,10.29-.26,8.82-.19,17.26-.55l7.2.21c-5.29-.24,1.46-.52,7.38-.75l-4.55-.27,9.44-.17c1.14,0,.19.16-1.36.3l1.73-.08c3.38.12,1.63.3-.79.48l-3.4-.2c-2.33.2-4.52.41-4,.6.61,0,1.79-.07,3.09-.09-.61.06-1,.1-.71.13s1.3,0,2.85-.11l2.14.35.52-.14,12.35.22c8.84-.35,16.53-.88,30.55-1-3.48.26-.74.43-.93.74-3.83-.33-10.87.14-18.14.07,3.8,0,3,.18,2,.23l13-.3c-.29.26,2.76.19,6.14.3-2.56-.5,9.67-.33,14.94-.49.33.17-.94.34-7.37.3,7.1.38,9.17-.59,16.14-.27a28.63,28.63,0,0,0-3,.07c3.67-.15,12.65,0,10.54.11h-1.57c10.43.06,31.76,0,33.31-.43a7,7,0,0,1-2,.6l18.61-1.43c-1.64.37,4.66,1.24-4,1.44,2.49.06,5.56.12,10.8,0-1.7,0-4.22-.53-1.91-.56,6.36.4,4.41.21,12.25.56-2.54-.08.28-.65,4.29-.63-.62.08.34.56-1.13.62l10-.56c-2.49.1-.44.48,1.8.64-1-.11,8.64,0,11.3-.05l-4.24-.13c11.28.09,11.15-.79,22.34-.76-1.36.12-3.35.71,2.34.78,2.61-.28,11.55-1.38,21.45-1.6l1.9.16,7.6-.19c-4.73.44-18,1.35-25.26,1.7,4.22.14,1.18.2,7.5.18,2.23.16-3.44.24-5.3.25l14.71.1c-.65-.34,11.26-.34,10.7-.62l-16,.35c-.65-.34,9.25-1,19.67-.9,2.66.14-2,.6-1.76.71,1.35-.11,9.9-.22,10.85-.14l-4.42.18c5.8.13,9.47-.44,16.45-.12,2.41,0,7.19.43,7.61.23-3.93-.38-4.7-1.57-2.08-1.85.84,0,12.64.36,15.39.55,4,.3-6,.72-2.57,1a27,27,0,0,1,3.25-.24c2.52.07-1.05.28,4.44.24.92-.34,11.18,0,2.6-.29,5.38-.1,5.71.07,12,.06-2-.23,5.66-.75,11-.85-.32.09.89.2,1.48.25l27.2.19c1,.08,5.91.18,3.8.33,1.47-.06,2.83-.18,6-.19,6.13.3-7.06,0-2.39.4.4-.2,8.2-.27,12.71-.39-1.39-.31-10.43-.06-14.95.06,0-.42,7.85-.86,18.59-1.06,8.53-.1,3.7.27,5.18.21,7.07,0,10.56-.1,13.4-.24l4.13-.19,2.38-.06h3.88c0,.86,0,1.79,0,2.79,0,.69,0,1.42,0,2.21-.27,5.28-.53.24-.73,1.41,0-2.1,0-3.87,0-5.61l-5.24-.1c-1.59,0-3.11-.07-4.76-.07l5.8.13c-2.21.09-6.85.16-9.38.08,1,0,2.73.08,5.07.1l8.33,0c0,4.21,0,8.92,0,13.45s0,8.94-.11,12.47c.09,2.2.18,6,.29,4.2l0-3.91c.22-3.6.3,7.36.4,2.41.16,5.25.39,11.13.27,18.52l-.3,1.39c.09-.16.18-4.83.08-6.91.14,3.08-.41,11.34,0,14.71l.21-5.18c.16,5.27.48,11.79.39,18.34.3-3,0-1.51.32-6.17-.44,4,0-16.75-.45-10.27.41-4.78.18-8.27.53-14.51-.1.19-.2,2.21-.15-3.29,0-.24-.06-.83-.09-1.2v-.07c0-.24,0-.26,0,.11,0,1.31-.1,2.37-.16,2.8-.23-2.73-.22-11.47-.34-14.43,0-3.26.11,1.37.22-.41l-.18-4.42c.23-.44.37-8.67.51-1v-6.92c0-1.47.06-3.13.1-4.82,0-.85,0-1.7,0-2.53v-3.88l-3.08,0-1.69,0c-3.26-.05-8.24.25-5.4.07l-10.85.14-.1-.06c-10.7,0-22,.38-34.27,0-3.6.06-7.33.13-13.36.06l-1.17-.19c-4.63.07-13.9-.2-15.89,0-5-.53-22.45-.12-30.59-.21l-.31.25c-5.6,0-11,.06-17.92.16l.43.23c-6,.18-15.42-.16-24.9-.14.65-.09,3.05-.06,4.75,0-11.32-.51-23.9.37-34.17,0-2.56.08-4.41,0-6.21,0l.64,0h-1.05l-3.56-.12c1.07.06,2.1.1,3,.12-2,0-5,0-7.9.09l-1.25-.24h-.68c-2.88-.09-2.32.11-.78.29-1.48,0-2.83.09-3.88.15-2.34-.39-7.7.13-10.9-.29-2,.21-14.75.16-16.32.58-.1-.05-1-.08.62-.08-3.27,0-6.54-.1-9.48,0l-1.38-.31-7.15.41c-4.34-.18-6.14-.29-1.83-.53-10.41.37-8.44.14-17.3.5l.44-.2c-3.17,0-8.23.27-10.13.11-7.08-.38-35,0-53.19-.4,3.53.58-8.44-.26-9.16.19-1.06-.14-3.59-.22-.65-.34-9.27.14-13.93-.21-20.33.17-1.06-.14,2-.21,1-.29-.74,0-3,.12-3.91,0s1.36-.12,2.82-.18c-9.47,0-10.42.45-11.11.85a81.26,81.26,0,0,0-10.66.1c-1.67-.13-4.46-.27,1.42-.31-3.31,0-20.22-.2-20.56.12-1-.08-4.63,0-5.5,0l-15.6,0,2.25,0c-.54.07-1,.12-1.63.15s-1.35,0-2.08.05c0,.66,0,1.36,0,2.11s0,1.31,0,2c0,1.41,0,3,0,4.92l0-.16c-.28,13.48.13,5.82-.18,19.12l.24-.72c.51,1.24-.31,11.78-.11,19.5l.14-2.78c.17,4.21-.71,11.78-.77,16a18.27,18.27,0,0,1-.11-2.75c-.3,11.09.32,1.44.39,9.7-.17,1.52-.43-2-.46,3.6-.14,2.77.55,16.13.22,23.71.14-1.67.27-3.33.36.51.05,5.88-.49,15.9-.08,21.21a4.18,4.18,0,0,1-.1,1.06c.11,4.5.18,14.61.4,17.32-.83,4.16.4,27.95-.36,27.85l0,13.83-.08-.36c-.05,8.84.13,12,.32,15.07-.06,2.05-.13.56-.17.39-.15,12.91-.12,14.2.26,25l-.25,1.12c.15,2.94-.38,18.68-.09,31.35a7.9,7.9,0,0,1-.12-1.4c.15,7.13,0,15.66-.12,23.06,0,3.7-.07,7.12,0,9.94,0,1.41,0,2.67.11,3.74,0,.67.08,1.28.11,1.83s.09,1.16.15,1.57v.07l10.17-.22c-12.17-.07,1.81-.39-3.2-.54,4.79,0,12.37.27,6.49.32l-.92-.05c-2.16.47,15.13.17,14.8.49,23.94,0,47.28.24,69.71.26l-2.58-.37,7.82,0c2,.09,2.76.29-2.83.27,1.47.11,3.81.06,5.81,0s3.64-.19,3.71-.23c10.93.15-4.26.43-.91.43l4.55,0-1-.05c3.69-.15,4-.3,10.73-.29,4.24.08,2.18.23,3.85.24,0,0,.13,0,.52,0l2,0,9.86,0-4-.29c4.37-.15,9.27,0,4.73-.31,6.67.5,36.76.18,40.86.33,6.12-.21,12.16-.2,19.64-.18-1.86-.06-3-.38,3.48-.34-2.36.67,11.82.29,17,.77-4.66-.32,18.34-.08,11-.53,5.38.05.33.25,4.41.4,12.82-.25,28.25.17,44.09.09.25-.09-2.41-.23,1-.36l8.37.44c3.12,0,2.88-.51,8.59-.2-.8-.07-2-.19.09-.21,31,.42,63.42-.35,94.93.45-4.27-.17-1.42-.19,1.84-.19-2.12,0,0-.22-.37-.34l13.2.33c2.4-.33,14.14,0,15.52-.34l-4.18.06c5.56-.37-7.77-.83-7-1.31-6.22.43-16.41-.63-26.62,0-2.25-.1,1.93-.15.72-.27-2.59.21-5.71.25-11.5.16l.65-.05c-16.27.05-23.24-.15-41.52-.29l1.35.24c-3.93,0-4.75-.11-6.59-.17-4.51.36,11,0,6.92.42-5.21-.48-27.69,0-31.21-.55-6,0,1.77.27-4.27.27l-1.61-.15-1.52.19a32.51,32.51,0,0,1-6.11-.34c1,0,2.73,0,3.76-.05-5.13-.17-14.48.06-16.25,0l5.81.1c-16.49.13-36.62-.06-52.55.24l1.21.11c-12.17.21-9.75-.12-23.11,0l.49,0c-2.67.11-6.24.17-9.9.15,3.37-.13-6.34-.25-1.92-.4-13.19.23-6.53.18-15.24.59l-2-.18c-3,.17-3.22.25-9.89.3,5.47-.16-4.25-.28,1.87-.49-14-.41-20.78.41-27.2-.18-6.43.51,12.11.28,8.51.39,3,.17-5.31.38-9.7.33s-7.6-.65-18.85-.64l2.31,0c-4.21-.13-8.25.18-13.41,0-2.9.31-6.71,0-7.54.37l10.32-.09c-5.85.11-11.34.57-21,.35.75-.08,3.62-.19,5.59-.25-2.82-.12-5.43.08-8.35,0,.83-.4,12.54-.09,18.81-.39-3-.17-11.86.29-8.71-.14-4.53.54-11.08-.07-18.7.35l.5-.24c-1.2,0-3.7.15-5.92.14l4-.31c-6.17.27-11.89-.22-17.81-.08,12.39,0,2.78.28,8,.46-15.28.31-8.79-.62-25.89-.51,2.32,0,8.69.14,5.07.25-3.25-.05-7.55-.14-9.55-.26-11.33.05,1.74.24-3.09.39-3.85-.29-5.56.12-10.53.21l0-.24c-12.91-.16-3.43.5-15.05.31l4.91-.33-6.06.09,1.25-.28c-3.08.1-5.17.14-7.2.14h-3.12l-1.74,0-.79,0c0-.1,0-.26,0-.42-.09.32-.2.4-.29-.17,0-.07,0-.49-.06-.87s0-.83,0-1.33c0-1,0-2.22,0-3.65.14-3.9.23,2.18.2-5.92a43.31,43.31,0,0,1,.11,7.36c.08.36.16,1.8.23,2.18.17-4.2,0-10.56,0-13.5,0,1.13,0,2.48-.06,3.18l-.33-11.75c.09-1.85.16-.39.23,1.07,0-2.38-.13-4-.16-7.53.2.91.4.69.5,5.64l-.22-11.2c.08-.74.23-5.74.3-4.29.12-6.21-.38-15.23-.22-23.46,0-.42-.08-1.28-.11-3,0-7.74.29-14.59,0-23.76l.35-5.2c-.08-7.18-.44,7-.57-4.91-.12-8.47.3-3.16.39-6.13-.17-4.21-.53-11.53-.25-19.31C1208.18,324.37,1208.13,326.39,1208.15,328.79Zm-.15-88.55c0,1.71.2,5.13.06,6.39A36.49,36.49,0,0,1,1208,240.24Zm57-76c-1.28.08-3.25,0-5.48,0C1261.14,164.16,1263,164.17,1265,164.23Zm371.7,3.94V168C1636.79,164.16,1636.75,165.52,1636.7,168.17Zm-.1,8c0,.8.07.74.1.41-.06-.56-.07-2.34,0-4.38A32.62,32.62,0,0,0,1636.6,176.12ZM1333.14,451l-1.55-.07C1335.08,450.81,1334.11,450.88,1333.14,451Z" transform="translate(-1204.97 -162.05)"/><path class="cls-2" d="M1249.73,164.56a2.46,2.46,0,0,1-.73-.13C1248.32,164.47,1248.31,164.52,1249.73,164.56Z" transform="translate(-1204.97 -162.05)"/><path class="cls-2" d="M1208.28,383.86v.27a1.41,1.41,0,0,0,0,.27Z" transform="translate(-1204.97 -162.05)"/><path class="cls-2" d="M1524.82,164.7c-1.63,0-2.55-.08-3.15-.12A13.92,13.92,0,0,0,1524.82,164.7Z" transform="translate(-1204.97 -162.05)"/><path class="cls-2" d="M1637,218.24l-.06-5.09c0,2.46,0,3.34-.08,4.58C1636.92,217.62,1637,216.65,1637,218.24Z" transform="translate(-1204.97 -162.05)"/><path class="cls-2" d="M1635.52,262.43c0,.74,0,1.57,0,2.31l.11-.2C1635.65,261.37,1635.56,259.15,1635.52,262.43Z" transform="translate(-1204.97 -162.05)"/><path class="cls-2" d="M1636.21,223c-.21.4-.14,3.6-.1,7.16v-.63C1636.39,230.53,1636.3,226.73,1636.21,223Z" transform="translate(-1204.97 -162.05)"/><path class="cls-2" d="M1636.12,230.94v3.3A17.17,17.17,0,0,0,1636.12,230.94Z" transform="translate(-1204.97 -162.05)"/><path class="cls-2" d="M1636.73,186.2c0,1.69.26,1.06.18,2C1637.17,190.11,1636.6,176.94,1636.73,186.2Z" transform="translate(-1204.97 -162.05)"/><polygon class="cls-2" points="430.57 63.78 430.82 62.51 430.62 60.51 430.57 63.78"/><path class="cls-2" d="M1635.72,197.68l-.07,5.7a6.87,6.87,0,0,1,.09,1.52C1635.75,201.39,1635.8,197.55,1635.72,197.68Z" transform="translate(-1204.97 -162.05)"/><path class="cls-2" d="M1635.74,204.9c0,1.83,0,3.57,0,4.59C1635.77,208.5,1635.75,206.37,1635.74,204.9Z" transform="translate(-1204.97 -162.05)"/><polygon class="cls-2" points="430.49 55.99 430.54 54.31 430.56 50.29 430.49 55.99"/><path class="cls-2" d="M1608.24,163.48l-6.22.08c-.63.08,1.07.13,3.38.1C1606.89,163.6,1609.2,163.57,1608.24,163.48Z" transform="translate(-1204.97 -162.05)"/><path class="cls-2" d="M1627.05,164.17c-1.68,0-1.79-.11-2.74-.19l-.19.31Z" transform="translate(-1204.97 -162.05)"/><path class="cls-2" d="M1608.91,164.24c-.61.09-9,.25-1.14.23C1608.4,164.38,1614.63,164.31,1608.91,164.24Z" transform="translate(-1204.97 -162.05)"/><polygon class="cls-2" points="310.23 1.79 311.81 1.79 311.59 1.28 310.23 1.79"/><path class="cls-2" d="M1432.61,165.07c7.37.12,1.75-.32,8.41-.16,1.73-.12-5.44-.13-3.67-.23C1432.91,164.8,1430.57,164.73,1432.61,165.07Z" transform="translate(-1204.97 -162.05)"/><path class="cls-2" d="M1437.35,164.68l2.27-.08C1438.34,164.63,1437.73,164.66,1437.35,164.68Z" transform="translate(-1204.97 -162.05)"/><polygon class="cls-2" points="417.5 289.15 422.24 289.25 419.19 289.08 417.5 289.15"/><path class="cls-2" d="M1631.57,450.83l1.12.32,2.85-.29C1634.47,450.87,1632.39,450.9,1631.57,450.83Z" transform="translate(-1204.97 -162.05)"/><path class="cls-2" d="M1208.65,227.07l-.08-.36c-.08.74-.09,1.84-.1,4.07Z" transform="translate(-1204.97 -162.05)"/><polygon class="cls-2" points="3.43 129.29 3.44 128.18 3.15 130.25 3.43 129.29"/><path class="cls-2" d="M1208.78,345.29c0-2.2,0-4.79,0-7C1208.79,343.09,1208.42,345.88,1208.78,345.29Z" transform="translate(-1204.97 -162.05)"/><path class="cls-2" d="M1205.68,165.39c0-2.11-.19-1.36-.22-1.67C1205.5,167.25,1205.74,165.3,1205.68,165.39Z" transform="translate(-1204.97 -162.05)"/><polygon class="cls-2" points="1.19 38.18 1.1 37.56 1.31 42.7 1.19 38.18"/><path class="cls-2" d="M1206.16,232.82c.35-3.08-.06-11.81.07-17.61l.08-1-.29-2.62C1206.07,218.69,1206.26,227.85,1206.16,232.82Z" transform="translate(-1204.97 -162.05)"/><path class="cls-2" d="M1205.38,250.19c.14-1.07.12,3.76,0-4.05,0,.4,0,.51,0,.74C1205.39,247.58,1205.39,248.55,1205.38,250.19Z" transform="translate(-1204.97 -162.05)"/><path class="cls-2" d="M1205.39,246.88c0-3.43-.11,2.24,0,0Z" transform="translate(-1204.97 -162.05)"/><path class="cls-2" d="M1205.47,262.72l-.12-4.52c-.08.95-.1,5-.16,3.48C1205.26,266.31,1205.34,265.36,1205.47,262.72Z" transform="translate(-1204.97 -162.05)"/><path class="cls-2" d="M1205.73,267l0-2.34A15.13,15.13,0,0,0,1205.73,267Z" transform="translate(-1204.97 -162.05)"/><path class="cls-2" d="M1205.57,259.7l.11,5a6.28,6.28,0,0,0,0-2.28C1205.75,262.79,1205.64,261.81,1205.57,259.7Z" transform="translate(-1204.97 -162.05)"/><path class="cls-2" d="M1205.62,256.89c.08-2.54.13-5.81.25-1.28C1205.82,247,1205.57,248.24,1205.62,256.89Z" transform="translate(-1204.97 -162.05)"/><path class="cls-2" d="M1206.53,234.48l.1-3.39-.12-2.93C1206.57,229.63,1206.41,234.69,1206.53,234.48Z" transform="translate(-1204.97 -162.05)"/><path class="cls-2" d="M1205.29,290.88a15.81,15.81,0,0,0,.3-1.85l-.09-3.34C1205.45,287.4,1205.4,290.66,1205.29,290.88Z" transform="translate(-1204.97 -162.05)"/><path class="cls-2" d="M1205.59,289l.13,5C1205.73,289.56,1205.67,288.74,1205.59,289Z" transform="translate(-1204.97 -162.05)"/><polygon class="cls-2" points="1.16 105.76 0.88 97.56 1.16 107.34 1.16 105.76"/><polygon class="cls-2" points="0.3 147.91 0.13 145.08 0.4 150.12 0.3 147.91"/><path class="cls-2" d="M1205.31,322.62c-.15-2.1-.25,2.87-.34.66,0,3.43.15,6.37.27,9C1205.17,329.48,1205.19,326.49,1205.31,322.62Z" transform="translate(-1204.97 -162.05)"/><path class="cls-2" d="M1205.4,336.73c-.05-1.4-.11-2.85-.16-4.44C1205.27,333.78,1205.32,335.25,1205.4,336.73Z" transform="translate(-1204.97 -162.05)"/><path class="cls-2" d="M1205.68,302.53a30.32,30.32,0,0,0-.22,3.93l.22-2Z" transform="translate(-1204.97 -162.05)"/><path class="cls-2" d="M1205.68,304.43v.07c0,2.13,0,3.61,0,4.24C1205.67,308.2,1205.67,306.9,1205.68,304.43Z" transform="translate(-1204.97 -162.05)"/><path class="cls-2" d="M1205.68,302v.49A1.61,1.61,0,0,0,1205.68,302Z" transform="translate(-1204.97 -162.05)"/><path class="cls-2" d="M1205.94,280.91c.12,2.94.24,9.06.43,3.14C1206.22,281.94,1206.12,285.33,1205.94,280.91Z" transform="translate(-1204.97 -162.05)"/><path class="cls-2" d="M1206,299.6l0-5.31c-.06.1-.14,1.06-.2-.39Z" transform="translate(-1204.97 -162.05)"/><polygon class="cls-2" points="1.04 140.14 0.97 137.54 0.96 139.51 1.04 140.14"/><path class="cls-2" d="M1205.6,327.64c.09,2.29.1,4.8.12,7.63,0-3,.06-6.17.06-9.15C1205.71,325.7,1205.59,324.39,1205.6,327.64Z" transform="translate(-1204.97 -162.05)"/><path class="cls-2" d="M1205.66,316.36v.51C1205.69,316.56,1205.7,316.31,1205.66,316.36Z" transform="translate(-1204.97 -162.05)"/><path class="cls-2" d="M1205.71,363.15l0-.44,0-.11Z" transform="translate(-1204.97 -162.05)"/><path class="cls-2" d="M1205.82,325.61c0-2.28,0-3.65-.08-4.95,0,1.71,0,3.52,0,5.46C1205.81,326.31,1205.83,326.34,1205.82,325.61Z" transform="translate(-1204.97 -162.05)"/><path class="cls-2" d="M1205.5,344.51c0-1.19.08-2.54.12-3.95C1205.55,341.72,1205.44,344.09,1205.5,344.51Z" transform="translate(-1204.97 -162.05)"/><path class="cls-2" d="M1205.61,317.64v-.34C1205.56,318.05,1205.58,318,1205.61,317.64Z" transform="translate(-1204.97 -162.05)"/><path class="cls-2" d="M1205.61,317.64c0,1.17.09,2.1.13,3,0-1.38,0-2.67-.07-3.79C1205.66,317.15,1205.63,317.44,1205.61,317.64Z" transform="translate(-1204.97 -162.05)"/><path class="cls-2" d="M1207.09,371.6a82.61,82.61,0,0,1-.17-11.58c-.15-5.09-.8-1.76-1.17,2.69.09.16.17.16.29,5.4.1-1.84.25-11.64.43-7.21a89.38,89.38,0,0,1-.18,9.07c.25-2.87.36,8.83.73,7.32l-.13-6.09C1206.94,371.09,1207,373.29,1207.09,371.6Z" transform="translate(-1204.97 -162.05)"/><path class="cls-2" d="M1205.77,352.72l0-2.16c0,2.46-.11,4.22-.27,7.46a33.84,33.84,0,0,0,.24,4.58l0-10.62Z" transform="translate(-1204.97 -162.05)"/><path class="cls-2" d="M1205.75,340.87c.21,1.69.31,6.87.54,3.69,0-6.33-.18-4.43-.28-8.22.06,10.22-.11-2.93-.24,4.45,0-2,0-3.81,0-5.52,0,1.84-.07,3.62-.1,5.29v-.28h0c0-.45,0-.59,0-.09v.21a3.13,3.13,0,0,1,.08.46c0,3-.06.47-.08-.46,0,0,0-.11,0-.12v0l.12,10.24C1205.78,348.39,1205.77,345.68,1205.75,340.87Z" transform="translate(-1204.97 -162.05)"/><path class="cls-2" d="M1206.83,289.5c0,.32,0,.31,0,.33C1206.81,290.49,1206.82,290.75,1206.83,289.5Z" transform="translate(-1204.97 -162.05)"/><path class="cls-2" d="M1206.7,293.72c0-.75-.12-1.37-.1-3.79.07-2.1.11,0,.18-.1-.06-1.46-.16-5.1-.26-.53l0,.73c-.08,4.12-.34,9.41-.37,8.69A50.15,50.15,0,0,0,1206.7,293.72Z" transform="translate(-1204.97 -162.05)"/><path class="cls-2" d="M1206.28,317.59l.1,8.52.19-4.34-.11.22C1206.5,317.14,1206.36,318.19,1206.28,317.59Z" transform="translate(-1204.97 -162.05)"/><polygon class="cls-2" points="0.63 202.08 0.41 200.94 0.73 205.87 0.63 202.08"/><polygon class="cls-2" points="0.66 213.15 0.46 212.74 0.58 215.67 0.66 213.15"/><path class="cls-2" d="M1634.35,328.32l-.06-2.5C1634.32,327,1634.34,327.76,1634.35,328.32Z" transform="translate(-1204.97 -162.05)"/><path class="cls-2" d="M1634.34,346.45l.09.45C1634.38,346.06,1634.34,345.71,1634.34,346.45Z" transform="translate(-1204.97 -162.05)"/><path class="cls-2" d="M1404.17,451.22c3.65.19,7.72.48,7.28.25l-1.12-.21C1407.78,451.3,1405.83,451.27,1404.17,451.22Z" transform="translate(-1204.97 -162.05)"/><path class="cls-2" d="M1590.48,449.93l-1.07-.07-2.46.21Z" transform="translate(-1204.97 -162.05)"/><path class="cls-2" d="M1593.05,449l4.81.14C1596.78,449.12,1595.24,449.08,1593.05,449Z" transform="translate(-1204.97 -162.05)"/><path class="cls-2" d="M1634.12,229.29l-.22-2.92C1633.9,230.94,1634,228.93,1634.12,229.29Z" transform="translate(-1204.97 -162.05)"/><path class="cls-2" d="M1245.58,451.17c3.14.08,5.65.12,7.85.13A72.4,72.4,0,0,0,1245.58,451.17Z" transform="translate(-1204.97 -162.05)"/><path class="cls-2" d="M1636.65,335.46a10.29,10.29,0,0,0-.13-2.15C1636.56,334.89,1636.6,335.78,1636.65,335.46Z" transform="translate(-1204.97 -162.05)"/><path class="cls-2" d="M1262.52,451.3l-1.66-.05c-2.3,0-4.62.06-7.43.05C1256.23,451.39,1259.44,451.45,1262.52,451.3Z" transform="translate(-1204.97 -162.05)"/><path class="cls-2" d="M1342,165l-.82,0A2.89,2.89,0,0,0,1342,165Z" transform="translate(-1204.97 -162.05)"/><path class="cls-2" d="M1237.32,162.77l4.3,0C1240.85,162.73,1239.55,162.74,1237.32,162.77Z" transform="translate(-1204.97 -162.05)"/><path class="cls-2" d="M1205.54,419.77c0-2.34,0-.37,0,0Z" transform="translate(-1204.97 -162.05)"/><path class="cls-2" d="M1206.4,408.35a3.45,3.45,0,0,0,.1.94A5.46,5.46,0,0,1,1206.4,408.35Z" transform="translate(-1204.97 -162.05)"/><path class="cls-2" d="M1285.92,450h.21C1285.43,449.9,1285.55,449.91,1285.92,450Z" transform="translate(-1204.97 -162.05)"/><path class="cls-2" d="M1205.64,416.24c0,.88,0,1.9-.07,3C1205.58,418.76,1205.6,417.85,1205.64,416.24Z" transform="translate(-1204.97 -162.05)"/><path class="cls-2" d="M1205.54,416.72c0-.81,0-1.45,0-2.06C1205.52,414.37,1205.5,414.63,1205.54,416.72Z" transform="translate(-1204.97 -162.05)"/><path class="cls-2" d="M1205.55,423.05c0-1.35,0-2.6,0-3.81,0,.47,0,.66,0,.53C1205.54,420.46,1205.55,421.44,1205.55,423.05Z" transform="translate(-1204.97 -162.05)"/><path class="cls-2" d="M1534.39,164.37l-.5,0C1531.52,164.44,1532.56,164.43,1534.39,164.37Z" transform="translate(-1204.97 -162.05)"/><path class="cls-2" d="M1465.31,449h.08Z" transform="translate(-1204.97 -162.05)"/><path class="cls-2" d="M1473.75,448.81a74.49,74.49,0,0,1-8.36.18l2.79.63Z" transform="translate(-1204.97 -162.05)"/><path class="cls-2" d="M1634.29,284.91l-.2,5.92c-.32-7.15-.21-12.33-.48-6.76.68.84.07,23,.75,23.85l-.15,3.91c0-1.12,0-1.3,0-2.41-.33,7.6.49,5.65.39,15.44,0,3.41-.15,5.79-.23,3.46l.17,7.6c0,2.21-.13,1.67-.12-.53l0,11.59,0-.08c.11,1.65.28,5.4.35,7.23-.1,2.95-.08-1.48-.16-.72l.16,6.42c-.17,2.61-.34-2.71-.32-7.14-.68,6,.17,5.32-.22,18.26l-.09-6.06c-.38,3.91-.25,8.64-.49,15.49.13-1.63.61-13.72.78-6.75,0,2-.08,4.55.06,8.31-.24,0-.18,3.7-.17,8.29l-.32-.31c.09,5,.26,4.57.4,7.49a41.23,41.23,0,0,1-.49,8c-.05,8.86.4-6.12.46,4.37-.12,7.36,0,12.54.2,21.36-.11,5.15-.2-.91-.29.94l.26,4.58c0,1.12-.09.75-.13.57.1,3.85.32.32.41,6.37a12.81,12.81,0,0,1,.08,2.27c0,.55,0,1.18,0,1.88,0,.46,0,1-.07,1.5l-1-.05-1.52-.05-3.48-.08c-2.35,0-4.71,0-6.82.1-1.85-.09.89-.2.33-.32-10.29.26-8.82.19-17.26.54l-7.2-.21c5.29.24-1.46.53-7.38.76l4.55.26-9.44.18c-1.14-.06-.19-.17,1.36-.3l-1.73.08c-3.38-.12-1.63-.31.79-.48l3.4.19c2.33-.19,4.52-.41,4-.59-.61,0-1.79.07-3.09.08.61-.05,1-.1.71-.13s-1.3,0-2.85.12l-2.14-.36-.52.14-12.35-.22c-8.84.36-16.53.89-30.55,1,3.48-.27.74-.43.93-.74,3.83.33,10.87-.14,18.14-.07-3.8,0-3-.19-2-.24l-13,.3c.29-.25-2.76-.19-6.14-.29,2.56.5-9.67.33-14.94.48-.33-.16.93-.34,7.37-.3-7.1-.37-9.17.59-16.14.27a29.62,29.62,0,0,0,3-.06c-3.67.15-12.65,0-10.54-.12H1511c-10.43-.06-31.76,0-33.31.42a7.7,7.7,0,0,1,2-.6l-18.61,1.43c1.64-.36-4.66-1.23,4-1.44-2.48-.05-5.55-.11-10.79,0,1.7.05,4.22.53,1.91.56-6.36-.41-4.41-.22-12.25-.56,2.54.07-.28.65-4.29.63.62-.09-.34-.57,1.13-.63l-10,.57c2.49-.11.44-.48-1.8-.64,1,.11-8.64,0-11.3.05l4.24.13c-11.28-.09-11.15.79-22.34.76,1.36-.12,3.35-.72-2.34-.79-2.61.29-11.55,1.39-21.45,1.61l-1.9-.17-7.6.19c4.73-.43,18-1.34,25.26-1.7-4.22-.13-1.18-.19-7.5-.18-2.23-.15,3.44-.23,5.3-.24l-14.71-.1c.65.34-11.26.34-10.7.62l16-.35c.65.33-9.25.95-19.67.89-2.66-.13,2-.6,1.76-.71-1.35.12-9.9.22-10.85.14l4.42-.18c-5.81-.12-9.47.45-16.45.13-2.41,0-7.19-.44-7.61-.24,3.93.39,4.7,1.57,2.08,1.86-.84,0-12.64-.37-15.39-.56-4-.3,6-.71,2.57-1a32,32,0,0,1-3.25.24c-2.52-.08,1-.28-4.44-.24-.92.34-11.18,0-2.6.29-5.38.09-5.71-.07-12-.06,2,.22-5.66.75-11,.85.32-.09-.89-.2-1.48-.25l-27.2-.19c-1-.08-5.91-.18-3.8-.33-1.47.06-2.83.17-6,.18-6.13-.29,7.06,0,2.39-.4-.4.2-8.2.28-12.71.4,1.39.31,10.43.06,15-.06,0,.42-7.85.86-18.59,1.05-8.53.11-3.7-.27-5.18-.21-7.07,0-10.56.11-13.4.25l-4.13.19-2.39.05H1206c0-.87,0-1.79,0-2.79,0-.69,0-1.42,0-2.21.27-5.28.53-.24.73-1.41,0,2.1,0,3.87,0,5.61l5.24.1c1.59,0,3.11.07,4.76.07l-5.8-.13c2.21-.09,6.85-.16,9.38-.08-.95-.05-2.73-.08-5.07-.1l-8.33,0c0-4.21,0-8.91,0-13.44s0-8.94.11-12.48c-.09-2.2-.18-6-.29-4.19l0,3.91c-.22,3.6-.3-7.37-.4-2.41-.16-5.25-.4-11.14-.27-18.53l.3-1.39c-.09.16-.18,4.83-.08,6.91-.14-3.08.41-11.33,0-14.71l-.21,5.18c-.16-5.27-.48-11.78-.39-18.33-.3,3,0,1.51-.32,6.16.44-4,0,16.76.45,10.28-.41,4.77-.18,8.26-.53,14.51.1-.2.2-2.22.15,3.28,0,.25.06.84.09,1.21v.07c0,.23,0,.26,0-.12,0-1.31.1-2.37.16-2.8.23,2.73.22,11.48.34,14.43,0,3.26-.11-1.36-.22.42l.18,4.41c-.23.44-.37,8.67-.51,1v6.91c0,1.47-.06,3.14-.1,4.83,0,.84,0,1.7,0,2.53v3.87h3.08l1.69,0c3.26.05,8.24-.25,5.4-.07l10.85-.14.1,0c10.7,0,22-.37,34.27,0,3.6-.06,7.33-.13,13.36-.07l1.17.2c4.63-.07,13.9.19,15.89,0,5,.52,22.45.11,30.59.21l.31-.26c5.6,0,11-.05,17.92-.16l-.43-.22c6-.18,15.41.16,24.9.14-.65.08-3,.06-4.75,0,11.32.5,23.9-.37,34.17,0,2.56-.08,4.41-.06,6.21,0h.41l3.56.12c-1.07-.05-2.1-.1-3-.12,2,0,5,0,7.9-.08l1.25.24h.68c2.88.09,2.32-.11.78-.3,1.48,0,2.83-.08,3.88-.14,2.34.39,7.7-.13,10.9.28,2-.2,14.75-.15,16.32-.57.1.05,1,.08-.62.08,3.27,0,6.54.1,9.48,0l1.38.3,7.15-.41c4.34.19,6.14.3,1.83.53,10.41-.36,8.44-.13,17.3-.49l-.44.19c3.17,0,8.22-.27,10.13-.1,7.08.37,35,0,53.19.4-3.53-.59,8.44.26,9.16-.19,1.06.13,3.59.21.65.33,9.27-.13,13.93.22,20.33-.16,1.06.14-2,.2-1,.28.74,0,2.95-.12,3.91,0s-1.36.11-2.82.17c9.47,0,10.42-.45,11.11-.84a83.05,83.05,0,0,0,10.66-.1c1.67.13,4.46.26-1.42.31,3.31,0,20.22.19,20.56-.13,1,.08,4.62,0,5.5,0l15.6,0-2.25-.06c.54-.06,1-.11,1.63-.14s1.35-.05,2.08-.05c0-.67,0-1.37,0-2.12s0-1.3,0-2c0-1.42,0-3,0-4.93l0,.17c.28-13.48-.13-5.82.18-19.13l-.24.73c-.51-1.24.31-11.79.11-19.51l-.14,2.79c-.17-4.22.71-11.79.77-16a17.6,17.6,0,0,1,.1,2.74c.31-11.08-.31-1.43-.38-9.69.17-1.53.43,2,.46-3.6.14-2.77-.55-16.13-.22-23.72-.14,1.68-.27,3.34-.36-.5,0-5.88.49-15.9.08-21.21a4.43,4.43,0,0,1,.1-1.07c-.11-4.49-.18-14.61-.4-17.32.83-4.15-.4-27.95.36-27.85l0-13.83.08.37c0-8.84-.13-12-.32-15.08,0-2,.13-.55.17-.38.15-12.92.12-14.2-.26-25l.24-1.13c-.14-2.93.39-18.67.1-31.34a7.85,7.85,0,0,1,.12,1.39c-.15-7.12,0-15.65.12-23.06,0-3.7.07-7.11,0-9.93,0-1.41,0-2.67-.11-3.75,0-.66-.08-1.27-.11-1.82s-.09-1.16-.15-1.57v-.07l-10.17.22c12.17.07-1.81.39,3.2.54-4.79.05-12.37-.27-6.49-.32l.92,0c2.16-.47-15.13-.16-14.8-.48-23.94,0-47.28-.24-69.71-.26l2.58.37-7.82,0c-2-.09-2.76-.29,2.82-.28-1.46-.1-3.8-.06-5.8,0s-3.64.2-3.72.24c-10.92-.15,4.27-.43.92-.44l-4.55,0,1,0c-3.69.15-4,.31-10.73.29a33.89,33.89,0,0,1-3.85-.24,2.39,2.39,0,0,0-.52,0h-2l-9.86,0,4,.29c-4.37.14-9.27,0-4.73.31-6.67-.5-36.76-.18-40.86-.34-6.12.21-12.16.21-19.64.18,1.86.06,3,.39-3.48.35,2.36-.67-11.82-.29-17-.77,4.66.32-18.34.08-11,.53-5.39,0-.33-.25-4.41-.41-12.82.26-28.25-.17-44.09-.08-.25.09,2.41.22-1,.35l-8.37-.44c-3.12,0-2.88.51-8.59.21.8.07,2,.18-.09.21-31-.43-63.42.35-94.93-.45,4.26.17,1.42.18-1.84.19,2.12,0,0,.22.37.34l-13.2-.34c-2.4.34-14.14,0-15.52.34l4.18-.05c-5.56.37,7.77.83,7,1.31,6.22-.43,16.41.62,26.62,0,2.25.09-1.93.15-.72.26,2.59-.2,5.71-.25,11.5-.15l-.65.05c16.27-.05,23.24.15,41.52.28l-1.35-.23c3.92,0,4.75.1,6.59.16,4.51-.36-11,0-6.92-.41,5.21.48,27.69,0,31.21.55,6,0-1.77-.27,4.27-.27l1.6.15,1.53-.19c4,0,6,.21,6.11.34-1,0-2.73,0-3.76,0,5.13.18,14.48,0,16.25,0l-5.81-.09c16.49-.14,36.62.06,52.55-.24l-1.21-.12c12.17-.2,9.75.13,23.11,0l-.49,0c2.67-.11,6.24-.17,9.9-.16-3.37.13,6.34.26,1.92.4,13.19-.22,6.53-.17,15.24-.59l2,.19c3-.17,3.22-.26,9.89-.31-5.47.16,4.25.29-1.87.5,14,.4,20.78-.41,27.2.18,6.43-.51-12.11-.29-8.51-.39-3-.17,5.31-.39,9.7-.34s7.6.66,18.85.65l-2.31,0c4.21.13,8.25-.17,13.41,0,2.9-.31,6.71,0,7.54-.38l-10.32.09c5.85-.1,11.34-.56,21-.34-.75.08-3.62.19-5.59.24,2.82.12,5.43-.07,8.35,0-.83.39-12.54.08-18.81.39,3,.16,11.86-.29,8.71.14,4.53-.55,11.08.07,18.7-.35l-.5.24c1.2,0,3.7-.15,5.92-.15l-4,.31c6.17-.26,11.89.23,17.81.09-12.39,0-2.78-.29-8-.46,15.28-.32,8.79.62,25.89.51-2.32,0-8.69-.15-5.07-.26,3.25.05,7.55.14,9.55.27,11.33-.05-1.74-.25,3.09-.39,3.85.29,5.56-.12,10.53-.21l0,.24c12.91.15,3.43-.5,15-.32l-4.91.34,6.06-.09-1.25.28c3.08-.1,5.17-.14,7.2-.15l3.12,0h1.74l.79,0c0,.1,0,.25,0,.41.09-.32.2-.4.29.18,0,.07,0,.49.06.86s0,.84,0,1.34c0,1,0,2.22,0,3.65-.14,3.9-.23-2.19-.2,5.92a43.31,43.31,0,0,1-.11-7.36c-.08-.36-.16-1.81-.23-2.18-.17,4.2,0,10.56,0,13.49,0-1.13,0-2.48.06-3.17l.33,11.75c-.09,1.85-.16.38-.23-1.07,0,2.38.13,4,.15,7.53-.19-.91-.39-.69-.49-5.65l.22,11.2c-.08.75-.23,5.75-.3,4.29-.12,6.21.38,15.23.22,23.46,0,.43.08,1.29.11,3,0,7.73-.29,14.59,0,23.75l-.35,5.21c.08,7.18.44-7.05.57,4.91.12,8.46-.3,3.16-.39,6.13.17,4.21.53,11.53.25,19.3C1634.26,289.33,1634.31,287.31,1634.29,284.91Zm.15,88.55c0-1.72-.2-5.14-.06-6.39A36.46,36.46,0,0,1,1634.44,373.46Zm-57,76c1.28-.08,3.25,0,5.48,0C1581.3,449.54,1579.47,449.53,1577.44,449.47Zm-371.7-4v.19C1205.65,449.54,1205.69,448.18,1205.74,445.52Zm.1-7.94c0-.8-.07-.75-.1-.41.06.56.07,2.34,0,4.37A32.34,32.34,0,0,0,1205.84,437.58ZM1509.3,162.75l1.55.06C1507.36,162.88,1508.33,162.82,1509.3,162.75Z" transform="translate(-1204.97 -162.05)"/><path class="cls-2" d="M1592.71,449.14a2.14,2.14,0,0,1,.73.13C1594.11,449.23,1594.13,449.18,1592.71,449.14Z" transform="translate(-1204.97 -162.05)"/><path class="cls-2" d="M1634.16,229.83v-.27a1.57,1.57,0,0,0,0-.27Z" transform="translate(-1204.97 -162.05)"/><path class="cls-2" d="M1317.62,449c1.63,0,2.55.07,3.15.12A13.92,13.92,0,0,0,1317.62,449Z" transform="translate(-1204.97 -162.05)"/><path class="cls-2" d="M1205.43,395.46l.06,5.09c0-2.46,0-3.34.08-4.58C1205.52,396.08,1205.43,397.05,1205.43,395.46Z" transform="translate(-1204.97 -162.05)"/><path class="cls-2" d="M1206.92,351.27c0-.75,0-1.58,0-2.31l-.11.2C1206.79,352.33,1206.88,354.55,1206.92,351.27Z" transform="translate(-1204.97 -162.05)"/><path class="cls-2" d="M1206.23,390.75c.21-.41.14-3.6.1-7.17v.63C1206,383.16,1206.14,387,1206.23,390.75Z" transform="translate(-1204.97 -162.05)"/><path class="cls-2" d="M1206.32,382.75v-3.29A17,17,0,0,0,1206.32,382.75Z" transform="translate(-1204.97 -162.05)"/><path class="cls-2" d="M1205.71,427.5c0-1.7-.26-1.07-.18-2C1205.27,423.59,1205.84,436.75,1205.71,427.5Z" transform="translate(-1204.97 -162.05)"/><polygon class="cls-2" points="1.93 225.8 1.68 227.08 1.88 229.08 1.93 225.8"/><path class="cls-2" d="M1206.72,416l.07-5.7a7,7,0,0,1-.09-1.53C1206.69,412.3,1206.64,416.15,1206.72,416Z" transform="translate(-1204.97 -162.05)"/><path class="cls-2" d="M1206.7,408.79c0-1.83,0-3.57,0-4.58C1206.67,405.19,1206.69,407.32,1206.7,408.79Z" transform="translate(-1204.97 -162.05)"/><polygon class="cls-2" points="2 233.59 1.95 235.28 1.93 239.3 2 233.59"/><path class="cls-2" d="M1234.2,450.21l6.22-.07c.63-.09-1.07-.14-3.38-.1C1235.55,450.1,1233.24,450.13,1234.2,450.21Z" transform="translate(-1204.97 -162.05)"/><path class="cls-2" d="M1215.39,449.53a26.74,26.74,0,0,1,2.74.19l.19-.31Z" transform="translate(-1204.97 -162.05)"/><path class="cls-2" d="M1233.53,449.45c.61-.08,9-.24,1.14-.22C1234,449.31,1227.81,449.38,1233.53,449.45Z" transform="translate(-1204.97 -162.05)"/><polygon class="cls-2" points="122.26 287.79 120.68 287.8 120.91 288.31 122.26 287.79"/><path class="cls-2" d="M1409.83,448.63c-7.37-.12-1.75.31-8.41.16-1.73.12,5.44.12,3.67.23C1409.53,448.89,1411.87,449,1409.83,448.63Z" transform="translate(-1204.97 -162.05)"/><path class="cls-2" d="M1405.09,449l-2.27.08Z" transform="translate(-1204.97 -162.05)"/><polygon class="cls-2" points="14.99 0.44 10.25 0.33 13.31 0.5 14.99 0.44"/><path class="cls-2" d="M1210.86,162.87l-1.11-.32-2.85.29C1208,162.83,1210.05,162.8,1210.86,162.87Z" transform="translate(-1204.97 -162.05)"/><path class="cls-2" d="M1633.79,386.62l.08.36c.08-.73.09-1.84.1-4.06Z" transform="translate(-1204.97 -162.05)"/><polygon class="cls-2" points="429.06 160.3 429.05 161.4 429.35 159.34 429.06 160.3"/><path class="cls-2" d="M1633.66,268.41c0,2.2,0,4.79,0,7C1633.65,270.61,1634,267.81,1633.66,268.41Z" transform="translate(-1204.97 -162.05)"/><text class="cls-3" transform="translate(170.41 53.73)">Your globe<tspan x="-4.5" y="54">It opens up</tspan><tspan x="-31.5" y="72">as a whiskey safe</tspan></text><g id="DquXDw.tif"><path d="M1207.7,238.44c2.24.06,4.47.18,6.7.18h421.5l.15,1.46a7.68,7.68,0,0,1-2.3,1.06c-1.7.16-3.43.07-5.15.07H1214.89c-2.39,0-4.79.2-7.19.31Z" transform="translate(-1204.97 -162.05)"/><path d="M1207.7,256c2.4.11,4.8.31,7.19.31q207.38,0,414.74,0a11.84,11.84,0,0,1,6.42,1.5,7.84,7.84,0,0,1-2.27,1c-1.71.16-3.44.07-5.16.07H1214.4c-2.23,0-4.46.12-6.7.18Z" transform="translate(-1204.97 -162.05)"/><ellipse cx="216.79" cy="7.23" rx="302.72" ry="1.46"/><path d="M1207.7,185.8h428.12c0,.57.07,1.13.1,1.7a38.82,38.82,0,0,1-4.13.43q-211.53,0-423.06,0c-.34,0-.68,0-1-.06Z" transform="translate(-1204.97 -162.05)"/><path d="M1207.7,203.35q211,0,422,.06c2.06,0,4.12.21,6.17.33v1.41a36.23,36.23,0,0,1-4.13.46q-211,0-422,0a20.6,20.6,0,0,1-2-.2Z" transform="translate(-1204.97 -162.05)"/><path d="M1207.7,220.9c2.24,0,4.47.09,6.71.09h421.37l.23,1.33a11.68,11.68,0,0,1-2.7,1,31.4,31.4,0,0,1-4.12.06q-207.68,0-415.36,0c-2,0-4.08-.28-6.13-.43Z" transform="translate(-1204.97 -162.05)"/><path d="M1207.7,274.57c2-.15,4.09-.43,6.13-.43q207.95,0,415.88,0c2.06,0,4.11.28,6.17.43v1.55c-2,.14-4.08.4-6.12.4q-166.66,0-333.32,0-44.37,0-88.75.1Z" transform="translate(-1204.97 -162.05)"/><path d="M1207.7,292.12c2.06-.09,4.12-.25,6.17-.25H1629.2c2.23,0,4.46.25,6.69.38l-.1,1.93H1207.7Z" transform="translate(-1204.97 -162.05)"/><path d="M1207.7,309.67c1.72,0,3.44-.09,5.16-.09h416.86c2.06,0,4.13.2,6.19.31l-.09,1.83H1207.7Z" transform="translate(-1204.97 -162.05)"/><path d="M1207.7,327.22q211.3,0,422.61.09c1.93,0,3.85,1.28,5.77,2q-212.13,0-424.25-.1C1210.53,329.17,1207.38,331.29,1207.7,327.22Z" transform="translate(-1204.97 -162.05)"/></g><g id="DquXDw.tif-2" data-name="DquXDw.tif"><path d="M1207.7,416c2.24.06,4.47.17,6.7.17h421.5l.15,1.47a7.9,7.9,0,0,1-2.3,1.05c-1.7.17-3.43.07-5.15.07H1214.89c-2.39,0-4.79.21-7.19.31Z" transform="translate(-1204.97 -162.05)"/><path d="M1207.7,433.53c2.4.11,4.8.31,7.19.31l414.74,0a11.93,11.93,0,0,1,6.42,1.5,7.58,7.58,0,0,1-2.27,1c-1.71.16-3.44.07-5.16.07H1214.4c-2.23,0-4.46.11-6.7.17Z" transform="translate(-1204.97 -162.05)"/><ellipse cx="216.79" cy="184.77" rx="302.72" ry="1.46"/><path d="M1207.7,363.34h428.12c0,.57.07,1.14.1,1.7a38.85,38.85,0,0,1-4.13.44H1208.73c-.34,0-.68-.05-1-.07Z" transform="translate(-1204.97 -162.05)"/><path d="M1207.7,380.89q211,0,422,.06c2.06,0,4.12.22,6.17.33v1.41a36.23,36.23,0,0,1-4.13.46q-211,0-422,0c-.68,0-1.36-.13-2-.19Z" transform="translate(-1204.97 -162.05)"/><path d="M1207.7,398.44c2.24,0,4.47.09,6.71.09h421.37l.23,1.34a12.11,12.11,0,0,1-2.7,1,33.23,33.23,0,0,1-4.12.07q-207.68,0-415.36,0c-2,0-4.08-.29-6.13-.44Z" transform="translate(-1204.97 -162.05)"/></g></svg>