<?xml version="1.0" encoding="utf-8"?>
<!-- Generator: Adobe Illustrator 22.0.1, SVG Export Plug-In . SVG Version: 6.00 Build 0)  -->
<svg version="1.1" id="Layer_6" xmlns="http://www.w3.org/2000/svg" xmlns:xlink="http://www.w3.org/1999/xlink" x="0px" y="0px"
	 viewBox="0 0 432.5 302.4" style="enable-background:new 0 0 432.5 302.4;" xml:space="preserve">
<style type="text/css">
	.st0{fill:#FFFFFF;}
	.st1{fill:#1D1D1B;}
	.st2{enable-background:new    ;}
	.st3{font-family:'AndaleMono';}
	.st4{font-size:15px;}
</style>
<title>note3</title>
<rect x="1.9" y="1.7" class="st0" width="428.6" height="286.3"/>
<path class="st1" d="M431.8,286.3c0,2.1,0.2,1.4,0.2,1.7C432,284.4,431.7,286.4,431.8,286.3z"/>
<polygon class="st1" points="431.3,251.4 431.4,252 431.2,246.9 "/>
<path class="st1" d="M431.3,218.8c-0.3,3.1,0.1,11.8-0.1,17.6l-0.1,1l0.3,2.6C431.4,233,431.2,223.8,431.3,218.8z"/>
<path class="st1" d="M432.1,201.5c-0.1,1.1-0.1-3.8,0,4c0-0.4,0-0.5,0-0.7C432.1,204.1,432.1,203.1,432.1,201.5z"/>
<path class="st1" d="M432.1,204.8C432.1,208.2,432.2,202.5,432.1,204.8z"/>
<path class="st1" d="M432,189l0.1,4.5c0.1-0.9,0.1-5,0.2-3.5C432.2,185.3,432.1,186.3,432,189z"/>
<path class="st1" d="M431.7,184.6v2.3C431.8,186.2,431.8,185.4,431.7,184.6z"/>
<path class="st1" d="M431.9,192l-0.1-5c-0.1,0.8-0.1,1.5,0,2.3C431.7,188.9,431.8,189.8,431.9,192z"/>
<path class="st1" d="M431.8,194.8c-0.1,2.5-0.1,5.8-0.2,1.3C431.6,204.7,431.9,203.4,431.8,194.8z"/>
<path class="st1" d="M430.9,217.2l-0.1,3.4l0.1,2.9C430.9,222,431,217,430.9,217.2z"/>
<path class="st1" d="M432.2,160.8c-0.1,0.6-0.2,1.2-0.3,1.9l0.1,3.3C432,164.2,432,161,432.2,160.8z"/>
<path class="st1" d="M431.9,162.6l-0.1-5C431.7,162.1,431.8,163,431.9,162.6z"/>
<polygon class="st1" points="431.3,183.8 431.6,192 431.3,182.2 "/>
<polygon class="st1" points="432.2,141.7 432.4,144.5 432.1,139.5 "/>
<path class="st1" d="M432.2,129c0.2,2.1,0.2-2.9,0.3-0.7c0-3.4-0.2-6.4-0.3-9C432.3,122.2,432.3,125.2,432.2,129z"/>
<path class="st1" d="M432,115c0,1.4,0.1,2.9,0.2,4.4C432.2,117.9,432.2,116.4,432,115z"/>
<path class="st1" d="M431.8,149.1c0.2-1.3,0.2-2.6,0.2-3.9l-0.2,2V149.1z"/>
<path class="st1" d="M431.8,147.2L431.8,147.2c0-2.2,0-3.7,0-4.3C431.8,143.5,431.8,144.8,431.8,147.2z"/>
<path class="st1" d="M431.8,149.6v-0.5C431.8,149.3,431.8,149.4,431.8,149.6z"/>
<path class="st1" d="M431.5,170.7c-0.1-2.9-0.2-9-0.4-3.1C431.2,169.7,431.3,166.3,431.5,170.7z"/>
<path class="st1" d="M431.5,152.1v5.3c0.1-0.1,0.1-1.1,0.2,0.4L431.5,152.1z"/>
<polygon class="st1" points="431.5,149.5 431.5,152 431.5,150.1 "/>
<path class="st1" d="M431.9,124c-0.1-2.3-0.1-4.8-0.1-7.6c0,3-0.1,6.2-0.1,9.2C431.8,126,431.9,127.3,431.9,124z"/>
<path class="st1" d="M431.8,135.3v-0.5C431.8,135.1,431.8,135.3,431.8,135.3z"/>
<path class="st1" d="M431.8,88.5v0.4V89V88.5z"/>
<path class="st1" d="M431.7,126c0,2.3,0,3.6,0.1,4.9c0-1.7,0-3.5,0-5.5C431.7,125.3,431.6,125.3,431.7,126z"/>
<path class="st1" d="M432,107.1c0,1.2-0.1,2.5-0.1,4C431.9,110,432,107.6,432,107.1z"/>
<path class="st1" d="M431.9,134v0.3C431.9,133.6,431.9,133.7,431.9,134z"/>
<path class="st1" d="M431.9,134c0-1.2-0.1-2.1-0.1-3c0,1.4,0,2.7,0.1,3.8C431.8,134.5,431.8,134.2,431.9,134z"/>
<path class="st1" d="M430.4,80c0.3,3.9,0.4,7.7,0.2,11.6c0.2,5.1,0.8,1.8,1.2-2.7c-0.1-0.2-0.2-0.2-0.3-5.4
	c-0.1,1.8-0.2,11.6-0.4,7.2c-0.1-3,0-6.1,0.2-9.1c-0.2,2.9-0.4-8.8-0.7-7.3l0.1,6.1C430.5,80.6,430.4,78.4,430.4,80z"/>
<path class="st1" d="M431.7,99v2.2c0-2.5,0.1-4.2,0.3-7.5c0-1.5-0.1-3.1-0.2-4.6v10.6L431.7,99z"/>
<path class="st1" d="M431.7,110.8c-0.2-1.7-0.3-6.9-0.5-3.7c0,6.3,0.2,4.4,0.3,8.2C431.4,105.1,431.6,118.2,431.7,110.8
	c0,2.1,0,3.9,0,5.6c0-1.8,0.1-3.6,0.1-5.3v0.3l0,0c0,0.4,0,0.6,0,0.1v-0.2C431.8,111.1,431.7,110.9,431.7,110.8c0-3,0.1-0.5,0.1,0.5
	c0,0,0,0.1,0,0.1l0,0l-0.1-10.2C431.7,103.3,431.7,106,431.7,110.8z"/>
<path class="st1" d="M430.6,162.1c0-0.3,0-0.3,0.1-0.3C430.7,161.2,430.7,161,430.6,162.1z"/>
<path class="st1" d="M430.8,158c0,0.8,0.1,1.4,0.1,3.8c-0.1,2.1-0.1,0-0.2,0.1c0.1,1.5,0.2,5.1,0.3,0.5v-0.7
	c0.1-4.1,0.3-9.4,0.4-8.7C431.1,154.1,431,155.2,430.8,158z"/>
<path class="st1" d="M431.2,134.1l-0.1-8.5l-0.2,4.4l0.1-0.2C431,134.5,431.1,133.5,431.2,134.1z"/>
<polygon class="st1" points="431.9,87.5 432.1,88.6 431.8,83.7 "/>
<polygon class="st1" points="431.8,76.4 432,76.8 431.9,73.9 "/>
<path class="st1" d="M3.1,123.3l0.1,2.5C3.2,124.6,3.1,123.9,3.1,123.3z"/>
<path class="st1" d="M3.1,105.2L3,104.8C3.1,105.6,3.1,106,3.1,105.2z"/>
<path class="st1" d="M233.3,0.4c-3.7-0.2-7.7-0.5-7.3-0.2l1.1,0.2C229.7,0.4,231.6,0.4,233.3,0.4z"/>
<path class="st1" d="M47,1.7l1.1,0.1l2.5-0.2L47,1.7z"/>
<path class="st1" d="M44.4,2.6l-4.8-0.1C40.7,2.5,42.2,2.6,44.4,2.6z"/>
<path class="st1" d="M3.3,222.4l0.2,2.9C3.6,220.7,3.5,222.7,3.3,222.4z"/>
<path class="st1" d="M391.9,0.5c-3.2-0.1-5.7-0.1-7.8-0.1C386.7,0.5,389.3,0.6,391.9,0.5z"/>
<path class="st1" d="M0.8,116.2c0,0.7,0,1.4,0.1,2.1C0.9,116.8,0.9,115.9,0.8,116.2z"/>
<path class="st1" d="M375,0.4h1.7c2.3,0,4.6-0.1,7.4,0C381.2,0.3,378,0.2,375,0.4z"/>
<path class="st1" d="M295.5,286.7h0.8C296.1,286.7,295.8,286.7,295.5,286.7z"/>
<path class="st1" d="M400.2,288.9h-4.3C396.6,289,397.9,289,400.2,288.9z"/>
<path class="st1" d="M431.9,31.9C431.9,34.2,431.9,32.2,431.9,31.9z"/>
<path class="st1" d="M431,43.3c0-0.3,0-0.6-0.1-0.9C431,42.7,431,43,431,43.3z"/>
<path class="st1" d="M351.6,1.7h-0.2C352,1.7,351.9,1.7,351.6,1.7z"/>
<path class="st1" d="M431.8,35.4c0-0.9,0-1.9,0.1-3C431.9,32.9,431.9,33.8,431.8,35.4z"/>
<path class="st1" d="M431.9,35c0,0.8,0,1.4,0,2.1C432,37.3,432,37,431.9,35z"/>
<path class="st1" d="M431.9,28.6c0,1.3,0,2.6,0,3.8c0-0.5,0-0.6,0-0.5C431.9,31.2,431.9,30.2,431.9,28.6z"/>
<path class="st1" d="M103.1,287.3h0.5C106,287.2,104.9,287.2,103.1,287.3z"/>
<path class="st1" d="M172.2,2.7L172.2,2.7z"/>
<path class="st1" d="M163.7,2.8c2.8-0.2,5.6-0.3,8.4-0.2L169.3,2L163.7,2.8z"/>
<path class="st1" d="M3.2,166.7l0.2-5.9c0.3,7.1,0.2,12.3,0.5,6.8c-0.7-0.8-0.1-23-0.8-23.9l0.2-3.9c0,1.1,0,1.3,0,2.4
	c0.3-7.6-0.5-5.6-0.4-15.4c0.1-3.4,0.2-5.8,0.2-3.5l-0.2-7.6c0-2.2,0.1-1.7,0.1,0.5v-11.6v0.1c-0.1-1.7-0.3-5.4-0.3-7.2
	c0.1-3,0.1,1.5,0.2,0.7l-0.2-6.4C2.9,89.2,3,94.5,3,99c0.7-6-0.2-5.3,0.2-18.3l0.1,6.1c0.4-3.9,0.2-8.6,0.5-15.5
	C3.7,72.9,3.2,85,3,78c0-2,0.1-4.6-0.1-8.3c0.2,0,0.2-3.7,0.2-8.3l0.3,0.3c-0.1-5-0.3-4.6-0.4-7.5c-0.1-2.7,0.1-5.4,0.5-8
	c0-8.9-0.4,6.1-0.5-4.4c0.1-7.4,0-12.5-0.2-21.4c0.1-5.2,0.2,0.9,0.3-0.9L2.9,15c0-1.1,0.1-0.8,0.1-0.6C3,10.6,2.7,14.1,2.6,8
	C2.6,7.3,2.5,6.5,2.6,5.8c0-0.6,0-1.2,0-1.9c0-0.5,0-1,0.1-1.5l1,0.1l1.5,0.1l3.5,0.1c2.3,0,4.7,0,6.8-0.1c1.8,0.1-0.9,0.2-0.3,0.3
	c10.3-0.3,8.8-0.2,17.3-0.6l7.2,0.2C34.3,2.2,41,1.9,47,1.7l-4.6-0.3l9.4-0.2c1.1,0,0.2,0.2-1.4,0.3l1.7-0.1
	c3.4,0.1,1.6,0.3-0.8,0.5L48,1.8c-2.3,0.2-4.5,0.4-4,0.6c0.6,0,1.8-0.1,3.1-0.1c-0.6,0.1-1,0.1-0.7,0.1s1.3,0,2.8-0.1l2.1,0.4
	l0.5-0.1l12.3,0.2c8.8-0.4,16.5-0.9,30.6-1c-3.5,0.3-0.7,0.4-0.9,0.7C90.1,2.1,83,2.6,75.8,2.5c3.8,0,3,0.2,2,0.2l13-0.3
	c-0.3,0.3,2.8,0.2,6.1,0.3c-2.6-0.5,9.7-0.3,14.9-0.5c0.3,0.2-0.9,0.3-7.4,0.3c7.1,0.4,9.2-0.6,16.1-0.3c-1,0-2,0-3,0.1
	c3.7-0.1,12.7,0,10.5,0.1h-1.6c10.4,0.1,31.8,0,33.3-0.4c-0.6,0.3-1.3,0.5-2,0.6l18.6-1.4c-1.6,0.4,4.7,1.2-4,1.4
	c2.5,0.1,5.6,0.1,10.8,0c-1.7,0-4.2-0.5-1.9-0.6c6.4,0.4,4.4,0.2,12.2,0.6c-2.5-0.1,0.3-0.6,4.3-0.6c-0.6,0.1,0.3,0.6-1.1,0.6
	l10-0.6c-2.5,0.1-0.4,0.5,1.8,0.6c-1-0.1,8.6,0,11.3-0.1l-4.2-0.1c11.3,0.1,11.2-0.8,22.3-0.8c-1.4,0.1-3.3,0.7,2.3,0.8
	c2.6-0.3,11.6-1.4,21.4-1.6l1.9,0.2l7.6-0.2c-4.7,0.4-18,1.4-25.3,1.7c4.2,0.1,1.2,0.2,7.5,0.2c2.2,0.2-3.4,0.2-5.3,0.2l14.7,0.1
	c-0.7-0.3,11.3-0.3,10.7-0.6l-16,0.4c-0.7-0.3,9.2-1,19.7-0.9c2.7,0.1-2,0.6-1.8,0.7c1.3-0.1,9.9-0.2,10.8-0.1L282,2.8
	c5.8,0.1,9.5-0.4,16.4-0.1c2.4,0,7.2,0.4,7.6,0.2c-3.9-0.4-4.7-1.6-2.1-1.9c0.8,0,12.6,0.4,15.4,0.6c4,0.3-6,0.7-2.6,1
	c1.1-0.1,2.2-0.2,3.2-0.2c2.5,0.1-1.1,0.3,4.4,0.2c0.9-0.3,11.2,0,2.6-0.3c5.4-0.1,5.7,0.1,12,0.1c-2-0.2,5.7-0.8,11-0.9
	c-0.3,0.1,0.9,0.2,1.5,0.2l27.2,0.2c1,0.1,5.9,0.2,3.8,0.3c1.5-0.1,2.8-0.2,6-0.2c6.1,0.3-7.1,0-2.4,0.4c0.4-0.2,8.2-0.3,12.7-0.4
	c-1.4-0.3-10.4-0.1-14.9,0.1c0-0.4,7.8-0.9,18.6-1.1c8.5-0.1,3.7,0.3,5.2,0.2c7.1,0,10.6-0.1,13.4-0.2l4.1-0.2l2.4-0.1h3.9
	c0,0.9,0,1.8,0,2.8c0,0.7,0,1.4,0,2.2c-0.3,5.3-0.5,0.2-0.7,1.4c0-2.1,0-3.9,0-5.6l-5.2-0.1c-1.6,0-3.1-0.1-4.8-0.1l5.8,0.1
	c-2.2,0.1-6.8,0.2-9.4,0.1c1,0,2.7,0.1,5.1,0.1h8.3c0,4.2,0,8.9,0,13.4s0,8.9-0.1,12.5c0.1,2.2,0.2,6,0.3,4.2v-3.9
	c0.2-3.6,0.3,7.4,0.4,2.4c0.2,5.2,0.4,11.1,0.3,18.5l-0.3,1.4c0.1-0.2,0.2-4.8,0.1-6.9c0.1,3.1-0.4,11.3,0,14.7l0.2-5.2
	c0.2,5.3,0.5,11.8,0.4,18.3c0.3-3,0-1.5,0.3-6.2c-0.4,4,0-16.8-0.4-10.3c0.4-4.8,0.2-8.3,0.5-14.5c-0.1,0.2-0.2,2.2-0.2-3.3
	c0-0.2-0.1-0.8-0.1-1.2v-0.1c0-0.2,0-0.3,0,0.1c0,1.3-0.1,2.4-0.2,2.8c-0.2-2.7-0.2-11.5-0.3-14.4c0-3.3,0.1,1.4,0.2-0.4l-0.2-4.4
	c0.2-0.4,0.4-8.7,0.5-1v-6.9c0-1.5,0.1-3.1,0.1-4.8c0-0.9,0-1.7,0-2.5V0.2H429h-1.7c-3.3-0.1-8.2,0.2-5.4,0.1l-10.8,0.1L411,0.4
	c-10.7,0-22,0.4-34.3,0c-3.6,0.1-7.3,0.1-13.4,0.1l-1.2-0.2c-4.6,0.1-13.9-0.2-15.9,0c-5-0.5-22.4-0.1-30.6-0.2l-0.3,0.2
	c-5.6,0-11,0.1-17.9,0.2l0.4,0.2c-6,0.2-15.4-0.2-24.9-0.1c0.7-0.1,3.1-0.1,4.8,0c-11.3-0.5-23.9,0.4-34.2,0c-2.6,0.1-4.4,0-6.2,0
	h0.6H237l-3.6-0.1c1.1,0.1,2.1,0.1,3,0.1c-2,0-5,0-7.9,0.1l-1.2-0.2h-0.7c-2.9-0.1-2.3,0.1-0.8,0.3c-1.5,0-2.8,0.1-3.9,0.1
	c-2.3-0.4-7.7,0.1-10.9-0.3c-2,0.2-14.8,0.2-16.3,0.6c-0.1-0.1-1-0.1,0.6-0.1c-3.3,0-6.5-0.1-9.5,0l-1.4-0.3l-7.2,0.4
	c-4.3-0.2-6.1-0.3-1.8-0.5C165.1,1,167,0.7,158.2,1.1l0.4-0.2c-3.2,0-8.2,0.3-10.1,0.1c-7.1-0.4-35,0-53.2-0.4
	c3.5,0.6-8.4-0.3-9.2,0.2c-1.1-0.1-3.6-0.2-0.7-0.3c-9.3,0.1-13.9-0.2-20.3,0.2c-1.1-0.1,2-0.2,1-0.3c-0.7,0-3,0.1-3.9,0
	s1.4-0.1,2.8-0.2C55.6,0.2,54.6,0.6,54,1c-3.6-0.2-7.1-0.2-10.7,0.1c-1.7-0.1-4.5-0.3,1.4-0.3c-3.3,0-20.2-0.2-20.6,0.1
	c-1-0.1-4.6,0-5.5,0H3.1h2.2C4.8,1,4.3,1,3.7,1.1s-1.3,0-2.1,0.1c0,0.7,0,1.4,0,2.1s0,1.3,0,2c0,1.4,0,3,0,4.9V10
	c-0.3,13.5,0.1,5.8-0.2,19.1l0.2-0.7c0.5,1.2-0.3,11.8-0.1,19.5l0.1-2.8c0.2,4.2-0.7,11.8-0.8,16c-0.1-0.9-0.1-1.8-0.1-2.8
	c-0.3,11.1,0.3,1.4,0.4,9.7c-0.2,1.5-0.4-2-0.5,3.6C0.6,74.4,1.3,87.8,1,95.4c0.1-1.7,0.3-3.3,0.4,0.5c0.1,5.9-0.5,15.9-0.1,21.2
	c0,0.4,0,0.7-0.1,1.1c0.1,4.5,0.2,14.6,0.4,17.3c-0.8,4.2,0.4,28-0.4,27.9v13.8l-0.1-0.4c-0.1,8.8,0.1,12,0.3,15.1
	c-0.1,2-0.1,0.6-0.2,0.4c-0.2,12.9-0.1,14.2,0.3,25l-0.2,1.1c0.2,2.9-0.4,18.7-0.1,31.4c-0.1-0.5-0.1-0.9-0.1-1.4
	c0.2,7.1,0,15.7-0.1,23.1c0,3.7-0.1,7.1,0,9.9c0,1.4,0,2.7,0.1,3.7c0,0.7,0.1,1.3,0.1,1.8s0.1,1.2,0.2,1.6v0.1l10.2-0.2
	c-12.2-0.1,1.8-0.4-3.2-0.5c4.8,0,12.4,0.3,6.5,0.3l-0.9,0c-2.2,0.5,15.1,0.2,14.8,0.5c23.9,0,47.3,0.2,69.7,0.3l-2.6-0.4h7.8
	c2,0.1,2.8,0.3-2.8,0.3c1.5,0.1,3.8,0.1,5.8,0s3.6-0.2,3.7-0.2c10.9,0.1-4.3,0.4-0.9,0.4h4.6l-1,0c3.7-0.1,4-0.3,10.7-0.3
	c4.2,0.1,2.2,0.2,3.8,0.2c0,0,0.1,0,0.5,0h2h9.9l-4-0.3c4.4-0.1,9.3,0,4.7-0.3c6.7,0.5,36.8,0.2,40.9,0.3c6.1-0.2,12.2-0.2,19.6-0.2
	c-1.9-0.1-3-0.4,3.5-0.3c-2.4,0.7,11.8,0.3,17,0.8c-4.7-0.3,18.3-0.1,11-0.5c5.4,0,0.3,0.2,4.4,0.4c12.8-0.2,28.2,0.2,44.1,0.1
	c0.2-0.1-2.4-0.2,1-0.4l8.4,0.4c3.1,0,2.9-0.5,8.6-0.2c-0.8-0.1-2-0.2,0.1-0.2c31,0.4,63.4-0.4,94.9,0.5c-4.3-0.2-1.4-0.2,1.8-0.2
	c-2.1,0,0-0.2-0.4-0.3l13.2,0.3c2.4-0.3,14.1,0,15.5-0.3l-4.2,0.1c5.6-0.4-7.8-0.8-7-1.3c-6.2,0.4-16.4-0.6-26.6,0
	c-2.2-0.1,1.9-0.1,0.7-0.3c-2.6,0.2-5.7,0.2-11.5,0.2l0.7,0c-16.3,0-23.2-0.1-41.5-0.3l1.3,0.2c-3.9,0-4.8-0.1-6.6-0.2
	c-4.5,0.4,11,0,6.9,0.4c-5.2-0.5-27.7,0-31.2-0.5c-6,0,1.8,0.3-4.3,0.3l-1.6-0.1l-1.5,0.2c-2,0.1-4.1,0-6.1-0.3c1,0,2.7,0,3.8,0
	c-5.1-0.2-14.5,0.1-16.2,0l5.8,0.1c-16.5,0.1-36.6-0.1-52.6,0.2l1.2,0.1c-12.2,0.2-9.8-0.1-23.1,0h0.5c-2.7,0.1-6.2,0.2-9.9,0.1
	c3.4-0.1-6.3-0.2-1.9-0.4c-13.2,0.2-6.5,0.2-15.2,0.6l-2-0.2c-3,0.2-3.2,0.2-9.9,0.3c5.5-0.2-4.2-0.3,1.9-0.5
	c-14-0.4-20.8,0.4-27.2-0.2c-6.4,0.5,12.1,0.3,8.5,0.4c3,0.2-5.3,0.4-9.7,0.3s-7.6-0.6-18.8-0.6h2.3c-4.2-0.1-8.2,0.2-13.4,0
	c-2.9,0.3-6.7,0-7.5,0.4l10.3-0.1c-5.8,0.1-11.3,0.6-21,0.4c0.8-0.1,3.6-0.2,5.6-0.2c-2.8-0.1-5.4,0.1-8.3,0
	c0.8-0.4,12.5-0.1,18.8-0.4c-3-0.2-11.9,0.3-8.7-0.1c-4.5,0.5-11.1-0.1-18.7,0.4l0.5-0.2c-1.2,0-3.7,0.1-5.9,0.1l4-0.3
	c-6.2,0.3-11.9-0.2-17.8-0.1c12.4,0,2.8,0.3,8,0.5c-15.3,0.3-8.8-0.6-25.9-0.5c2.3,0,8.7,0.1,5.1,0.2c-3.2,0-7.6-0.1-9.6-0.3
	c-11.3,0,1.7,0.2-3.1,0.4c-3.8-0.3-5.6,0.1-10.5,0.2v-0.2c-12.9-0.2-3.4,0.5-15.1,0.3l4.9-0.3l-6.1,0.1l1.2-0.3
	c-3.1,0.1-5.2,0.1-7.2,0.1H5.6H3.9H3.1c0-0.1,0-0.3,0-0.4c-0.1,0.3-0.2,0.4-0.3-0.2c0-0.1,0-0.5-0.1-0.9s0-0.8,0-1.3
	c0-1,0-2.2,0-3.6c0.1-3.9,0.2,2.2,0.2-5.9c0.2,2.4,0.3,4.9,0.1,7.4c0.1,0.4,0.2,1.8,0.2,2.2c0.2-4.2,0-10.6,0-13.5
	c0,1.1,0,2.5-0.1,3.2l-0.3-11.8c0.1-1.9,0.2-0.4,0.2,1.1c0-2.4-0.1-4-0.2-7.5c0.2,0.9,0.4,0.7,0.5,5.6l-0.2-11.2
	c0.1-0.7,0.2-5.7,0.3-4.3c0.1-6.2-0.4-15.2-0.2-23.5c0-0.4-0.1-1.3-0.1-3c0-7.7,0.3-14.6,0-23.8l0.3-5.2c-0.1-7.2-0.4,7-0.6-4.9
	c-0.1-8.5,0.3-3.2,0.4-6.1c-0.2-4.2-0.5-11.5-0.2-19.3C3.2,162.3,3.2,164.3,3.2,166.7z M3,78.2c0,1.7,0.2,5.1,0.1,6.4
	C2.9,82.5,2.9,80.3,3,78.2z M60,2.2c-1.3,0.1-3.2,0-5.5,0C56.2,2.1,58,2.1,60,2.2L60,2.2z M431.7,6.1V6
	C431.8,2.1,431.8,3.5,431.7,6.1L431.7,6.1z M431.6,14.1c0,0.8,0.1,0.7,0.1,0.4c-0.1-0.6-0.1-2.3,0-4.4
	C431.6,11.5,431.6,12.8,431.6,14.1L431.6,14.1z M128.2,289l-1.6-0.1C130.1,288.8,129.1,288.8,128.2,289z"/>
<path class="st1" d="M44.8,2.5c-0.2,0-0.5-0.1-0.7-0.1C43.3,2.4,43.3,2.5,44.8,2.5z"/>
<path class="st1" d="M3.3,221.8v0.3c0,0.1,0,0.2,0,0.3V221.8z"/>
<path class="st1" d="M319.8,2.7c-1.6,0-2.6-0.1-3.2-0.1C317.7,2.7,318.8,2.7,319.8,2.7z"/>
<path class="st1" d="M432,56.2l-0.1-5.1c0,2.5,0,3.3-0.1,4.6C432,55.6,432,54.6,432,56.2z"/>
<path class="st1" d="M430.6,100.4c0,0.7,0,1.6,0,2.3l0.1-0.2C430.7,99.3,430.6,97.1,430.6,100.4z"/>
<path class="st1" d="M431.2,61c-0.2,0.4-0.1,3.6-0.1,7.2v-0.6C431.4,68.5,431.3,64.7,431.2,61z"/>
<path class="st1" d="M431.2,68.9v3.3C431.3,71.1,431.3,70,431.2,68.9z"/>
<path class="st1" d="M431.8,24.2c0,1.7,0.3,1.1,0.2,2C432.2,28.1,431.6,14.9,431.8,24.2z"/>
<polygon class="st1" points="430.6,63.8 430.8,62.5 430.6,60.5 "/>
<path class="st1" d="M430.8,35.6l-0.1,5.7c0.1,0.5,0.1,1,0.1,1.5C430.8,39.3,430.8,35.5,430.8,35.6z"/>
<path class="st1" d="M430.8,42.9c0,1.8,0,3.6,0,4.6C430.8,46.5,430.8,44.3,430.8,42.9z"/>
<polygon class="st1" points="430.5,56 430.5,54.3 430.6,50.3 "/>
<path class="st1" d="M403.3,1.4l-6.2,0.1c-0.6,0.1,1.1,0.1,3.4,0.1C401.9,1.6,404.2,1.5,403.3,1.4z"/>
<path class="st1" d="M422.1,2.1c-1.7,0-1.8-0.1-2.7-0.2l-0.2,0.3L422.1,2.1z"/>
<path class="st1" d="M403.9,2.2c-0.6,0.1-9,0.2-1.1,0.2C403.4,2.3,409.7,2.3,403.9,2.2z"/>
<polygon class="st1" points="310.2,1.8 311.8,1.8 311.6,1.3 "/>
<path class="st1" d="M227.6,3c7.4,0.1,1.8-0.3,8.4-0.2c1.7-0.1-5.4-0.1-3.7-0.2C227.9,2.8,225.6,2.7,227.6,3z"/>
<path class="st1" d="M232.4,2.6l2.3-0.1C233.4,2.6,232.8,2.6,232.4,2.6z"/>
<polygon class="st1" points="417.5,289.2 422.2,289.3 419.2,289.1 "/>
<path class="st1" d="M426.6,288.8l1.1,0.3l2.8-0.3C429.5,288.8,427.4,288.9,426.6,288.8z"/>
<path class="st1" d="M3.7,65l-0.1-0.4c-0.1,0.7-0.1,1.8-0.1,4.1L3.7,65z"/>
<polygon class="st1" points="3.4,129.3 3.4,128.2 3.2,130.3 "/>
<path class="st1" d="M3.8,183.2c0-2.2,0-4.8,0-7C3.8,181,3.5,183.8,3.8,183.2z"/>
<path class="st1" d="M0.7,3.3c0-2.1-0.2-1.4-0.2-1.7C0.5,5.2,0.8,3.3,0.7,3.3z"/>
<polygon class="st1" points="1.2,38.2 1.1,37.6 1.3,42.7 "/>
<path class="st1" d="M1.2,70.8C1.5,67.7,1.1,59,1.3,53.2l0.1-1L1,49.5C1.1,56.6,1.3,65.8,1.2,70.8z"/>
<path class="st1" d="M0.4,88.1c0.1-1.1,0.1,3.8,0-4.1c0,0.4,0,0.5,0,0.7C0.4,85.5,0.4,86.5,0.4,88.1z"/>
<path class="st1" d="M0.4,84.8C0.4,81.4,0.3,87.1,0.4,84.8z"/>
<path class="st1" d="M0.5,100.7l-0.1-4.5c-0.1,1-0.1,5-0.2,3.5C0.3,104.3,0.4,103.3,0.5,100.7z"/>
<path class="st1" d="M0.8,105v-2.3C0.7,103.4,0.7,104.2,0.8,105z"/>
<path class="st1" d="M0.6,97.7l0.1,5c0.1-0.8,0.1-1.5,0-2.3C0.8,100.7,0.7,99.8,0.6,97.7z"/>
<path class="st1" d="M0.7,94.8c0.1-2.5,0.1-5.8,0.2-1.3C0.8,85,0.6,86.2,0.7,94.8z"/>
<path class="st1" d="M1.6,72.4L1.7,69l-0.1-2.9C1.6,67.6,1.4,72.6,1.6,72.4z"/>
<path class="st1" d="M0.3,128.8c0.1-0.6,0.2-1.2,0.3-1.9l-0.1-3.3C0.5,125.4,0.4,128.6,0.3,128.8z"/>
<path class="st1" d="M0.6,127l0.1,5C0.8,127.5,0.7,126.7,0.6,127z"/>
<polygon class="st1" points="1.2,105.8 0.9,97.6 1.2,107.3 "/>
<polygon class="st1" points="0.3,147.9 0.1,145.1 0.4,150.1 "/>
<path class="st1" d="M0.3,160.6c-0.2-2.1-0.2,2.9-0.3,0.7c0,3.4,0.2,6.4,0.3,9C0.2,167.4,0.2,164.4,0.3,160.6z"/>
<path class="st1" d="M0.4,174.7c-0.1-1.4-0.1-2.9-0.2-4.4C0.3,171.7,0.3,173.2,0.4,174.7z"/>
<path class="st1" d="M0.7,140.5c-0.2,1.3-0.2,2.6-0.2,3.9l0.2-2V140.5z"/>
<path class="st1" d="M0.7,142.4L0.7,142.4c0,2.2,0,3.7,0,4.3C0.7,146.2,0.7,144.9,0.7,142.4z"/>
<path class="st1" d="M0.7,140v0.5C0.7,140.3,0.7,140.1,0.7,140z"/>
<path class="st1" d="M1,118.9c0.1,2.9,0.2,9.1,0.4,3.1C1.2,119.9,1.2,123.3,1,118.9z"/>
<path class="st1" d="M1,137.6v-5.3c-0.1,0.1-0.1,1.1-0.2-0.4L1,137.6z"/>
<polygon class="st1" points="1,140.1 1,137.5 1,139.5 "/>
<path class="st1" d="M0.6,165.6c0.1,2.3,0.1,4.8,0.1,7.6c0-3,0.1-6.2,0.1-9.1C0.7,163.7,0.6,162.3,0.6,165.6z"/>
<path class="st1" d="M0.7,154.3v0.5C0.7,154.5,0.7,154.3,0.7,154.3z"/>
<path class="st1" d="M0.7,201.1v-0.4v-0.1V201.1z"/>
<path class="st1" d="M0.8,163.6c0-2.3,0-3.6-0.1-5c0,1.7,0,3.5,0,5.5C0.8,164.3,0.9,164.3,0.8,163.6z"/>
<path class="st1" d="M0.5,182.5c0-1.2,0.1-2.5,0.1-4C0.6,179.7,0.5,182,0.5,182.5z"/>
<path class="st1" d="M0.6,155.6v-0.3C0.6,156,0.6,156,0.6,155.6z"/>
<path class="st1" d="M0.6,155.6c0,1.2,0.1,2.1,0.1,3c0-1.4,0-2.7-0.1-3.8C0.7,155.1,0.7,155.4,0.6,155.6z"/>
<path class="st1" d="M2.1,209.6c-0.3-3.9-0.4-7.7-0.2-11.6c-0.2-5.1-0.8-1.8-1.2,2.7c0.1,0.2,0.2,0.2,0.3,5.4
	c0.1-1.8,0.2-11.6,0.4-7.2c0.1,3,0,6.1-0.2,9.1c0.2-2.9,0.4,8.8,0.7,7.3l-0.1-6.1C2,209,2,211.2,2.1,209.6z"/>
<path class="st1" d="M0.8,190.7v-2.2c0,2.5-0.1,4.2-0.3,7.5c0,1.5,0.1,3.1,0.2,4.6v-10.6L0.8,190.7z"/>
<path class="st1" d="M0.8,178.8c0.2,1.7,0.3,6.9,0.5,3.7c0-6.3-0.2-4.4-0.3-8.2C1.1,184.5,0.9,171.4,0.8,178.8c0-2.1,0-3.9,0-5.6
	c0,1.8-0.1,3.6-0.1,5.3v-0.3l0,0c0-0.5,0-0.6,0-0.1v0.2C0.7,178.5,0.8,178.7,0.8,178.8c0,3-0.1,0.5-0.1-0.5c0,0,0-0.1,0-0.1l0,0
	l0.1,10.2C0.8,186.3,0.8,183.6,0.8,178.8z"/>
<path class="st1" d="M1.9,127.5c0,0.3,0,0.3,0,0.3C1.8,128.4,1.8,128.7,1.9,127.5z"/>
<path class="st1" d="M1.7,131.7c0-0.8-0.1-1.4-0.1-3.8c0.1-2.1,0.1,0,0.2-0.1c-0.1-1.5-0.2-5.1-0.3-0.5v0.7
	c-0.1,4.1-0.3,9.4-0.4,8.7C1.4,135,1.6,133.3,1.7,131.7z"/>
<path class="st1" d="M1.3,155.5l0.1,8.5l0.2-4.3l-0.1,0.2C1.5,155.1,1.4,156.1,1.3,155.5z"/>
<polygon class="st1" points="0.6,202.1 0.4,200.9 0.7,205.9 "/>
<polygon class="st1" points="0.7,213.2 0.5,212.7 0.6,215.7 "/>
<path class="st1" d="M429.4,166.3l-0.1-2.5C429.3,165,429.4,165.7,429.4,166.3z"/>
<path class="st1" d="M429.4,184.4l0.1,0.5C429.4,184,429.4,183.7,429.4,184.4z"/>
<path class="st1" d="M199.2,289.2c3.7,0.2,7.7,0.5,7.3,0.2l-1.1-0.2C202.8,289.2,200.9,289.2,199.2,289.2z"/>
<path class="st1" d="M385.5,287.9l-1.1-0.1L382,288L385.5,287.9z"/>
<path class="st1" d="M388.1,287l4.8,0.1C391.8,287.1,390.3,287,388.1,287z"/>
<path class="st1" d="M429.2,67.2l-0.2-2.9C428.9,68.9,429,66.9,429.2,67.2z"/>
<path class="st1" d="M40.6,289.1c3.1,0.1,5.7,0.1,7.8,0.1C45.8,289.1,43.2,289,40.6,289.1z"/>
<path class="st1" d="M431.7,173.4c0-0.7,0-1.4-0.1-2.1C431.6,172.8,431.6,173.7,431.7,173.4z"/>
<path class="st1" d="M57.6,289.2l-1.7,0c-2.3,0-4.6,0.1-7.4,0C51.3,289.3,54.5,289.4,57.6,289.2z"/>
<path class="st1" d="M137,3h-0.8C136.5,3,136.8,3,137,3z"/>
<path class="st1" d="M32.3,0.7h4.3C35.9,0.7,34.6,0.7,32.3,0.7z"/>
<path class="st1" d="M0.6,257.7C0.6,255.4,0.6,257.4,0.6,257.7z"/>
<path class="st1" d="M1.4,246.3c0,0.3,0,0.6,0.1,0.9C1.5,246.9,1.4,246.6,1.4,246.3z"/>
<path class="st1" d="M81,288h0.2C80.5,287.9,80.6,287.9,81,288z"/>
<path class="st1" d="M0.7,254.2c0,0.9,0,1.9-0.1,3C0.6,256.7,0.6,255.8,0.7,254.2z"/>
<path class="st1" d="M0.6,254.7c0-0.8,0-1.5,0-2.1C0.6,252.3,0.5,252.6,0.6,254.7z"/>
<path class="st1" d="M0.6,261c0-1.4,0-2.6,0-3.8c0,0.5,0,0.7,0,0.5C0.6,258.4,0.6,259.4,0.6,261z"/>
<path class="st1" d="M329.4,2.3h-0.5C326.6,2.4,327.6,2.4,329.4,2.3z"/>
<path class="st1" d="M260.3,287L260.3,287L260.3,287z"/>
<path class="st1" d="M268.8,286.8c-2.8,0.2-5.6,0.3-8.4,0.2l2.8,0.6L268.8,286.8z"/>
<path class="st1" d="M429.3,122.9l-0.2,5.9c-0.3-7.2-0.2-12.3-0.5-6.8c0.7,0.8,0.1,23,0.8,23.9l-0.2,3.9c0-1.1,0-1.3,0-2.4
	c-0.3,7.6,0.5,5.6,0.4,15.4c0,3.4-0.2,5.8-0.2,3.5l0.2,7.6c0,2.2-0.1,1.7-0.1-0.5v11.6v-0.1c0.1,1.6,0.3,5.4,0.3,7.2
	c-0.1,3-0.1-1.5-0.2-0.7l0.2,6.4c-0.2,2.6-0.3-2.7-0.3-7.1c-0.7,6,0.2,5.3-0.2,18.3l-0.1-6.1c-0.4,3.9-0.2,8.6-0.5,15.5
	c0.1-1.6,0.6-13.7,0.8-6.8c0,2-0.1,4.5,0.1,8.3c-0.2,0-0.2,3.7-0.2,8.3l-0.3-0.3c0.1,5,0.3,4.6,0.4,7.5c0.1,2.7-0.1,5.4-0.5,8
	c-0.1,8.9,0.4-6.1,0.5,4.4c-0.1,7.4,0,12.5,0.2,21.4c-0.1,5.1-0.2-0.9-0.3,0.9l0.3,4.6c0,1.1-0.1,0.8-0.1,0.6
	c0.1,3.9,0.3,0.3,0.4,6.4c0.1,0.8,0.1,1.5,0.1,2.3c0,0.5,0,1.2,0,1.9c0,0.5,0,1-0.1,1.5l-1,0l-1.5,0l-3.5-0.1c-2.3,0-4.7,0-6.8,0.1
	c-1.8-0.1,0.9-0.2,0.3-0.3c-10.3,0.3-8.8,0.2-17.3,0.5l-7.2-0.2c5.3,0.2-1.5,0.5-7.4,0.8l4.6,0.3l-9.4,0.2c-1.1-0.1-0.2-0.2,1.4-0.3
	l-1.7,0.1c-3.4-0.1-1.6-0.3,0.8-0.5l3.4,0.2c2.3-0.2,4.5-0.4,4-0.6c-0.6,0-1.8,0.1-3.1,0.1c0.6,0,1-0.1,0.7-0.1s-1.3,0-2.8,0.1
	l-2.1-0.4l-0.5,0.1l-12.3-0.2c-8.8,0.4-16.5,0.9-30.6,1c3.5-0.3,0.7-0.4,0.9-0.7c3.8,0.3,10.9-0.1,18.1-0.1c-3.8,0-3-0.2-2-0.2
	l-13,0.3c0.3-0.2-2.8-0.2-6.1-0.3c2.6,0.5-9.7,0.3-14.9,0.5c-0.3-0.2,0.9-0.3,7.4-0.3c-7.1-0.4-9.2,0.6-16.1,0.3c1,0,2,0,3-0.1
	c-3.7,0.1-12.7,0-10.5-0.1h1.7c-10.4-0.1-31.8,0-33.3,0.4c0.6-0.3,1.3-0.5,2-0.6l-18.6,1.4c1.6-0.4-4.7-1.2,4-1.4
	c-2.5,0-5.6-0.1-10.8,0c1.7,0,4.2,0.5,1.9,0.6c-6.4-0.4-4.4-0.2-12.2-0.6c2.5,0.1-0.3,0.6-4.3,0.6c0.6-0.1-0.3-0.6,1.1-0.6l-10,0.6
	c2.5-0.1,0.4-0.5-1.8-0.6c1,0.1-8.6,0-11.3,0l4.2,0.1c-11.3-0.1-11.2,0.8-22.3,0.8c1.4-0.1,3.3-0.7-2.3-0.8
	c-2.6,0.3-11.6,1.4-21.4,1.6l-1.9-0.2l-7.6,0.2c4.7-0.4,18-1.3,25.3-1.7c-4.2-0.1-1.2-0.2-7.5-0.2c-2.2-0.1,3.4-0.2,5.3-0.2
	l-14.7-0.1c0.7,0.3-11.3,0.3-10.7,0.6l16-0.4c0.7,0.3-9.2,1-19.7,0.9c-2.7-0.1,2-0.6,1.8-0.7c-1.3,0.1-9.9,0.2-10.8,0.1l4.4-0.2
	c-5.8-0.1-9.5,0.5-16.4,0.1c-2.4,0-7.2-0.4-7.6-0.2c3.9,0.4,4.7,1.6,2.1,1.9c-0.8,0-12.6-0.4-15.4-0.6c-4-0.3,6-0.7,2.6-1
	c-1.1,0.1-2.2,0.2-3.2,0.2c-2.5-0.1,1-0.3-4.4-0.2c-0.9,0.3-11.2,0-2.6,0.3c-5.4,0.1-5.7-0.1-12-0.1c2,0.2-5.7,0.8-11,0.9
	c0.3-0.1-0.9-0.2-1.5-0.2l-27.2-0.2c-1-0.1-5.9-0.2-3.8-0.3c-1.5,0.1-2.8,0.2-6,0.2c-6.1-0.3,7.1,0,2.4-0.4
	c-0.4,0.2-8.2,0.3-12.7,0.4c1.4,0.3,10.4,0.1,15-0.1c0,0.4-7.8,0.9-18.6,1c-8.5,0.1-3.7-0.3-5.2-0.2c-7.1,0-10.6,0.1-13.4,0.2
	l-4.1,0.2l-2.4,0H1c0-0.9,0-1.8,0-2.8c0-0.7,0-1.4,0-2.2c0.3-5.3,0.5-0.2,0.7-1.4c0,2.1,0,3.9,0,5.6l5.2,0.1c1.6,0,3.1,0.1,4.8,0.1
	L6,288c2.2-0.1,6.8-0.2,9.4-0.1c-0.9,0-2.7-0.1-5.1-0.1H1.9c0-4.2,0-8.9,0-13.4s0-8.9,0.1-12.5c-0.1-2.2-0.2-6-0.3-4.2v3.9
	c-0.2,3.6-0.3-7.4-0.4-2.4C1.2,254,1,248.1,1.1,240.7l0.3-1.4c-0.1,0.2-0.2,4.8-0.1,6.9c-0.1-3.1,0.4-11.3,0-14.7l-0.2,5.2
	c-0.2-5.3-0.5-11.8-0.4-18.3c-0.3,3,0,1.5-0.3,6.2c0.4-4,0,16.8,0.4,10.3c-0.4,4.8-0.2,8.3-0.5,14.5c0.1-0.2,0.2-2.2,0.2,3.3
	c0,0.2,0.1,0.8,0.1,1.2v0.1c0,0.2,0,0.3,0-0.1c0-1.3,0.1-2.4,0.2-2.8c0.2,2.7,0.2,11.5,0.3,14.4c0,3.3-0.1-1.4-0.2,0.4l0.2,4.4
	c-0.2,0.4-0.4,8.7-0.5,1v6.9c0,1.5-0.1,3.1-0.1,4.8c0,0.8,0,1.7,0,2.5v3.9h3.1h1.7c3.3,0,8.2-0.2,5.4-0.1l10.8-0.1h0.1
	c10.7,0,22-0.4,34.3,0c3.6-0.1,7.3-0.1,13.4-0.1l1.2,0.2c4.6-0.1,13.9,0.2,15.9,0c5,0.5,22.4,0.1,30.6,0.2l0.3-0.3
	c5.6,0,11,0,17.9-0.2l-0.4-0.2c6-0.2,15.4,0.2,24.9,0.1c-0.7,0.1-3,0.1-4.8,0c11.3,0.5,23.9-0.4,34.2,0c2.6-0.1,4.4-0.1,6.2,0h0.4
	l3.6,0.1c-1.1,0-2.1-0.1-3-0.1c2,0,5,0,7.9-0.1l1.2,0.2h0.7c2.9,0.1,2.3-0.1,0.8-0.3c1.5,0,2.8-0.1,3.9-0.1
	c2.3,0.4,7.7-0.1,10.9,0.3c2-0.2,14.8-0.1,16.3-0.6c0.1,0,1,0.1-0.6,0.1c3.3,0,6.5,0.1,9.5,0l1.4,0.3l7.2-0.4
	c4.3,0.2,6.1,0.3,1.8,0.5c10.4-0.4,8.4-0.1,17.3-0.5l-0.4,0.2c3.2,0,8.2-0.3,10.1-0.1c7.1,0.4,35,0,53.2,0.4
	c-3.5-0.6,8.4,0.3,9.2-0.2c1.1,0.1,3.6,0.2,0.7,0.3c9.3-0.1,13.9,0.2,20.3-0.2c1.1,0.1-2,0.2-1,0.3c0.7,0,2.9-0.1,3.9,0
	s-1.4,0.1-2.8,0.2c9.5,0,10.4-0.5,11.1-0.8c3.6,0.2,7.1,0.2,10.7-0.1c1.7,0.1,4.5,0.3-1.4,0.3c3.3,0,20.2,0.2,20.6-0.1
	c1,0.1,4.6,0,5.5,0h15.6l-2.2-0.1c0.5-0.1,1-0.1,1.6-0.1s1.3,0,2.1,0c0-0.7,0-1.4,0-2.1s0-1.3,0-2c0-1.4,0-3,0-4.9v0.2
	c0.3-13.5-0.1-5.8,0.2-19.1l-0.2,0.7c-0.5-1.2,0.3-11.8,0.1-19.5l-0.1,2.8c-0.2-4.2,0.7-11.8,0.8-16c0.1,0.9,0.1,1.8,0.1,2.7
	c0.3-11.1-0.3-1.4-0.4-9.7c0.2-1.5,0.4,2,0.5-3.6c0.1-2.8-0.6-16.1-0.2-23.7c-0.1,1.7-0.3,3.3-0.4-0.5c0-5.9,0.5-15.9,0.1-21.2
	c0-0.4,0-0.7,0.1-1.1c-0.1-4.5-0.2-14.6-0.4-17.3c0.8-4.1-0.4-28,0.4-27.9v-13.8l0.1,0.4c0-8.8-0.1-12-0.3-15.1c0-2,0.1-0.5,0.2-0.4
	c0.2-12.9,0.1-14.2-0.3-25l0.2-1.1c-0.1-2.9,0.4-18.7,0.1-31.3c0.1,0.5,0.1,0.9,0.1,1.4c-0.2-7.1,0-15.6,0.1-23.1
	c0-3.7,0.1-7.1,0-9.9c0-1.4,0-2.7-0.1-3.8c0-0.7-0.1-1.3-0.1-1.8s-0.1-1.2-0.2-1.6V0.9L421,1.1c12.2,0.1-1.8,0.4,3.2,0.5
	c-4.8,0.1-12.4-0.3-6.5-0.3h0.9c2.2-0.5-15.1-0.2-14.8-0.5c-23.9,0-47.3-0.2-69.7-0.3l2.6,0.4h-7.8c-2-0.1-2.8-0.3,2.8-0.3
	c-1.5-0.1-3.8-0.1-5.8,0s-3.6,0.2-3.7,0.2c-10.9-0.1,4.3-0.4,0.9-0.4h-4.6h1c-3.7,0.1-4,0.3-10.7,0.3c-1.3,0-2.6-0.1-3.8-0.2
	c-0.2,0-0.3,0-0.5,0h-2h-9.9l4,0.3c-4.4,0.1-9.3,0-4.7,0.3c-6.7-0.5-36.8-0.2-40.9-0.3C244.9,1,238.9,1,231.4,1
	c1.9,0.1,3,0.4-3.5,0.4c2.4-0.7-11.8-0.3-17-0.8c4.7,0.3-18.3,0.1-11,0.5c-5.4,0-0.3-0.3-4.4-0.4c-12.8,0.3-28.2-0.2-44.1-0.1
	c-0.2,0.1,2.4,0.2-1,0.4l-8.4-0.4c-3.1,0-2.9,0.5-8.6,0.2c0.8,0.1,2,0.2-0.1,0.2c-31-0.4-63.4,0.4-94.9-0.4c4.3,0.2,1.4,0.2-1.8,0.2
	c2.1,0,0,0.2,0.4,0.3L23.8,0.7C21.4,1,9.6,0.7,8.3,1l4.2-0.1c-5.6,0.4,7.8,0.8,7,1.3c6.2-0.4,16.4,0.6,26.6,0
	c2.2,0.1-1.9,0.1-0.7,0.3c2.6-0.2,5.7-0.2,11.5-0.1l-0.7,0.1c16.3-0.1,23.2,0.1,41.5,0.3l-1.3-0.2c3.9,0,4.8,0.1,6.6,0.2
	c4.5-0.4-11,0-6.9-0.4c5.2,0.5,27.7,0,31.2,0.6c6,0-1.8-0.3,4.3-0.3l1.6,0.1l1.5-0.2c4,0,6,0.2,6.1,0.3c-1,0-2.7,0-3.8,0
	c5.1,0.2,14.5,0,16.2,0l-5.8-0.1C163.9,2.6,184,2.8,200,2.5l-1.2-0.1c12.2-0.2,9.8,0.1,23.1,0h-0.5c2.7-0.1,6.2-0.2,9.9-0.2
	c-3.4,0.1,6.3,0.3,1.9,0.4c13.2-0.2,6.5-0.2,15.2-0.6l2,0.2c3-0.2,3.2-0.3,9.9-0.3c-5.5,0.2,4.2,0.3-1.9,0.5
	c14,0.4,20.8-0.4,27.2,0.2c6.4-0.5-12.1-0.3-8.5-0.4c-3-0.2,5.3-0.4,9.7-0.3s7.6,0.7,18.8,0.6h-2.3c4.2,0.1,8.2-0.2,13.4,0
	c2.9-0.3,6.7,0,7.5-0.4L314,2.2c5.8-0.1,11.3-0.6,21-0.3c-0.8,0.1-3.6,0.2-5.6,0.2c2.8,0.1,5.4-0.1,8.3,0C337,2.5,325.2,2.2,319,2.5
	c3,0.2,11.9-0.3,8.7,0.1c4.5-0.6,11.1,0.1,18.7-0.4l-0.5,0.2c1.2,0,3.7-0.1,5.9-0.1l-4,0.3c6.2-0.3,11.9,0.2,17.8,0.1
	c-12.4,0-2.8-0.3-8-0.5c15.3-0.3,8.8,0.6,25.9,0.5c-2.3,0-8.7-0.1-5.1-0.3c3.2,0.1,7.6,0.1,9.6,0.3c11.3-0.1-1.7-0.2,3.1-0.4
	c3.8,0.3,5.6-0.1,10.5-0.2v0.2c12.9,0.1,3.4-0.5,15-0.3l-4.9,0.3l6.1-0.1l-1.2,0.3c3.1-0.1,5.2-0.1,7.2-0.1h3.1h1.7h0.8
	c0,0.1,0,0.2,0,0.4c0.1-0.3,0.2-0.4,0.3,0.2c0,0.1,0,0.5,0.1,0.9s0,0.8,0,1.3c0,1,0,2.2,0,3.6c-0.1,3.9-0.2-2.2-0.2,5.9
	c-0.2-2.4-0.3-4.9-0.1-7.4c-0.1-0.4-0.2-1.8-0.2-2.2c-0.2,4.2,0,10.6,0,13.5c0-1.1,0-2.5,0.1-3.2l0.3,11.8c-0.1,1.9-0.2,0.4-0.2-1.1
	c0,2.4,0.1,4,0.2,7.5c-0.2-0.9-0.4-0.7-0.5-5.6l0.2,11.2c-0.1,0.8-0.2,5.8-0.3,4.3c-0.1,6.2,0.4,15.2,0.2,23.5c0,0.4,0.1,1.3,0.1,3
	c0,7.7-0.3,14.6,0,23.8l-0.3,5.2c0.1,7.2,0.4-7.1,0.6,4.9c0.1,8.5-0.3,3.2-0.4,6.1c0.2,4.2,0.5,11.5,0.2,19.3
	C429.3,127.3,429.3,125.3,429.3,122.9z M429.5,211.4c0-1.7-0.2-5.1-0.1-6.4C429.6,207.1,429.6,209.3,429.5,211.4L429.5,211.4z
	 M372.5,287.4c1.3-0.1,3.2,0,5.5,0C376.3,287.5,374.5,287.5,372.5,287.4L372.5,287.4z M0.8,283.4v0.2C0.7,287.5,0.7,286.1,0.8,283.4
	L0.8,283.4z M0.9,275.5c0-0.8-0.1-0.8-0.1-0.4c0.1,0.6,0.1,2.3,0,4.4C0.9,278.1,0.9,276.8,0.9,275.5L0.9,275.5z M304.3,0.7l1.6,0.1
	C302.4,0.8,303.4,0.8,304.3,0.7z"/>
<path class="st1" d="M387.7,287.1c0.2,0,0.5,0,0.7,0.1C389.1,287.2,389.2,287.1,387.7,287.1z"/>
<path class="st1" d="M429.2,67.8v-0.3c0-0.1,0-0.2,0-0.3V67.8z"/>
<path class="st1" d="M112.7,287c1.6,0,2.6,0.1,3.2,0.1C114.8,286.9,113.7,286.9,112.7,287z"/>
<path class="st1" d="M0.5,233.4l0.1,5.1c0-2.5,0-3.3,0.1-4.6C0.6,234,0.5,235,0.5,233.4z"/>
<path class="st1" d="M2,189.2c0-0.8,0-1.6,0-2.3l-0.1,0.2C1.8,190.3,1.9,192.5,2,189.2z"/>
<path class="st1" d="M1.3,228.7c0.2-0.4,0.1-3.6,0.1-7.2v0.6C1,221.1,1.2,225,1.3,228.7z"/>
<path class="st1" d="M1.3,220.7v-3.3C1.2,218.5,1.2,219.6,1.3,220.7z"/>
<path class="st1" d="M0.7,265.5c0-1.7-0.3-1.1-0.2-2C0.3,261.5,0.9,274.7,0.7,265.5z"/>
<polygon class="st1" points="1.9,225.8 1.7,227.1 1.9,229.1 "/>
<path class="st1" d="M1.8,254l0.1-5.7c-0.1-0.5-0.1-1-0.1-1.5C1.7,250.3,1.7,254.1,1.8,254z"/>
<path class="st1" d="M1.7,246.7c0-1.8,0-3.6,0-4.6C1.7,243.1,1.7,245.3,1.7,246.7z"/>
<polygon class="st1" points="2,233.6 2,235.3 1.9,239.3 "/>
<path class="st1" d="M29.2,288.2l6.2-0.1c0.6-0.1-1.1-0.1-3.4-0.1C30.6,288.1,28.3,288.1,29.2,288.2z"/>
<path class="st1" d="M10.4,287.5c0.9,0,1.8,0.1,2.7,0.2l0.2-0.3L10.4,287.5z"/>
<path class="st1" d="M28.6,287.4c0.6-0.1,9-0.2,1.1-0.2C29,287.3,22.8,287.3,28.6,287.4z"/>
<polygon class="st1" points="122.3,287.8 120.7,287.8 120.9,288.3 "/>
<path class="st1" d="M204.9,286.6c-7.4-0.1-1.8,0.3-8.4,0.2c-1.7,0.1,5.4,0.1,3.7,0.2C204.6,286.8,206.9,287,204.9,286.6z"/>
<path class="st1" d="M200.1,287l-2.3,0.1L200.1,287z"/>
<polygon class="st1" points="15,0.4 10.2,0.3 13.3,0.5 "/>
<path class="st1" d="M5.9,0.8L4.8,0.5L1.9,0.8C3,0.8,5.1,0.8,5.9,0.8z"/>
<path class="st1" d="M428.8,224.6l0.1,0.4c0.1-0.7,0.1-1.8,0.1-4.1L428.8,224.6z"/>
<polygon class="st1" points="429.1,160.3 429,161.4 429.4,159.3 "/>
<path class="st1" d="M428.7,106.4c0,2.2,0,4.8,0,7C428.7,108.6,429,105.8,428.7,106.4z"/>
<text transform="matrix(1 0 0 1 108.891 127.4501)" class="st2"><tspan x="0" y="0" class="st1 st3 st4">A thumb print, the print</tspan><tspan x="-31.5" y="18" class="st1 st3 st4">is slighlt blurred from a scar?</tspan></text>
<g id="DquXDw.tif">
	<path d="M2.7,76.4c2.2,0.1,4.5,0.2,6.7,0.2h421.5l0.2,1.5c-0.7,0.5-1.5,0.8-2.3,1.1c-1.7,0.2-3.4,0.1-5.2,0.1H9.9
		c-2.4,0-4.8,0.2-7.2,0.3L2.7,76.4z"/>
	<path d="M2.7,94c2.4,0.1,4.8,0.3,7.2,0.3c138.3,0,276.5,0,414.7,0c2.2-0.1,4.5,0.4,6.4,1.5c-0.7,0.5-1.5,0.8-2.3,1
		c-1.7,0.2-3.4,0.1-5.2,0.1H9.4C7.2,96.8,5,97,2.7,97L2.7,94z"/>
	<ellipse cx="216.8" cy="7.2" rx="302.7" ry="1.5"/>
	<path d="M2.7,23.8h428.1c0,0.6,0.1,1.1,0.1,1.7c-1.4,0.2-2.7,0.4-4.1,0.4c-141,0-282,0-423.1,0c-0.3,0-0.7,0-1-0.1L2.7,23.8z"/>
	<path d="M2.7,41.3c140.7,0,281.3,0,422,0.1c2.1,0,4.1,0.2,6.2,0.3v1.4c-1.4,0.2-2.7,0.4-4.1,0.5c-140.7,0-281.3,0-422,0
		c-0.7,0-1.3-0.1-2-0.2L2.7,41.3z"/>
	<path d="M2.7,58.9c2.2,0,4.5,0.1,6.7,0.1h421.4l0.2,1.3c-0.9,0.4-1.8,0.8-2.7,1c-1.4,0.1-2.7,0.1-4.1,0.1c-138.5,0-276.9,0-415.4,0
		c-2,0-4.1-0.3-6.1-0.4V58.9z"/>
	<path d="M2.7,112.5c2-0.1,4.1-0.4,6.1-0.4c138.6,0,277.3,0,415.9,0c2.1,0,4.1,0.3,6.2,0.4v1.5c-2,0.1-4.1,0.4-6.1,0.4
		c-111.1,0-222.2,0-333.3,0c-29.6,0-59.2,0-88.8,0.1L2.7,112.5z"/>
	<path d="M2.7,130.1c2.1-0.1,4.1-0.2,6.2-0.2h415.3c2.2,0,4.5,0.2,6.7,0.4l-0.1,1.9H2.7V130.1z"/>
	<path d="M2.7,147.6c1.7,0,3.4-0.1,5.2-0.1h416.9c2.1,0,4.1,0.2,6.2,0.3l-0.1,1.8H2.7V147.6z"/>
	<path d="M2.7,165.2c140.9,0,281.7,0,422.6,0.1c1.9,0,3.8,1.3,5.8,2c-141.4,0-282.8,0-424.2-0.1C5.6,167.1,2.4,169.2,2.7,165.2z"/>
</g>
<g id="DquXDw.tif-2">
	<path d="M2.7,254c2.2,0.1,4.5,0.2,6.7,0.2h421.5l0.2,1.5c-0.7,0.5-1.5,0.8-2.3,1c-1.7,0.2-3.4,0.1-5.2,0.1H9.9
		c-2.4,0-4.8,0.2-7.2,0.3L2.7,254z"/>
	<path d="M2.7,271.5c2.4,0.1,4.8,0.3,7.2,0.3h414.7c2.2-0.1,4.5,0.4,6.4,1.5c-0.7,0.5-1.5,0.8-2.3,1c-1.7,0.2-3.4,0.1-5.2,0.1H9.4
		c-2.2,0-4.5,0.1-6.7,0.2L2.7,271.5z"/>
	<ellipse cx="216.8" cy="184.8" rx="302.7" ry="1.5"/>
	<path d="M2.7,201.3h428.1c0,0.6,0.1,1.1,0.1,1.7c-1.4,0.2-2.7,0.4-4.1,0.4H3.8c-0.3,0-0.7,0-1-0.1L2.7,201.3z"/>
	<path d="M2.7,218.8c140.7,0,281.3,0,422,0.1c2.1,0,4.1,0.2,6.2,0.3v1.4c-1.4,0.2-2.7,0.4-4.1,0.5c-140.7,0-281.3,0-422,0
		c-0.7,0-1.4-0.1-2-0.2L2.7,218.8z"/>
	<path d="M2.7,236.4c2.2,0,4.5,0.1,6.7,0.1h421.4l0.2,1.3c-0.9,0.4-1.8,0.8-2.7,1c-1.4,0.1-2.7,0.1-4.1,0.1
		c-138.5,0-276.9,0-415.4,0c-2,0-4.1-0.3-6.1-0.4V236.4z"/>
</g>
</svg>
