<?xml version="1.0" encoding="utf-8"?>
<!-- Generator: Adobe Illustrator 22.0.1, SVG Export Plug-In . SVG Version: 6.00 Build 0)  -->
<svg version="1.1" id="Layer_1" xmlns="http://www.w3.org/2000/svg" xmlns:xlink="http://www.w3.org/1999/xlink" x="0px" y="0px"
	 viewBox="0 0 78.6 203.9" style="enable-background:new 0 0 78.6 203.9;" xml:space="preserve">
<style type="text/css">
	.st0{fill:#FFFFFF;stroke:#1D1D1B;stroke-width:0.6309;stroke-miterlimit:10;}
	.st1{fill:#1D1D1B;}
</style>
<title>whiskey</title>
<path class="st0" d="M18.3,159.5c0,0,0.1-3.5,0.1-4.6s-1.9-48-1.9-48s-1.4-8.3,10.7-16c0,0,2-3.2,1.7-5.8c-0.3-2.5-2-4,1.4-19.7
	c0,0,2-7.3,1-8.7c-0.6-0.8-0.4-1.9,0.3-2.5c0,0-1.3-1.4-1.1-2.4s1.1-13.7,1.1-13.7s9-2.4,16.7,0l1.2,6.4v7.1c0,0-1,1.7-0.7,2.2
	c0.3,0.5,1.1,1.1,0.2,2.8c-0.5,0.9,3,15.4,3,15.4c0.7,3.8,0.7,7.7,0,11.5c-1.2,5.9,5.8,10.2,5.8,10.2s8,5.3,7.6,13.2
	s-0.8,50.8-0.8,50.8s-1.6,7.5-23.6,7.3S18.3,159.5,18.3,159.5z"/>
<path class="st1" d="M16.5,106.9c0,0,3.6,2.1,10.2,3.3s2.3-3.6,9.2-3.3c6.8,0.3,6.8,3.1,11.5,1.7c4.7-1.3,9.6-1.9,14.4-1.7
	c3.6,0.2,3.5,4.3,3.5,4.3l-0.7,46.7c0,0-0.8,6.9-20.7,7.3s-24.1-3.6-25.6-5.6l0.4-2.4L16.5,106.9z"/>
<path class="st1" d="M31.6,38.2l-1.1,13.7c6,1.6,12.2,2.1,19-0.2v-7.1l-1.2-6.4C48.3,38.2,39.9,35.5,31.6,38.2z"/>
</svg>
