<svg id="globe" xmlns="http://www.w3.org/2000/svg" viewBox="0 0 229.59 268.98"><defs><style>.cls-1,.cls-2{fill:#fff;stroke:#1d1d1b;stroke-miterlimit:10;}.cls-2{stroke-width:1.25px;}</style></defs><title>globe</title><path class="cls-1" d="M730.36,283.15l-6.77-12.78S621,332.5,660.88,424,773,495.81,773,495.81" transform="translate(-651.16 -269.67)"/><path class="cls-2" d="M773,495.81s-32.49,1.08-35.36,16.88c-1.66,9.15,22,17.52,57.92,13.21s46.24-13.66,48-17.84-13.66-13.37-52.93-12.25" transform="translate(-651.16 -269.67)"/><path class="cls-2" d="M737.61,512.69v15.93s17.2,11.28,53,9.13,53.08-14,53.08-14V508.06" transform="translate(-651.16 -269.67)"/><path class="cls-2" d="M773,488.87v19.19s9.78,5,17.65-1.19V487" transform="translate(-651.16 -269.67)"/><circle class="cls-1" cx="121.81" cy="111.96" r="107.27"/><path class="cls-1" d="M687.2,446.05s104,12.17,184.33-106.83" transform="translate(-651.16 -269.67)"/><path class="cls-1" d="M684.65,442s104,12.17,184.34-106.83" transform="translate(-651.16 -269.67)"/></svg>