<svg id="Phone" xmlns="http://www.w3.org/2000/svg" viewBox="0 0 267.35 249.87"><defs><style>.cls-1,.cls-11,.cls-12,.cls-3,.cls-4,.cls-5,.cls-6,.cls-7,.cls-8,.cls-9{fill:#fff;}.cls-1,.cls-10,.cls-11,.cls-2,.cls-3,.cls-4,.cls-5,.cls-6,.cls-7,.cls-8,.cls-9{stroke:#1d1d1b;stroke-miterlimit:10;}.cls-10,.cls-2{fill:none;}.cls-3{stroke-width:0.97px;}.cls-4{stroke-width:0.98px;}.cls-5{stroke-width:0.56px;}.cls-6{stroke-width:0.54px;}.cls-7{stroke-width:0.53px;}.cls-8{stroke-width:0.54px;}.cls-10,.cls-9{stroke-width:0.58px;}.cls-11{stroke-width:0.59px;}</style></defs><title>phone</title><path class="cls-1" d="M1288,555.54s-2.23-1.44,2.23-3.41L1291,529s18.37-5.64,25.33-11.41,14.82-14.17,34.24-13.91a209.89,209.89,0,0,0,22.18-3.28c13.38-2.63,60.48-2.63,60.48-2.63s42.64,3.42,45,3.94,10.5,1.71,14,1.05,12.07,5.25,13,6.95,13.65,12.47,21.26,14.44,7.22,5.38,7.22,5.38v14.56a16,16,0,0,0,0,2.62c.13,1,2.23.92,2.09,2.37a7.45,7.45,0,0,1-.91,2.75s.66,11.55.92,13.78-.4,7.74-9.58,8.53-46.84-3.28-55-11,2-15.87,2-15.87l-23.29,7.23" transform="translate(-1285.21 -497.31)"/><path class="cls-2" d="M1361.38,549.12a4.07,4.07,0,0,0-2.32-4.51c-3-1.52-4.86-9.52-4.86-9.52s.81-6.38,4.45-6,13.77,1.21,13.77,1.21,2.13-1.11,1.22-2.63a2.13,2.13,0,0,1,.22-2.63l1.19-6s9.52-3.34,14.28,0c0,0,1.22,6.08,1.32,7.7s.67,1.63.67,1.63,58.4,1.48,65.08-1,11.57-9.09,11.57-9.09,7.14-5.44,14.6-.23l-.93,8.54s0,18-8.43,20.64" transform="translate(-1285.21 -497.31)"/><path class="cls-2" d="M1535.79,549.12s-18.23,10.42-57.38-6.75" transform="translate(-1285.21 -497.31)"/><path class="cls-2" d="M1393.14,554.51l-19.39-5.39s2.07-14.53-.11-21.42" transform="translate(-1285.21 -497.31)"/><path class="cls-2" d="M1373.75,549.12s-2.12-3.81-4.06-4.17-4.23-6.52-4.41-9.69a48.64,48.64,0,0,1,0-5.52" transform="translate(-1285.21 -497.31)"/><path class="cls-1" d="M1285.76,563.1l2.9,16.19s41.47,14.78,77.51-9.8L1365,553.18s.83-2.1-3.58-4.06c0,0-45.49,18.23-73.43,6.42l.52,3.28S1285.27,560.32,1285.76,563.1Z" transform="translate(-1285.21 -497.31)"/><path class="cls-1" d="M1310.75,660.08a9.59,9.59,0,0,0-.43,4.38l8.49,64.57s2.2,21.11,29,17.15S1544,719.79,1544,719.79s9.23-5.71,7.91-12.75-2.84-15.84-3.62-22.43,3.42-13.2,0-16.72-11.37-9.16-11.37-9.16.25-7.37-5.4-9.83-40.07-25.81-46.46-39.33c0,0-1-14-16.23-26.79a11.18,11.18,0,0,0-5.65-8.36c-5.16-2.71-9.83-7.87-9.83-8.85s-3.45-11.06-3.45-11.06L1402,557a8.71,8.71,0,0,1-3.2-1.22c-1.47-1-5.65-1.23-5.65-1.23s-5.65,10.08-10.08,10.81-6.88,5.41-6.88,5.41l-1.72,3.41s-9.1,20.44-28,30.51l-9.58,14.26a70.21,70.21,0,0,1-9.34-3.44l-2.71,6.64s-6.39,3.44-7.37,8.36C1316.48,635.18,1316.15,644.4,1310.75,660.08Z" transform="translate(-1285.21 -497.31)"/><path class="cls-2" d="M1317.43,630.47l11.25,60.19s3,8.65,19,7.65,199.62-19.95,202-25.95" transform="translate(-1285.21 -497.31)"/><path class="cls-2" d="M1324.8,622.11,1336,674.34s1,9.32,12,8.33,189.17-13.91,189-23.94" transform="translate(-1285.21 -497.31)"/><path class="cls-2" d="M1312.44,654.86l12.36,68.75s1.22,14.65,23.19,12S1547.5,712.77,1551.93,707" transform="translate(-1285.21 -497.31)"/><path class="cls-3" d="M1486.07,615.93c-.22,22.76-16.11,44.92-41.78,44.92s-51.15-25.19-51.15-49.17,14.74-41.34,40.4-41.34S1486.33,590.27,1486.07,615.93Z" transform="translate(-1285.21 -497.31)"/><path class="cls-4" d="M1464,655.77c-5.93,3.75-14.23,7.08-22.25,7.08-25.67,0-51.16-25.75-51.16-50.26,0-24.21,14.38-41.81,39.47-42.24" transform="translate(-1285.21 -497.31)"/><path class="cls-5" d="M1393.59,604.59c0-4.46,2.85-8,7.11-8s9.58,3.37,9.58,7.83a7.9,7.9,0,0,1-7.73,8.07C1398.29,612.54,1393.59,609.05,1393.59,604.59Z" transform="translate(-1285.21 -497.31)"/><path class="cls-5" d="M1400,590.38c0-4.46,2.85-8,7.11-8s9.58,3.37,9.58,7.83a7.9,7.9,0,0,1-7.73,8.07C1404.68,598.33,1400,594.84,1400,590.38Z" transform="translate(-1285.21 -497.31)"/><path class="cls-6" d="M1412.92,580.47c0-4.46,2.61-8,6.53-8s8.78,3.38,8.78,7.84-3.17,8.07-7.09,8.07S1412.92,584.93,1412.92,580.47Z" transform="translate(-1285.21 -497.31)"/><path class="cls-7" d="M1428.23,577.83c0-4.19,2.72-7.48,6.81-7.48s9.17,3.17,9.17,7.37a7.5,7.5,0,0,1-7.4,7.59C1432.72,585.31,1428.23,582,1428.23,577.83Z" transform="translate(-1285.21 -497.31)"/><path class="cls-8" d="M1445.12,580.47c0-3.79,2.53-6.2,6.61-6.2s8.15,3.5,8.15,7.29-2.46,6.86-6.53,6.86S1445.12,584.26,1445.12,580.47Z" transform="translate(-1285.21 -497.31)"/><path class="cls-8" d="M1458.91,589.5c0-3.79,2.53-6.19,6.6-6.19s8.15,3.5,8.15,7.29-2.45,6.86-6.53,6.86S1458.91,593.29,1458.91,589.5Z" transform="translate(-1285.21 -497.31)"/><path class="cls-5" d="M1395.19,620.5c0-4.46,2.84-8,7.11-8s9.57,3.38,9.57,7.84a7.9,7.9,0,0,1-7.72,8.07C1399.88,628.45,1395.19,625,1395.19,620.5Z" transform="translate(-1285.21 -497.31)"/><path class="cls-9" d="M1404.53,635.87c0-4.73,2.85-8.45,7.11-8.45s9.58,3.59,9.58,8.32-3.46,8.58-7.73,8.58S1404.53,640.61,1404.53,635.87Z" transform="translate(-1285.21 -497.31)"/><path class="cls-10" d="M1419.41,646.41c0-4.74,2.85-8.45,7.12-8.45s9.57,3.58,9.57,8.32-3.46,8.58-7.73,8.58S1419.41,651.14,1419.41,646.41Z" transform="translate(-1285.21 -497.31)"/><path class="cls-10" d="M1436.62,649.79c0-4.74,2.84-8.45,7.11-8.45s9.57,3.58,9.57,8.32-3.46,8.58-7.72,8.58S1436.62,654.52,1436.62,649.79Z" transform="translate(-1285.21 -497.31)"/><path class="cls-9" d="M1415.54,607.59c0-11.53,10.36-20.87,23.15-20.87s27.6,11.75,27.6,23.27-8.54,23.28-21.33,23.28S1415.54,619.11,1415.54,607.59Z" transform="translate(-1285.21 -497.31)"/><path class="cls-11" d="M1415.54,608.76c0-12.17,10.36-22,23.15-22s27.6,12.41,27.6,24.58-5.13,23.51-21.33,23.84C1432.17,635.41,1415.54,620.93,1415.54,608.76Z" transform="translate(-1285.21 -497.31)"/><path class="cls-12" d="M1302.07,550.48l20.49,7.81a123,123,0,0,0,12.42-2c4.31-1.11,1-4.69,1-4.69l-17.79-4.29Z" transform="translate(-1285.21 -497.31)"/></svg>