<svg xmlns="http://www.w3.org/2000/svg" viewBox="0 0 3861.48 1082.78"><defs><style>.cls-1,.cls-12,.cls-4,.cls-5,.cls-6,.cls-7,.cls-8,.cls-9{fill:none;}.cls-1,.cls-11,.cls-12,.cls-13{stroke:#1d1d1b;}.cls-1,.cls-10,.cls-11,.cls-12,.cls-13,.cls-4,.cls-5,.cls-6,.cls-7,.cls-8,.cls-9{stroke-miterlimit:10;}.cls-1{stroke-width:2px;}.cls-10,.cls-2{fill:#1d1d1b;}.cls-11,.cls-13,.cls-3{fill:#fff;}.cls-10,.cls-4,.cls-5,.cls-6,.cls-7,.cls-8,.cls-9{stroke:#000;}.cls-4{stroke-width:0.5px;}.cls-5{stroke-width:0.25px;}.cls-6{stroke-width:0.17px;}.cls-7{stroke-width:0.14px;}.cls-10,.cls-9{stroke-width:1.2px;}.cls-12{stroke-width:1px;}.cls-13{stroke-width:3px;}</style></defs><title>backgroundb</title><g id="background"><path class="cls-1" d="M807.42,1080l18.41-33.46,446-151.3s123.67,6.58,176.29,22.37S1787.55,1080,1787.55,1080Z" transform="translate(1 1.78)"/><polyline class="cls-1" points="96.83 99.78 1 104.1 1 1082.78"/><polyline class="cls-1" points="1847.8 1063.67 961 111.69 902.83 111.69 842.11 66.15 377.67 87.11"/><line class="cls-1" x1="842.11" y1="66.15" x2="842.11" y2="1.02"/><line class="cls-1" x1="902.83" y1="111.69" x2="902.83" y2="1.02"/><line class="cls-1" x1="961" y1="111.69" x2="961" y2="3.06"/><path class="cls-1" d="M0-.76V64.37S251.27,114,263.9,109.91C269.68,108,350.14,56.57,435.78,1.27" transform="translate(1 1.78)"/><path class="cls-1" d="M0,64.37v18s249.07,41,260.79,41C266.65,123.39,363.05,63,458,2.61" transform="translate(1 1.78)"/><polygon class="cls-1" points="143.3 107.27 143.3 437.61 207.94 452.62 207.94 117.5 143.3 107.27"/><polyline class="cls-1" points="218.48 119.13 218.48 437.61 207.94 452.62"/><polyline class="cls-1" points="312.22 125.17 312.22 304.83 366.06 311.76 366.06 87.63 218.48 190.52"/><polyline class="cls-1" points="366.06 311.76 377.67 297.9 377.67 55.84"/><polygon class="cls-1" points="1157.1 1.78 1128.88 291.91 1271.84 445.38 1333.21 1.02 1157.1 1.78"/><polygon class="cls-1" points="1413.42 1.02 1920.99 300.21 1920.99 338.58 1387.26 3.06 1413.42 1.02"/><path class="cls-1" d="M1689.66,443.6,1920,424Z" transform="translate(1 1.78)"/><polygon class="cls-1" points="1920.99 664.64 1690.66 469.35 1690.66 445.38 1920.99 631.51 1920.99 664.64"/><path class="cls-1" d="M562.73,382.28l-21.59,38.38a7.1,7.1,0,0,0,5.18,10.51l49.09,7A15.35,15.35,0,0,0,611,430.36l18.52-33.87a8,8,0,0,0-5.84-11.69l-51.1-7.39A9.74,9.74,0,0,0,562.73,382.28Z" transform="translate(1 1.78)"/></g><g id="blood"><path class="cls-2" d="M632.55,995s63.7-11.93,73.9-83.35-51-81.64,0-100,110.21,13.22,124.49-35.23,15.17-110.68,72.89-113.24S1018.7,625.92,1033,676.94s85.41,45.3,80.76,73.47,29.46,26.11,29.46,26.11-76.26-6.31-126.85,54.94c0,0-14,15.48-19.14,29.59,0,0-66.57,82.11-88.93,103a607.88,607.88,0,0,1-47.64,39.42l-12.8,5.58s-4.24.73-17.8-1.57-62.55-5-62.55-5L709,1004.32,688.59,1000Z" transform="translate(1 1.78)"/></g><g id="body"><path class="cls-2" d="M613.34,611.89c.52.05.34-.07.42-.08C612.88,611.76,613.36,611.92,613.34,611.89Z" transform="translate(1 1.78)"/><polygon class="cls-2" points="605.62 613.14 605.78 613.11 604.49 613.06 605.62 613.14"/><path class="cls-2" d="M596.5,610.34c.74.29,3,.34,4.39.59l.23.07.67-.06C600,610.74,597.73,610.56,596.5,610.34Z" transform="translate(1 1.78)"/><path class="cls-2" d="M592.23,609.32c.26.11-.94-.07,1,.17l-.18,0Z" transform="translate(1 1.78)"/><path class="cls-2" d="M593.06,609.45c.85.12-.55-.14,0,0Z" transform="translate(1 1.78)"/><path class="cls-2" d="M589.11,608.91l1.14.1c-.23-.07-1.23-.23-.85-.2C588.24,608.67,588.47,608.75,589.11,608.91Z" transform="translate(1 1.78)"/><path class="cls-2" d="M588,608.88l.59.06A2,2,0,0,0,588,608.88Z" transform="translate(1 1.78)"/><path class="cls-2" d="M589.86,609.07l-1.24-.13a.84.84,0,0,0,.57.07C589.08,609,589.33,609,589.86,609.07Z" transform="translate(1 1.78)"/><path class="cls-2" d="M590.55,609.2c.63.13,1.44.27.3.17C593,609.66,592.71,609.49,590.55,609.2Z" transform="translate(1 1.78)"/><path class="cls-2" d="M596.06,610.46l.84.18.74,0C597.27,610.66,596,610.4,596.06,610.46Z" transform="translate(1 1.78)"/><path class="cls-2" d="M582.14,607.74c-.08,0,.36.16.43.22l.84.09A7.7,7.7,0,0,1,582.14,607.74Z" transform="translate(1 1.78)"/><path class="cls-2" d="M582.57,608l-1.25-.13C582.43,608,582.64,608,582.57,608Z" transform="translate(1 1.78)"/><polygon class="cls-2" points="588.8 610.83 590.86 611 588.41 610.77 588.8 610.83"/><polygon class="cls-2" points="578.4 608.75 579.12 608.78 577.85 608.7 578.4 608.75"/><path class="cls-2" d="M574.26,606.47c.54,0-.69-.24-.13-.19-.86-.13-1.6-.18-2.26-.24C572.57,606.13,573.31,606.26,574.26,606.47Z" transform="translate(1 1.78)"/><path class="cls-2" d="M570.76,605.93l1.11.11Z" transform="translate(1 1.78)"/><path class="cls-2" d="M579.22,607.46a5.48,5.48,0,0,0-1-.26l.47.18Z" transform="translate(1 1.78)"/><path class="cls-2" d="M578.75,607.39h0l-1.05-.17Z" transform="translate(1 1.78)"/><path class="cls-2" d="M579.34,607.48l-.12,0A.16.16,0,0,0,579.34,607.48Z" transform="translate(1 1.78)"/><path class="cls-2" d="M584.56,608.46c-.74-.06-2.27-.24-.81.09C584.28,608.56,583.45,608.37,584.56,608.46Z" transform="translate(1 1.78)"/><path class="cls-2" d="M579.92,607.72l1.32.23s-.26-.11.11-.08Z" transform="translate(1 1.78)"/><polygon class="cls-2" points="580.27 609.43 580.92 609.5 580.44 609.41 580.27 609.43"/><path class="cls-2" d="M573,606.41c-.57,0-1.2-.14-1.9-.26.75.16,1.53.29,2.27.41C573.47,606.55,573.8,606.54,573,606.41Z" transform="translate(1 1.78)"/><path class="cls-2" d="M575.79,606.9l-.13,0C575.74,606.9,575.8,606.92,575.79,606.9Z" transform="translate(1 1.78)"/><polygon class="cls-2" points="565.19 606.74 565.29 606.78 565.32 606.76 565.19 606.74"/><path class="cls-2" d="M573.48,606.6a6.33,6.33,0,0,0,1.23.16l-1.35-.2C573.31,606.57,573.3,606.58,573.48,606.6Z" transform="translate(1 1.78)"/><path class="cls-2" d="M568.82,605.65l1,.23A5.6,5.6,0,0,0,568.82,605.65Z" transform="translate(1 1.78)"/><path class="cls-2" d="M575.47,606.82h.09C575.38,606.78,575.4,606.79,575.47,606.82Z" transform="translate(1 1.78)"/><path class="cls-2" d="M575.47,606.82l-.76-.06.95.12Z" transform="translate(1 1.78)"/><path class="cls-2" d="M562,605.27a11,11,0,0,1,2.88.41c1.27.15.5-.32-.57-.69,0,0,0,.08-1.36-.09.45.13,2.86.63,1.75.52a10.84,10.84,0,0,1-2.23-.47c.69.24-2.22-.2-1.88,0l1.52.2S561.56,605.17,562,605.27Z" transform="translate(1 1.78)"/><path class="cls-2" d="M566.77,605.43l.53.08c-.6-.12-1-.23-1.82-.45a4.42,4.42,0,0,0-1.16-.08l2.63.47Z" transform="translate(1 1.78)"/><path class="cls-2" d="M569.7,605.93c-.43,0-1.72-.14-1,.11a15.86,15.86,0,0,0,2.06.21c-2.53-.41.74.07-1.08-.31l1.37.21-1.3-.27h.07c.1,0,.14,0,0,0h-.06l-.12,0c-.73-.15-.11,0,.12,0h0l-2.55-.38C567.84,605.62,568.51,605.73,569.7,605.93Z" transform="translate(1 1.78)"/><path class="cls-2" d="M582.36,608.56l-.08,0C582.11,608.51,582.05,608.5,582.36,608.56Z" transform="translate(1 1.78)"/><path class="cls-2" d="M581.32,608.32a6.45,6.45,0,0,1,.95.11c.52.12,0,.05,0,.09.37,0,1.28.13.15-.11h-.18a14.62,14.62,0,0,1-2.13-.54A6.15,6.15,0,0,0,581.32,608.32Z" transform="translate(1 1.78)"/><path class="cls-2" d="M575.43,607.15l-2.12-.29,1.06.27,0-.07C575.52,607.28,575.28,607.17,575.43,607.15Z" transform="translate(1 1.78)"/><polygon class="cls-2" points="564.95 606.64 565.25 606.58 564.01 606.53 564.95 606.64"/><polygon class="cls-2" points="562.21 606.18 562.33 606.1 561.59 606.04 562.21 606.18"/><path class="cls-2" d="M406.88,575.1h0Z" transform="translate(1 1.78)"/><path class="cls-2" d="M411.35,575.63l.12,0C411.26,575.59,411.17,575.6,411.35,575.63Z" transform="translate(1 1.78)"/><path class="cls-2" d="M494,591.75a7,7,0,0,0-1.77-.48l.25.16C493.1,591.54,493.58,591.64,494,591.75Z" transform="translate(1 1.78)"/><path class="cls-2" d="M448,583l.26.09.63,0Z" transform="translate(1 1.78)"/><path class="cls-2" d="M447.23,583.33l-1.17-.32Z" transform="translate(1 1.78)"/><path class="cls-2" d="M382.17,576.32l-.72.2C382.59,576.38,382.08,576.39,382.17,576.32Z" transform="translate(1 1.78)"/><path class="cls-2" d="M533.14,599.33c-.77-.18-1.39-.32-1.93-.42A9.09,9.09,0,0,0,533.14,599.33Z" transform="translate(1 1.78)"/><path class="cls-2" d="M408.77,574.12c-.39,0-.56,0-.55,0C408.62,574.15,408.85,574.15,408.77,574.12Z" transform="translate(1 1.78)"/><path class="cls-2" d="M529,598.49l.41.1c.57.09,1.15.18,1.84.32A12.83,12.83,0,0,0,529,598.49Z" transform="translate(1 1.78)"/><path class="cls-2" d="M296.22,602.05l-.2.05S296.1,602.09,296.22,602.05Z" transform="translate(1 1.78)"/><path class="cls-2" d="M271,609.65l1-.35C271.84,609.36,271.53,609.46,271,609.65Z" transform="translate(1 1.78)"/><path class="cls-2" d="M550.19,602.39c.58.09.09,0,0,0Z" transform="translate(1 1.78)"/><path class="cls-2" d="M552.94,603.32a.55.55,0,0,0-.25,0A.64.64,0,0,1,552.94,603.32Z" transform="translate(1 1.78)"/><path class="cls-2" d="M523.05,598.05h0C523.17,598.1,523.14,598.09,523.05,598.05Z" transform="translate(1 1.78)"/><path class="cls-2" d="M551.05,602.59l-.74-.16Z" transform="translate(1 1.78)"/><path class="cls-2" d="M550.94,602.52l.51.1C551.52,602.62,551.46,602.6,550.94,602.52Z" transform="translate(1 1.78)"/><path class="cls-2" d="M549.37,602.25l.94.18-.12,0Z" transform="translate(1 1.78)"/><path class="cls-2" d="M341.09,584.09l-.13,0C340.4,584.32,340.65,584.24,341.09,584.09Z" transform="translate(1 1.78)"/><path class="cls-2" d="M478.69,589.83h.07l-.09,0Z" transform="translate(1 1.78)"/><path class="cls-2" d="M476.6,589.49a9.86,9.86,0,0,1,2.07.33l-.62-.44Z" transform="translate(1 1.78)"/><path class="cls-2" d="M396,575.05l1.49.05c-1.79.2-3.08.25-1.68.3a10,10,0,0,1,3-.28,12.47,12.47,0,0,0,3-.21c.32,0,.65.05,1,.08h-.6c1.89.23,1.42-.25,3.86-.06.85.08,1.43.17.85.17.64,0,1.26.06,1.89.09s.41.11-.13,0c1,.06,1.9.22,2.85.35h0c.42,0,1.33.13,1.79.19.7.2-.37,0-.19,0,.52.07,1.05.17,1.58.27s-.72,0-1.78-.23c1.37.63,1.32.21,4.45,1.14l-1.5-.31a38.49,38.49,0,0,0,3.75,1.13c-.39-.14-3.3-1.09-1.57-.76a13.23,13.23,0,0,0,2,.43,6.75,6.75,0,0,0,2,.54l-.11.14a13.69,13.69,0,0,0,1.88.21,5.49,5.49,0,0,1,1.91.68c2.17.51-1.46-.53,1.12,0,1.8.46,3.09.67,5.28,1,1.25.33-.25,0,.2.19l1.15.12c.28.06.18.08.13.09,1,.16.11-.14,1.61.14.44-.08,3,.91,4.89,1.1.45.14-.24,0-.11.14,2.55.41,2.19.37,4.3.63l1.75.48c-1.28-.39.41-.18,1.89,0l-1.09-.36,2.34.4c.28.09,0,.09-.36.08l.43.05c.82.23.37.23-.24.19l-.82-.27c-.59,0-1.15,0-1,.08s.45.06.77.12c-.16,0-.26,0-.19,0a5,5,0,0,0,.71.09l.49.29.15-.05,3,.74c2.22.28,4.16.41,7.63,1.06-.88-.05-.22.17-.3.31-.91-.36-2.69-.49-4.48-.89.94.21.71.24.47.22l3.22.51c-.09.11.66.24,1.49.46-.58-.38,2.41.33,3.73.52.06.1-.27.12-1.85-.22,1.71.54,2.32.17,4,.68a3.38,3.38,0,0,0-.75-.12,11.16,11.16,0,0,1,2.58.58l-.38-.08a73.63,73.63,0,0,0,8.25,1.47,1.38,1.38,0,0,1-.55.2l4.73.22c-.44.1,1,.84-1.13.51.61.15,1.36.33,2.66.53-.41-.11-1-.47-.41-.37,1.52.51,1.06.32,3,.88-.62-.17.14-.31,1.12-.1-.16,0,0,.29-.34.25l2.52.22c-.62-.07-.15.21.38.4-.24-.11,2.13.43,2.79.54l-1-.28c2.78.6,2.83.17,5.58.73-.34,0-.89.18.51.5a30.36,30.36,0,0,1,5.45.25l.45.17,1.89.28c-1.21,0-4.57-.22-6.4-.39a13.16,13.16,0,0,0,1.84.45c.53.18-.88,0-1.34-.14l3.63.76c-.13-.19,2.81.38,2.7.22l-4-.61c-.13-.19,2.37,0,4.94.52.64.19-.55.2-.51.26a25.25,25.25,0,0,1,2.7.46l-1.11-.13c1.42.35,2.38.25,4.07.74a14.56,14.56,0,0,0,1.86.47c-.94-.37-1-1-.34-1,.21.06,3.09.78,3.75,1,.95.33-1.54.07-.73.35a4.41,4.41,0,0,1,.83,0c.61.16-.29.09,1.07.33.26-.12,2.76.55.67,0,1.34.21,1.4.31,3,.6-.47-.2,1.47-.1,2.81.11-.08,0,.21.14.34.19,2.72.55,4.17.89,6.71,1.37.23.08,1.44.36.91.34a12.28,12.28,0,0,1,1.5.18c1.49.43-1.75-.3-.63.09a30.61,30.61,0,0,1,3.18.39,22.85,22.85,0,0,0-3.7-.66c0-.21,2-.06,4.69.34,2.12.35.89.31,1.26.35,4,.77,3.44.28,6.71,1,1.28.37,0,.27.28.42-1.73-.26-2.62-.56-3.79-.78l1.42.34a20.91,20.91,0,0,1-2.32-.4c1.07.33,6.69,1.25,9.73,1.92.55,0,1.5.17,1.07,0l-1-.16c-.88-.26,1.84.19.63-.09,1.31.16,2.79.31,4.61.7l.31.21a9.75,9.75,0,0,0-1.7-.35,36.17,36.17,0,0,0,3.64.67l-1.26-.34c1.31.16,2.95.29,4.57.61-.71-.27-.38,0-1.5-.42,1,.4-4.15-.75-2.58-.23-1.15-.42-2-.46-3.55-.91,0,.06.53.19-.82-.08a1.68,1.68,0,0,1-.31,0l-.09,0,.07,0c-.06,0-.06,0,0,0a4.77,4.77,0,0,1,.68.2c-.69,0-2.86-.4-3.6-.48s.35,0-.08-.12l-1.11-.11c-.09-.13-2.11-.58-.2-.3l-1.71-.31a32.78,32.78,0,0,0-3.24-.63c-.8-.17-2.06-.26-1.34-.21l-2.69-.44,0,0c-2.65-.51-5.48-.84-8.47-1.6-.9-.14-1.82-.28-3.31-.59l-.27-.15c-1.15-.19-3.41-.75-3.92-.75-1.19-.49-5.54-1.12-7.54-1.55l-.1.11c-1.38-.28-2.71-.5-4.44-.78l.09.13c-1.5-.19-3.79-.82-6.13-1.27a6.81,6.81,0,0,1,1.17.23c-2.75-.8-5.93-1-8.43-1.66A13.38,13.38,0,0,1,495,592l.15,0-.25,0-.87-.23c.26.08.51.15.73.2l-2-.34-.29-.18-.17,0c-.7-.19-.58-.06-.22.11-.36-.06-.7-.1-1-.12-.54-.31-1.91-.32-2.66-.68-.5,0-3.65-.66-4.08-.53,0,0-.23-.08.16,0a22.11,22.11,0,0,0-2.33-.45l-.32-.22-1.8-.15c-1.05-.31-1.48-.45-.4-.35-2.6-.34-2.09-.35-4.31-.62l.13-.08c-.78-.15-2.06-.28-2.51-.45-1.71-.55-8.63-1.78-13.06-2.88.81.46-2.05-.56-2.28-.38-.24-.12-.86-.29-.12-.2-2.3-.4-3.41-.81-5-1-.24-.12.51,0,.29-.08a5.28,5.28,0,0,1-1-.18c-.22-.09.35,0,.72.06-2.34-.48-2.62-.32-2.83-.16a10.23,10.23,0,0,0-2.63-.5c-.4-.15-1.07-.36.38-.08a49.22,49.22,0,0,0-5.07-1,12,12,0,0,0-1.35-.28l-3.78-.8.49.13a15.22,15.22,0,0,1-2.95-.57h0c-3.28-.85-1.44-.24-4.68-1.11l.15.16c-.35.18-2.86-.77-4.78-1.1l.67.22c-1.05-.14-2.81-1-3.84-1.25-.23-.07.36,0,.68.1-2.69-.75-.39.08-2.42-.34-.36-.17.53-.1-.83-.42-.67-.21-4-.66-5.82-1.25.39.16.78.31-.17.15a22.63,22.63,0,0,0-5.31-.9c-.19,0-.26-.06-.27-.08a34.64,34.64,0,0,0-4.38-.06,13.71,13.71,0,0,0-3.92-.14c-1.63.07-3.12.19-3.11,0l-3.48.2.08,0a21.29,21.29,0,0,0-3.77.44c-.52,0-.15,0-.11-.08a39.42,39.42,0,0,0-6.26.76l-.29-.09c-.73.16-4.7.36-7.84,1a1.13,1.13,0,0,1,.34-.11c-3.53.66-8.55,1-9.76,1.72l-2.31.54c3-.53-.41.27.84.12-1.17.25-3.08.45-1.63.15l.23,0c.49-.34-3.75.65-3.7.48-5.9,1.22-11.66,2.45-17.11,3.95h.68l-1.9.53c-.51.1-.71,0,.64-.33a9.91,9.91,0,0,0-2.27.79c-2.66.72,1-.51.16-.27l-1.09.34.25-.05a23.18,23.18,0,0,1-2.54.94c-1,.3-.56.07-1,.19a3.41,3.41,0,0,0-.61.21c-.79.26-1.58.53-2.36.82l1-.21c-1,.45-2.2.81-1.07.56a23.54,23.54,0,0,0-5,2.09c-1,.5-1.94,1-2.72,1.41s-1.41.63-1.65.72a40.72,40.72,0,0,1-4.48,2c.44-.15.76-.11-.74.5.42-.52-2.81,1-4.12,1.24,1.16-.27-4.28,1.71-2.48,1.25-1.28.46-.12-.08-1.11.21-3,1.28-6.67,2.43-10.39,3.83-.05.07.6-.1-.18.26l-2.05.51a7,7,0,0,1-2,.82c.21,0,.51-.08,0,.11-7.42,2.43-15,5.47-22.62,7.63,1.05-.26.37,0-.4.24.51-.15,0,.11.14.13l-3.2.9c-.52.35-3.37,1.14-3.65,1.4l1-.36c-1.26.62,2-.22,1.87.07,1.42-.7,4-1,6.35-2.13.55-.14-.44.22-.13.18a15.69,15.69,0,0,1,2.71-1l-.15.08c3.87-1.35,5.56-1.83,9.92-3.28h-.36c.94-.31,1.15-.35,1.59-.47,1-.55-2.62.91-1.71.38,1.32-.2,6.58-2.31,7.5-2.36,1.43-.51-.47,0,1-.48l.4-.07.33-.22a4.43,4.43,0,0,1,1.5-.36c-.23.08-.64.25-.88.35,1.25-.36,3.42-1.28,3.84-1.4l-1.38.46c3.87-1.48,8.66-3.15,12.34-4.75l-.3.06c2.82-1.19,2.31-.83,5.42-2.12l-.11.06c.6-.3,1.43-.66,2.27-1-.75.39,1.53-.5.53,0a20.35,20.35,0,0,0,3.41-1.79l.5-.13a20.27,20.27,0,0,1,2.19-1.19c-1.2.7,1-.35-.31.44a36.09,36.09,0,0,0,3.69-1.9,8.83,8.83,0,0,1,2.46-1c.69-.42,0-.17-.8.14s-1.61.74-1.22.53c-.71.25,1.11-.76,2.16-1.12s1.88-.41,4.54-1.32l-.54.21c1-.29,1.94-.73,3.2-1,.65-.36,1.61-.47,1.76-.72-.82.26-1.65.51-2.47.79a36.79,36.79,0,0,1,5-1.65c-.17.09-.85.34-1.31.5.69-.14,1.3-.41,2-.55-.15.25-3,.89-4.48,1.5.75-.15,2.81-1,2.11-.56,1-.57,2.68-.72,4.48-1.41l-.09.15c.28-.1.88-.31,1.42-.44l-.94.4c1.47-.51,2.91-.63,4.34-1-3,.73-.71,0-2,.25,3.69-1.06,2.21-.24,6.38-1.25-.56.15-2.14.42-1.27.16s1.87-.35,2.37-.39c2.78-.63-.45,0,.72-.36a13.34,13.34,0,0,0,2.56-.65l0,.12c3.19-.57.79-.43,3.67-.9l-1.18.4,1.49-.33-.29.19a30.92,30.92,0,0,1,3.72-.73c-.38,0,.17-.26,1.59-.51,1-.1-.52.2,1.48-.16a5.62,5.62,0,0,1-1.81.37c-.09.06-.44.16-.52.21,1.05-.11,2.61-.43,3.34-.56-.28,0-.62.1-.79.11l2.88-.64c.47,0,.11.06-.25.15.59-.1,1-.22,1.86-.37-.21.13-.14.22-1.36.46l2.76-.53c.19,0,1.44-.09,1.09,0,1.54-.17,3.75-.72,5.81-.89.11,0,.32-.07.75-.14,1.93-.2,3.65-.27,5.93-.6l1.31.06c1.79-.18-1.78-.09,1.2-.38,2.12-.2.8.1,1.55.1a24.15,24.15,0,0,1,4.82-.36C397.15,575,396.64,575,396,575.05Zm21.91,2a10,10,0,0,1-1.57-.34A4.64,4.64,0,0,1,418,577.06Zm33.17,6.86a8.78,8.78,0,0,1-1.35-.3Q450.37,583.73,451.12,583.92Zm92.68,17.41h0C542.81,601.11,543.14,601.19,543.8,601.33Zm2,.41c.2,0,.19,0,.11,0a9.48,9.48,0,0,1-1.08-.18A3.74,3.74,0,0,0,545.75,601.74ZM334.81,585.18l.38-.1C334.37,585.4,334.59,585.29,334.81,585.18Z" transform="translate(1 1.78)"/><path class="cls-2" d="M447.32,583.3c-.11,0-.14-.08-.16-.11C447,583.18,447,583.2,447.32,583.3Z" transform="translate(1 1.78)"/><path class="cls-2" d="M382.3,576.29h-.07l-.06,0Z" transform="translate(1 1.78)"/><path class="cls-2" d="M515.14,597a6.69,6.69,0,0,1-.77-.22S514.52,596.89,515.14,597Z" transform="translate(1 1.78)"/><path class="cls-2" d="M556.21,603.42l-1.26-.2a11,11,0,0,1,1.12.25S555.82,603.35,556.21,603.42Z" transform="translate(1 1.78)"/><path class="cls-2" d="M567,606.06l.57.08,0-.06C566.78,606,566.22,605.9,567,606.06Z" transform="translate(1 1.78)"/><path class="cls-2" d="M557.31,604a6.58,6.58,0,0,0,1.76.35l-.15,0C559.2,604.26,558.25,604.15,557.31,604Z" transform="translate(1 1.78)"/><path class="cls-2" d="M559.28,604.42l.81.13C560.21,604.52,559.77,604.48,559.28,604.42Z" transform="translate(1 1.78)"/><path class="cls-2" d="M548.26,602.12c.41.1.29-.08.52,0C549.27,602.08,546,601.77,548.26,602.12Z" transform="translate(1 1.78)"/><polygon class="cls-2" points="558.96 606.26 558.67 606.09 558.16 606.1 558.96 606.26"/><path class="cls-2" d="M551,603.13l1.4.29a1.28,1.28,0,0,1,.39,0C551.93,603.29,551,603.09,551,603.13Z" transform="translate(1 1.78)"/><path class="cls-2" d="M552.8,603.45c.45.08.88.16,1.14.18Z" transform="translate(1 1.78)"/><polygon class="cls-2" points="557.03 605.96 556.62 605.85 555.62 605.66 557.03 605.96"/><path class="cls-2" d="M535.86,600.33l-1.54-.25c-.17,0,.25.11.82.2C535.52,600.32,536.09,600.41,535.86,600.33Z" transform="translate(1 1.78)"/><path class="cls-2" d="M540.45,601.54a5.46,5.46,0,0,1-.66-.22l-.08.14Z" transform="translate(1 1.78)"/><path class="cls-2" d="M536,600.73c-.16,0-2.25-.29-.3.06C535.82,600.78,537.37,601,536,600.73Z" transform="translate(1 1.78)"/><polygon class="cls-2" points="513.84 597.92 514.24 598 514.23 597.74 513.84 597.92"/><path class="cls-2" d="M492.34,592.74c1.81.43.46-.06,2.09.33.44,0-1.33-.32-.88-.29C492.44,592.63,491.87,592.48,492.34,592.74Z" transform="translate(1 1.78)"/><path class="cls-2" d="M493.55,592.78l.57.08Z" transform="translate(1 1.78)"/><polygon class="cls-2" points="267.82 612.7 266.68 613.02 267.44 612.86 267.82 612.7"/><path class="cls-2" d="M264.72,611.82l-.32-.07-.63.37A6,6,0,0,1,264.72,611.82Z" transform="translate(1 1.78)"/><path class="cls-2" d="M421.12,578.11l.09,0a6,6,0,0,0-1-.28Z" transform="translate(1 1.78)"/><polygon class="cls-2" points="406.39 576.95 406.66 576.97 406.16 576.79 406.39 576.95"/><path class="cls-2" d="M391.94,575.61l1.74-.14C392.49,575.57,391.78,575.44,391.94,575.61Z" transform="translate(1 1.78)"/><path class="cls-2" d="M1561.46,498.31c1.12,2,.81,1.26,1,1.56C1560.54,496.47,1561.48,498.41,1561.46,498.31Z" transform="translate(1 1.78)"/><path class="cls-2" d="M1541.69,465.42l.39.55c-1-1.59-2.06-3.15-3.1-4.73C1539.88,462.63,1540.81,464,1541.69,465.42Z" transform="translate(1 1.78)"/><path class="cls-2" d="M1522,435.4c1.77,2.9,7.37,10.72,10.77,16.14l.54.9,1.7,2.34c-2.15-3.24-4.58-7-6.93-10.44Z" transform="translate(1 1.78)"/><path class="cls-2" d="M1511.18,419.62c.64,1-2.5-3.3,2.63,3.61l-.47-.66Z" transform="translate(1 1.78)"/><path class="cls-2" d="M1513.34,422.57c2.25,3-1.42-2,0,0Z" transform="translate(1 1.78)"/><path class="cls-2" d="M1502.75,408.68l3.11,3.9c-.61-.85-3.32-4.36-2.29-3.08C1500.4,405.49,1501,406.34,1502.75,408.68Z" transform="translate(1 1.78)"/><path class="cls-2" d="M1499.69,405.08l1.67,2C1501.08,406.69,1500.65,406.16,1499.69,405.08Z" transform="translate(1 1.78)"/><path class="cls-2" d="M1504.76,411.34l-3.4-4.29a15.3,15.3,0,0,0,1.55,2A26.81,26.81,0,0,0,1504.76,411.34Z" transform="translate(1 1.78)"/><path class="cls-2" d="M1506.64,413.81c1.69,2.22,3.86,5.11.76,1.18,2.92,3.77,4.09,5.43,3.93,5.11-.09-.15-.54-.78-1.32-1.85S1508.12,415.68,1506.64,413.81Z" transform="translate(1 1.78)"/><path class="cls-2" d="M1520.82,434c.69,1,1.41,2.05,2.09,3.09l1.86,2.64c-.46-.67-1.46-2.16-2.34-3.46S1520.77,433.9,1520.82,434Z" transform="translate(1 1.78)"/><path class="cls-2" d="M1482.35,385.25c-.24-.19,1.11,1.27,1.34,1.57l2.62,2.59C1485,388.05,1482.49,385.47,1482.35,385.25Z" transform="translate(1 1.78)"/><path class="cls-2" d="M1483.69,386.82l-3.92-3.89C1483.22,386.45,1483.88,387.07,1483.69,386.82Z" transform="translate(1 1.78)"/><path class="cls-2" d="M1499,404.52c2,2.27,3.85,4.63,5.74,7l-3.37-4.22-3.48-4.11Z" transform="translate(1 1.78)"/><path class="cls-2" d="M1465.88,372l2.7,1.61-2.4-1.45c-.81-.46-1.66-.86-2.48-1.3Z" transform="translate(1 1.78)"/><path class="cls-2" d="M1453.25,365.89c2.18.81-2.91-1.31-.61-.42-.89-.36-1.74-.71-2.57-1l-2.44-.82c-1.57-.51-3-1-4.44-1.41,1.5.41,3,1,4.66,1.56.82.3,1.69.59,2.59.94Z" transform="translate(1 1.78)"/><path class="cls-2" d="M1438.47,360.87l4.72,1.35C1441.61,361.76,1440.05,361.3,1438.47,360.87Z" transform="translate(1 1.78)"/><path class="cls-2" d="M1472.62,376.77l-.91-.74a23,23,0,0,0-2.6-1.85c.59.43,1.21.8,1.76,1.29Z" transform="translate(1 1.78)"/><path class="cls-2" d="M1470.93,375.52l-.06,0c-1.95-1.34-3.37-2.17-3.95-2.56C1467.42,373.25,1468.67,374,1470.93,375.52Z" transform="translate(1 1.78)"/><path class="cls-2" d="M1473.07,377.1l-.45-.33A3.45,3.45,0,0,0,1473.07,377.1Z" transform="translate(1 1.78)"/><path class="cls-2" d="M1489.66,393.49c-1.1-1.19-2.78-3-3.67-3.95-.46-.44-.71-.67-.55-.48s.7.76,1.76,2C1488.8,392.74,1486.35,389.92,1489.66,393.49Z" transform="translate(1 1.78)"/><path class="cls-2" d="M1475.12,378.86l2.21,1.95a29,29,0,0,1,2.13,2c-.06-.1-.77-.88.38.24l-1.12-1.11-1.2-1Z" transform="translate(1 1.78)"/><path class="cls-2" d="M1472.82,377.13c.77.58,1.59,1.09,2.3,1.73-.52-.5-1.14-.9-1.71-1.35Z" transform="translate(1 1.78)"/><path class="cls-2" d="M1448,364l-3.79-1.27-4.25-1.28c1.6.51,3.23,1,4.84,1.52l4.75,1.67C1450,364.81,1451.4,365.23,1448,364Z" transform="translate(1 1.78)"/><path class="cls-2" d="M1459.51,368.87l-.51-.23A2.92,2.92,0,0,0,1459.51,368.87Z" transform="translate(1 1.78)"/><path class="cls-2" d="M1409.88,355.17l.48.09h.12Z" transform="translate(1 1.78)"/><path class="cls-2" d="M1450.09,364.89c2.33,1,3.74,1.51,5.08,2-1.76-.69-3.6-1.47-5.61-2.23C1449.36,364.63,1449.32,364.63,1450.09,364.89Z" transform="translate(1 1.78)"/><path class="cls-2" d="M1430.12,358.81c1.28.3,2.73.66,4.23,1.09C1433.12,359.51,1430.59,358.88,1430.12,358.81Z" transform="translate(1 1.78)"/><path class="cls-2" d="M1458.24,368.25l.34.15C1457.84,368,1457.93,368.09,1458.24,368.25Z" transform="translate(1 1.78)"/><path class="cls-2" d="M1458.24,368.25c-1.19-.53-2.11-1-3.07-1.34,1.42.6,2.7,1.23,3.83,1.73Z" transform="translate(1 1.78)"/><path class="cls-2" d="M1400.56,354.64c.23,0,2,.14,4.38.42s5.45.74,8.26,1.2,3.27.41,2.47.16a52.11,52.11,0,0,0-5.31-1.16c-.18,0-.18,0-5.92-.67,2,.25,12.68,2,7.84,1.3-7.58-1.05-6.2-.91-9.88-1.43,1.56.27-.86,0-3.47-.25s-5.41-.45-4.59-.27c2.22.22,4.45.39,6.67.65C1401.13,354.64,1398.72,354.39,1400.56,354.64Z" transform="translate(1 1.78)"/><path class="cls-2" d="M1421.23,357.08l2.34.44-3.72-.77-4.36-.83c-3.91-.63-4.74-.63-5-.67,1.93.27,3.86.59,5.79.92s3.85.65,5.76,1.05Z" transform="translate(1 1.78)"/><path class="cls-2" d="M1434,359.88c-1.82-.42-7.42-1.57-4-.7s4.57,1.12,5.43,1.29,1.37.29,3.38.82c-10.9-2.87,3.15.76-4.71-1.38,2.14.57,4.09,1,5.89,1.58-1.94-.64-3.85-1.08-5.62-1.59l.25.07.05,0h0c.47.14.62.19.09,0l-.23,0-.5-.1c-3.16-.85-.49-.15.5.1a.82.82,0,0,0,.14,0h0c-1.82-.49-3.66-.89-5.5-1.3l-2.76-.61-2.77-.54C1425.91,358,1428.84,358.61,1434,359.88Z" transform="translate(1 1.78)"/><path class="cls-2" d="M1482.87,386.88c-.24-.26-.22-.25-.23-.28C1482.12,386.09,1481.92,385.9,1482.87,386.88Z" transform="translate(1 1.78)"/><path class="cls-2" d="M1479.66,383.53c.59.57,1.1,1,3,2.93,1.6,1.67,0,0,0,.14,1.14,1.12,4,3.95.5.33l-.57-.56-2.44-2.54c-.83-.84-1.56-1.7-2.3-2.33-1.43-1.3-2.35-2.17-2-1.91l1.51,1.5,1,1Z" transform="translate(1 1.78)"/><path class="cls-2" d="M1458.15,368.57c-1.42-.66-2.84-1.33-4.31-1.88s-2.9-1.19-4.37-1.72c1.48.58,2.94,1.24,4.41,1.86l-.21-.14c2.49,1,3.4,1.51,3.84,1.66S1457.84,368.45,1458.15,368.57Z" transform="translate(1 1.78)"/><path class="cls-2" d="M1408.82,355l1.25.07c-1.8-.21-3.6-.43-5.4-.58C1406.05,354.59,1407.44,354.77,1408.82,355Z" transform="translate(1 1.78)"/><polygon class="cls-2" points="1397.69 355.27 1398.15 355.22 1394.94 354.94 1397.69 355.27"/><path class="cls-2" d="M811.66,536.66l-2.73-.32Z" transform="translate(1 1.78)"/><path class="cls-2" d="M831.22,540.12l.48.07C830.8,540,830.43,539.92,831.22,540.12Z" transform="translate(1 1.78)"/><path class="cls-2" d="M1104.31,309.67c-4,.71-8.42,1.46-7.92,1.47l1.24-.14C1100.38,310.43,1102.5,310,1104.31,309.67Z" transform="translate(1 1.78)"/><path class="cls-2" d="M955.39,441.49l.79-.87,1.67-2.14Z" transform="translate(1 1.78)"/><path class="cls-2" d="M953.9,443.94l-3.5,4C951.18,447,952.31,445.74,953.9,443.94Z" transform="translate(1 1.78)"/><path class="cls-2" d="M702.88,534.93l-3.12-.65C704.59,535.47,702.48,534.89,702.88,534.93Z" transform="translate(1 1.78)"/><path class="cls-2" d="M1272.3,345.35l-4.56-1.14-2-.48-1.81-.51c2,.63,3.82,1,5.27,1.42S1271.76,345.27,1272.3,345.35Z" transform="translate(1 1.78)"/><path class="cls-2" d="M819.6,536.56a15.39,15.39,0,0,0-2.35-.28C819,536.46,820,536.65,819.6,536.56Z" transform="translate(1 1.78)"/><path class="cls-2" d="M1254.39,340.38l1.73.58,1.82.58,1.89.52,4.12,1.16C1261,342.34,1257.62,341.4,1254.39,340.38Z" transform="translate(1 1.78)"/><path class="cls-2" d="M337.15,535.91l-.76.5A7.11,7.11,0,0,0,337.15,535.91Z" transform="translate(1 1.78)"/><path class="cls-2" d="M236.1,587.42c.79-.82,2.07-2.15,3.29-3.4C238.79,584.62,237.79,585.64,236.1,587.42Z" transform="translate(1 1.78)"/><path class="cls-2" d="M1347.69,350.57c2.58.06.41,0,0,0Z" transform="translate(1 1.78)"/><path class="cls-2" d="M1360.25,351.41a7.13,7.13,0,0,0-1,0C1359.42,351.4,1359.79,351.4,1360.25,351.41Z" transform="translate(1 1.78)"/><path class="cls-2" d="M1230.13,331.85l-.21-.09C1230.61,332.1,1230.5,332,1230.13,331.85Z" transform="translate(1 1.78)"/><path class="cls-2" d="M1351.58,350.73l-3.31-.13Z" transform="translate(1 1.78)"/><path class="cls-2" d="M1351.05,350.66l2.26.08C1353.64,350.74,1353.35,350.71,1351.05,350.66Z" transform="translate(1 1.78)"/><path class="cls-2" d="M1344.08,350.48l4.19.12-.58,0Z" transform="translate(1 1.78)"/><path class="cls-2" d="M520.17,521.67l-.55,0C517,521.62,518.15,521.64,520.17,521.67Z" transform="translate(1 1.78)"/><path class="cls-2" d="M1043.16,336.47l.24-.18-.31.22Z" transform="translate(1 1.78)"/><path class="cls-2" d="M1035.85,342.14c1.51-1.27,2.71-2.24,3.83-3.13s2.17-1.66,3.41-2.5c-.89.52-1.82,1-2.68,1.54Z" transform="translate(1 1.78)"/><path class="cls-2" d="M764,534.29q3.26,0,6.51.15c-7.86,0-13.55.08-7.44.19a35,35,0,0,1,4.36-.15l8.76.1c6.33.16,12.65.4,13.11.27l4.28.32L791,535c4.16.33,5.71.36,7.57.39s4,.19,9.35.69c3.73.4,6.3.86,3.77.55l4.14.49c1.38.18,2.77.29,4.14.55,2.38.44,1.79.39-.58,0l6.25,1.12,1.57.28c.52.09,1,.25,1.54.37l3.07.78-.09,0,3.81.87a15.62,15.62,0,0,0,4.12.44c3.32,0-1.66.11-.81.07a24.93,24.93,0,0,0,7.1-1c.7-.19.88-.22.67-.13a11.92,11.92,0,0,1-1.65.48,20.44,20.44,0,0,1-6.94.62c.42,0,.82.12,1.19.15h2c.3,0,.58-.06.86-.09.55-.08,1.08-.13,1.61-.23l1.67-.39c.61-.12,1.24-.36,2-.59s1.58-.53,2.55-.9a65.84,65.84,0,0,0,7.54-3.46,66.53,66.53,0,0,1-6,3c4.09-1.54,8.76-4,15.09-8.22-.75.49-4,2.54-6.26,3.78-1.14.64-2,1.08-2.24,1.15a15.18,15.18,0,0,1,2-1.24,87.65,87.65,0,0,0,7.7-5,18,18,0,0,0,2.25-1.49c1.34-1,3.17-2.33,5.16-3.9l-.17.34c2.15-1.69,3.1-2.53,3.84-3.17l2.47-2.17c4.69-3.92,5.69-4.69,6.84-5.56,7.31-6.49-5.15,4.36,3.43-3.39,6-5.44,10.12-9.43,16.91-16.37,4-4-.63.78.84-.64l3.44-3.68c.87-.88.62-.56.49-.41,2.91-3.09.14-.35,4.72-5.2,1.14-1.4,9.6-9.77,15-16,1.4-1.48-.59.79-.12.37,7.48-8.5,6.41-7.28,12.42-14.39l5.27-5.91c-3.9,4.33.87-1.39,5-6.43L952,445.22l6.66-8c.83-.94.19-.1-.85,1.24l1.2-1.48c2.43-2.8,1.27-1.27-.38.82l-2.49,2.8c-1.59,2-3.07,3.91-2.65,3.57l2.18-2.62c-.42.53-.68.87-.46.64s.91-1.11,2-2.43l1.66-1.69.32-.48L968,427.23c6-7.63,11.2-14.34,20.69-26.52-2.26,3.09-.34.78-.35,1-2.73,3.21-7.36,9.43-12.42,15.63,2.63-3.24,2.11-2.48,1.47-1.64l8.79-11.24c-.1.33,2-2.32,4.3-5.23-1,1,.64-1.08,2.91-4l1.8-2.36.23-.31a.65.65,0,0,0,.13-.23l.08-.17.32-.7c.21-.47.44-.93.66-1.38.89-1.83,1.8-3.52,2.49-4.79.12-.14,0,.1-.51,1.16-.28.52-.65,1.25-1.16,2.25-.25.49-.54,1.06-.85,1.7l-.48,1-.26.56a5,5,0,0,1-.33.66l2.27-4.52c.65-1.27,1.23-2.38,1.8-3.5a73.71,73.71,0,0,1,4.53-7.55c-1,1.43-1.43,2.24-1.76,2.83.51-.86,1.22-2,2-3.24s1.64-2.51,2.44-3.58c1.56-2.18,2.69-3.69,2-2.72l-1,1.4a167.57,167.57,0,0,1,14-16.88c5.12-5.48,9.88-9.6,10.46-10.23a15.05,15.05,0,0,1-1.46,1.66l3.75-3.48c1.26-1.15,2.59-2.21,3.89-3.32,2.56-2.27,5.36-4.22,8.07-6.32-1.37,1.19,4.52-2.43-3.18,3.12l3.93-2.73,6-3.79c-1.59,1-4.07,2.24-1.92.87,3-1.8,4.09-2.31,5.34-3l2.28-1.22c1-.5,2.26-1.27,4.24-2.12-2.53,1.17.13-.42,4.12-2.32-.6.34.45.1-1,.82l2.44-1.25c.81-.43,1.67-.75,2.5-1.13l5-2.2c-2.51,1.1-.37.37,2-.41-.55.16,1.7-.6,4.42-1.51,1.37-.45,2.84-1,4.18-1.37l3.21-.88c-1.5.41-3,.72-4.49,1.2,3-.9,5.21-1.44,7.05-2s3.3-1,4.79-1.31l4.83-1.13,3.13-.68c1.19-.19,2.52-.36,4-.58-1.47.26-3.58.86,2.61,0l3.31-.63c1.47-.26,3.31-.42,5.38-.68s4.41-.54,6.91-.7,5.16-.19,7.89-.25l2.09.06c2.79,0,5.58.18,8.37.26a210.38,210.38,0,0,0-27.74,1.27c4.63-.28,1.29,0,8.21-.52,2.45-.11-3.76.39-5.79.55l4-.29,2-.14c.67,0,1.35,0,2,0l8.07-.07a5.86,5.86,0,0,1,1.61-.12c1.12,0,2.66.09,4.21.14,3.1.11,6.22.23,5.91.14l-8.77-.34c-1.46-.1-2.92,0-4.38,0l-4.39.1a46.73,46.73,0,0,1,6.24-.37c1-.07,2.13,0,3.31,0l3.75.14,4.06.16,2.11.1c.71.06,1.42.15,2.13.22,2.9.38-2.19.07-2,.15,1.48.1,10.82,1.06,11.87,1.21l-4.85-.43c6.35.62,10.34,1.21,17.88,2.58,2.61.47,7.67,1.89,8.15,1.87-4.17-1.12-4.88-1.89-2-1.4l7.49,1.77c1.83.39,3.67,1,5.27,1.48L1198,317c4.16,1.32-6.4-1.41-2.86-.29.17,0,2.5.59,3.47.84a41.21,41.21,0,0,0,4.68,1.43,5.45,5.45,0,0,1,.78.17l.63.16a1.43,1.43,0,0,1,.28.08l.32.19,2.72,1.6c1.54.88,1.93,1.13-2.12-1.32,2.56,1.49,3.94,2.25,5.42,3.09s3.09,1.73,6.2,3.29c-1-.55.47.08,2.81,1.16s5.63,2.54,8.35,3.71c-.34-.1.85.5,1.43.79,2.78,1.21,5.24,2.28,7.54,3.22s4.45,1.8,6.59,2.59l6.51,2.35c2.28.74,4.68,1.53,7.38,2.37,1,.33,6.24,1.85,4,1.29,1.57.41,3,.81,6.42,1.58,6.54,1.73-7.57-1.8-2.61-.41.23,0,2.43.49,5.19,1.12l2.15.49,2.23.41,4.16.75c-.73-.23-3.56-.74-6.8-1.39l-4.94-1.13-2.32-.53-2-.53a5.83,5.83,0,0,1,1.51.26l4.18.86c3.55.8,8.58,1.75,14.41,2.62,9.3,1.23,4,.69,5.63.89a158.43,158.43,0,0,0,15.91,1.06c3.38.07,6.38.15,13.7.42,5.81.29.26.28,1.54.41-7.65-.15-11.74-.45-16.91-.69l6.37.34c-2.43,0-7.54-.25-10.31-.46,2.42.21,9.87.61,18.41.83l25,.66c2.42,0,6.6.08,4.62,0l-4.3-.09c-4-.21,8.11.06,2.66-.14,5.78.09,12.26.16,20.39.58l1.52.23c-.18-.06-5.31-.33-7.6-.37,3.39,0,12.45.75,16.17.81-1.89-.15-3.79-.32-5.69-.44,5.8.24,13,.51,20.17,1.23-3.26-.42-1.66-.15-6.76-.72,2.21.28-2.39-.09-6.66-.36s-8.21-.47-4.65-.17c-5.24-.48-9.09-.55-16-1,.22.06,2.43.18-3.62-.05h-1.4c-.26,0-.29,0,.12,0,1.44.07,2.61.13,3.08.18l-15.88-.27c-3.59-.1,1.5,0-.46-.12l-4.86,0c-.48-.12-9.53-.4-1.08-.28l-7.61-.17-14.43-.46c-3.59-.15-9.06-.27-5.94-.21-4-.18-7.93-.39-11.89-.74l-.1,0a167.86,167.86,0,0,1-36.74-7.66c-1.88-.6-3.81-1.17-6-1.92s-4.75-1.64-7.83-2.86l-1.17-.56-4.24-1.67-4.81-2.07c-3.16-1.4-6-2.71-7-3.12-2.41-1.3-8-3.95-13.74-7.14-1.45-.79-2.9-1.61-4.33-2.45l-1.06-.62-.26-.16a1.25,1.25,0,0,0-.45-.21l-.6-.17-2.33-.64-8-2.22-.36,0c-3-.89-5.93-1.49-9.06-2.18L1180,312c-1.69-.37-3.45-.78-5.36-1l.45.19c-3.27-.49-7.46-1.24-12.13-2l-7.35-.84c-2.53-.28-5.12-.63-7.74-.69.36,0,1.2,0,2.18.07s2.11.22,3,.32l-2.35-.29-2.38-.15-4.82-.25-4.86-.22-4.86.08-4.8.1c-.8,0-1.59,0-2.37.06l-2.33.19-8.89.64c-2.8.43-4.83.69-6.8.93l.7-.1-1.16.16c-1.23.17-2.52.25-3.88.55,1.16-.24,2.29-.33,3.27-.47-2.18.22-5.4,1-8.57,1.65l-1.38.15-.74.16a16.25,16.25,0,0,0-1.68.35,3,3,0,0,0-.52.17c0,.05.55-.1,1.39-.21-1.58.38-3,.84-4.13,1.15-1.27.24-3.32.81-5.48,1.41s-4.36,1.49-6.07,1.94c-2.15.5-15.11,6.11-16.5,7.19-.11,0-1,.42.6-.34a103.43,103.43,0,0,0-9.25,4.88l-1.41.61-6.57,4.36c-4,2.66-5.63,3.78-1.81.93-2.32,1.7-4,2.87-5.21,3.81l-2.92,2.34-2.66,2.13-4.09,3.66.3-.39c-1.35,1.12-3,2.72-4.46,4.18l-2.1,2c-.61.62-1.13,1.16-1.51,1.52l-2.78,2.8c-1.13,1.17-2.39,2.63-3.83,4.22s-2.9,3.48-4.53,5.42-3.23,4.14-4.82,6.44a145.86,145.86,0,0,0-9.25,14.74c-.7,1.28-1.37,2.57-2,3.86l-.46,1-.22.49a1.19,1.19,0,0,1-.21.37l-1.28,1.65-4.91,6.23c2.62-2.86-5.85,7.22-6.18,8-.78.87-2.55,3-.58.45-6.32,8-9.7,11.87-14,17.43-.79.86,1.31-1.75.62-1-.5.64-2,2.53-2.72,3.33s.9-1.19,1.91-2.45c-6.63,8-7.17,9-7.5,9.67-3.47,4-5.16,6-7.54,9-1.25,1.36-3.29,3.64.9-1.29-1.2,1.37-4.84,5.58-8.21,9.47l-4.55,5.21c-1.21,1.4-2,2.34-2,2.43-.79.83-3.4,3.8-4,4.52-5.49,6.06-6,6.58-11.43,12.47l1.54-1.61c-2,2.46-4.52,4.92-9,9.6l.12-.14-7.43,7.55c-1.11,1.12-2.17,2.26-7.47,7.31l.66-.47c-.4.57-2.75,2.8-5.8,5.6l-10,9,2.34-2c-3.39,3.18-10,8.22-13.74,11-.82.6,1.25-1,2.33-1.91l-4.37,3.37c-.68.52-.75.6-.73.63s.11,0-.25.31-1.16,1-3,2.28c-1.42.88,1.66-1.38-3.37,2.06-1.27.82-4.91,3.34-9.36,5.76a54,54,0,0,1-7.09,3.2,27.26,27.26,0,0,1-6.83,1.62c.89-.09,1.79-.16,1.94-.19s0,0-.4.13l-2.06.31a15.89,15.89,0,0,1-5.37-.45l-6.16-1.63c-2.07-.61-4.19-.92-6.12-1.29s-3.7-.66-5.15-.83a9.63,9.63,0,0,1-1.16-.2l-4.62-.55c-1.78-.22-3.72-.47-5.6-.6-3.77-.29-7.29-.61-8.78-.64-2.27-.32-10-.81-17.08-.94-3.55-.12-7-.1-9.47-.16a26.38,26.38,0,0,1-4.1-.19c-5.08,0-10.16,0-15.24.08l.4,0c-4.87,0-8.16.14-10.66.24s-4.22.17-5.93.29c-2.25.06-.61,0-.42-.07-7.11.21-11,.38-14.64.57s-6.94.42-12.89.91l-.62,0c-.19,0-.46,0-.54,0l-1.66-.56-1.29-.46-1.57-.4c-2.23-.62-5.09-1.17-8.28-1.78-6.4-1.12-14.17-2.06-21.12-2.73a12,12,0,0,1,1.53.11c-15.62-1.55-37.42-3.52-43.19-3.42l-10.34-.53c13.37.84-2,.07,3.49.47-5.26-.28-13.59-.93-7.12-.57l1,.08c2.39-.12-16.62-1-16.25-1.14-26.33-1.33-52-2.45-76.68-3.21l2.84.27-8.61-.28c-2.26-.1-3-.23,3.12,0-1.62-.1-4.19-.15-6.39-.18s-4,0-4.09,0c-12-.39,4.7-.08,1-.18l-5-.13,1.13,0c-4.06,0-4.42,0-11.81-.15-4.67-.15-2.39-.17-4.23-.22,0,0-.14,0-.58,0l-2.24,0-10.85-.24,4.34.23c-4.81,0-10.2-.2-5.2.05-7.34-.41-40.48-.77-45-.28a15.84,15.84,0,0,1-4.9-.49,10.7,10.7,0,0,1-4.34-2.45,22.41,22.41,0,0,1-3.37-4.19c-1.05-1.56-2.07-3.23-3.23-4.94.56.85,1,1.57.75,1.32s-1-1.5-3.15-4.34c.91.95-.93-1.77-4-4.86a52.14,52.14,0,0,0-5.16-4.48c-.88-.7-1.78-1.3-2.57-1.88s-1.6-1-2.28-1.32c.61.25.72.41.56.31s-.69-.28-1.42-.57a16.72,16.72,0,0,0-2.82-.79,18.43,18.43,0,0,0-3.52-.24,24.12,24.12,0,0,0-3.37.32c-1,.23-1.84.42-2.41.57-1.11.4-1.19.37.8-.07-2.89.77-3,.84-2.9.76s.3-.23-1.83.57c-6.6,2.75-13.06,7.28-19.35,12.55a181.81,181.81,0,0,0-18.22,17.93c-.15.24,1.85-1.9-.59.94q-3.15,3.38-6.18,6.85c-.54.69-.95,1.08-1.3,1.5s-.73.7-1.15,1.08a29.76,29.76,0,0,1-4.77,3.18c.77-.43,1.93-1.07,0,.13A194.5,194.5,0,0,1,309.9,548q-12.11,4.8-24.61,8.88c-4.16,1.34-8.35,2.62-12.58,3.72-1.06.27-2.12.53-3.18.76-.53.1-1.07.23-1.6.31l-.8.14-.85.2a21.88,21.88,0,0,0-5.88,3.15,109,109,0,0,0-10.18,8.33c-3.24,2.94-6.39,6-9.48,9,3.39-3.27,1.17-1.06-1.35,1.51,1.65-1.66,0,.11.4-.18q-5.14,5.13-10.15,10.41c-1.71,2-10.48,11.53-11.34,12.79l3-3.45c-4,4.67,6-6.1,5.62-5.25,4.47-5.19,12.47-13.06,20.36-21,1.82-1.68-1.47,1.52-.48.64a110.63,110.63,0,0,1,9.32-8.53l-.54.48c1.71-1.44,3.33-2.72,4.92-3.85a27.57,27.57,0,0,1,4.72-2.8,9.55,9.55,0,0,1,2.4-.71c.87-.13,1.7-.31,2.53-.49,1.65-.36,3.25-.77,4.87-1.21,6.45-1.76,13.1-3.82,22.6-7.17l-1.45.39,6.86-2.41c2.29-1-.55.12-3.46,1.17s-5.88,2.08-3.78,1.24c2.75-.83,9.93-3.42,16.78-6.22S326,542,327.75,541.25c5.94-3.07-1.77.82,4.13-2.31l1.57-.81c.48-.3.94-.64,1.4-1a34.78,34.78,0,0,0,5.57-4,19.72,19.72,0,0,1-1.56,1.44c-.62.46-1.23,1-1.71,1.28a19.58,19.58,0,0,0,3.86-3.27l3.49-4.14c2.28-2.68,4.31-5,5-5.66q-2.16,2.34-4.26,4.73a198.06,198.06,0,0,1,20.38-20.7,102.54,102.54,0,0,1,11.77-8.82,57.53,57.53,0,0,1,6.18-3.37c1-.52,2.09-.89,3.13-1.31.52-.2,1.05-.35,1.57-.52a15.35,15.35,0,0,1,1.57-.44,9.43,9.43,0,0,0-1.28.28,22.59,22.59,0,0,1,7.33-1,15.75,15.75,0,0,1,4.45.9,17.17,17.17,0,0,1,4.21,2.29,51.51,51.51,0,0,1,6.36,5.2l-.39-.36a45.83,45.83,0,0,1,7,8.2c-1.08-1.5-.1-.06.74,1.29s1.61,2.6.26.58a60.15,60.15,0,0,0,4.27,6.1,12.89,12.89,0,0,0,2.08,2,9.54,9.54,0,0,0,1.67,1.07,11.84,11.84,0,0,0,4.52,1.33,16.85,16.85,0,0,0,2.24.24c1.66,0,2.54-.17,3.92-.24s3.29-.14,7-.16c-6,.11,4.68.11-2.06.26,15.4.15,22.88-.06,29.94.32,7.07-.14-13.33-.34-9.37-.33-3.32-.13,5.84-.12,10.68,0s8.36.47,20.74.75l-2.55,0c4.63.18,9.08.12,14.76.38,3.19-.07,7.37.21,8.3,0l-11.36-.26c6.44.11,12.48,0,23.08.48-.83,0-4,0-6.15-.07,3.1.15,6,.15,9.18.31-.92.16-13.79-.39-20.69-.41,3.32.16,13,.22,9.57.33,5-.12,12.19.4,20.58.48l-.56.1c1.33,0,4.08.06,6.52.14h-4.42c6.78.1,13.07.57,19.58.75-13.62-.51-3-.26-8.81-.56,16.81.49,9.65.66,28.46,1.4-2.55-.09-9.56-.48-5.57-.36,3.58.17,8.3.43,10.49.59,12.46.55-1.9-.21,3.4,0,4.24.34,6.12.24,11.59.46l0,.12c14.18.82,3.77-.06,16.54.73l-5.4-.13,6.66.33-1.38.06c7.25.32,9.5.47,16.59,1-1.64-.19.94-.19,7.22.26a64.71,64.71,0,0,0,6.5.56c-2-.07-4.23-.13-8.09-.51l-2.4-.06c4.61.41,11.59.83,14.81,1.1l-3.48-.3c4.3.28,8.6.54,12.9.88,2,.22.41.11-1.19,0,2.61.23,4.43.29,8.26.66a44.11,44.11,0,0,1-6.21-.31c4.1.3,8.18.69,12.27,1,.82.12,6.27.81,4.68.67,3.39.39,7.54.87,12,1.47,2.2.33,4.48.6,6.74,1.06,1.12.22,2.26.41,3.38.65l3.29.83a26.16,26.16,0,0,1,3.11,1,2.26,2.26,0,0,0,1.05.2l.79-.06,1.56-.09,3.1-.18,6.21-.31,13.64-.66,5.72,0c7.9-.24-7.75,0,5.4-.42,9.31-.26,3.48.08,6.74.06,4.63-.16,12.68-.43,21.23-.14C768.89,534.32,766.67,534.26,764,534.29Zm95.73.33c-.8.52-2,1.2-3.23,1.87s-2.37,1.2-3,1.49C855.41,536.9,857,536.23,859.76,534.62Zm105-104c-.87,1.11-2.27,2.77-3.88,4.62C962.06,433.9,963.36,432.37,964.8,430.65ZM1319.35,350h-.21C1314.94,349.83,1316.43,349.89,1319.35,350Zm8.74.27c.88,0,.82,0,.45,0-.61,0-2.58,0-4.81-.09C1324.35,350.17,1325.48,350.23,1328.09,350.26ZM492.58,520.14l1.7.07C490.44,520.16,491.51,520.15,492.58,520.14Z" transform="translate(1 1.78)"/><path class="cls-2" d="M954.1,443.62a5.27,5.27,0,0,1-.57.57C953.06,444.77,953.07,444.79,954.1,443.62Z" transform="translate(1 1.78)"/><path class="cls-2" d="M703.45,535.05l-.28-.07-.29-.05Z" transform="translate(1 1.78)"/><path class="cls-2" d="M1198.48,317.65c-1.72-.5-2.68-.79-3.32-1A33.77,33.77,0,0,0,1198.48,317.65Z" transform="translate(1 1.78)"/><path class="cls-2" d="M1374.45,351.61l-5.6-.27c2.71.12,3.67.19,5,.3C1373.77,351.61,1372.7,351.5,1374.45,351.61Z" transform="translate(1 1.78)"/><path class="cls-2" d="M1422.69,358l2.5.47-.21-.1C1421.55,357.66,1419.15,357.23,1422.69,358Z" transform="translate(1 1.78)"/><path class="cls-2" d="M1379.61,352.32c.44.15,4,.34,7.86.65l-.69-.06C1388,352.85,1383.77,352.57,1379.61,352.32Z" transform="translate(1 1.78)"/><path class="cls-2" d="M1388.38,353l3.62.32C1392.46,353.34,1390.53,353.22,1388.38,353Z" transform="translate(1 1.78)"/><path class="cls-2" d="M1339.18,350.44c1.86.07,1.18-.11,2.23,0C1343.49,350.32,1329,350.27,1339.18,350.44Z" transform="translate(1 1.78)"/><polygon class="cls-2" points="1383.76 354.67 1382.36 354.44 1380.16 354.38 1383.76 354.67"/><path class="cls-2" d="M1351.8,351.27l6.27.25a12.74,12.74,0,0,1,1.68,0l-5.47-.21C1352.75,351.28,1351.73,351.25,1351.8,351.27Z" transform="translate(1 1.78)"/><path class="cls-2" d="M1359.75,351.54l5,.18Z" transform="translate(1 1.78)"/><path class="cls-2" d="M1374.2,352.36l-1.85-.13-4.42-.23C1370,352.12,1372.11,352.21,1374.2,352.36Z" transform="translate(1 1.78)"/><path class="cls-2" d="M1284.51,348.08c-1.13-.17-2.27-.27-3.39-.48l-3.36-.63a24,24,0,0,0,3.64.75A18.78,18.78,0,0,0,1284.51,348.08Z" transform="translate(1 1.78)"/><path class="cls-2" d="M1305.08,350.3c-1.84-.11-2-.16-3-.26l-.21.14Z" transform="translate(1 1.78)"/><path class="cls-2" d="M1285.18,348.55c-.34,0-2.81-.3-4.11-.52-.65-.11-1-.17-.67-.1l1.07.22c.57.09,1.37.19,2.45.34C1284.62,348.55,1291.42,349.46,1285.18,348.55Z" transform="translate(1 1.78)"/><polygon class="cls-2" points="1189.38 316.3 1191.08 316.68 1190.89 316.38 1189.38 316.3"/><path class="cls-2" d="M1098.46,312.18c4-.78,4.42-.91,4.79-1a7.09,7.09,0,0,1,.91-.23,26,26,0,0,1,3.34-.55c.93-.15-.55,0-2,.23s-2.92.56-2,.34C1098.74,312,1096.22,312.46,1098.46,312.18Z" transform="translate(1 1.78)"/><path class="cls-2" d="M1103.51,311c.77-.15,1.57-.36,2.44-.51C1104.56,310.7,1103.92,310.87,1103.51,311Z" transform="translate(1 1.78)"/><polygon class="cls-2" points="223.98 603.13 220.46 606.98 222.77 604.52 223.98 603.13"/><path class="cls-2" d="M216.47,609l-.93.82-1.95,2.47C214.36,611.34,215.85,609.61,216.47,609Z" transform="translate(1 1.78)"/><path class="cls-2" d="M872,526.78l.3-.27c-.67.45-1.65,1.19-3.66,2.6C869.8,528.35,870.93,527.58,872,526.78Z" transform="translate(1 1.78)"/><polygon class="cls-2" points="806.12 537.92 807.33 538.03 805.09 537.68 806.12 537.92"/><path class="cls-2" d="M745.89,534.77l7.7-.14C748.31,534.72,745.23,534.59,745.89,534.77Z" transform="translate(1 1.78)"/></g><g id="thumb_print" data-name="thumb print"><g id="_6cXFEH" data-name="6cXFEH"><path d="M281.63,989.63a6.44,6.44,0,0,0,1.25-3.88,4.28,4.28,0,0,0-.48-1.35,2.59,2.59,0,0,0-1.63-1.56,5,5,0,0,0-3,.28c-.73.29-1.51.47-2.26.73-1.19.41-2.38.85-3.56,1.28-1,.38-2,.83-3,1.14a7.47,7.47,0,0,1-1.72.11l0-.23a1.66,1.66,0,0,1,.45-.17,12,12,0,0,0,4.42-1.54,35.32,35.32,0,0,1,4.42-1.62c.3-.1.62-.14.91-.26a6.47,6.47,0,0,1,4.38.18c.4.12.85.13,1.1.54s.36.62.56.92a3.31,3.31,0,0,1,.54,2.86c-.14.56-.19,1.15-.31,1.72-.05.22-.18.42-.25.64a1.35,1.35,0,0,0-.05.29c.12,0,.28,0,.33-.05a1.57,1.57,0,0,0,.31-.53,7.53,7.53,0,0,0-.12-5.27,2.78,2.78,0,0,0-1.49-1.33,7.7,7.7,0,0,0-6.29-.13,16,16,0,0,1-3,1,4.3,4.3,0,0,0-1.36.63,5.61,5.61,0,0,1-2.82,1.12c-.4.44-.94.21-1.41.28a.62.62,0,0,1-.46-.11c.08,0,.16-.14.25-.14a9.73,9.73,0,0,0,3.33-1,1.29,1.29,0,0,0,.62-.43,2.45,2.45,0,0,1,1.35-.8c1.34-.47,2.65-1,4-1.39a8.16,8.16,0,0,1,4.3.09c.58.17,1.16.33,1.73.52a1,1,0,0,1,.43.27,5.49,5.49,0,0,1,1.77,4.48,24.94,24.94,0,0,1-.58,2.67,7.59,7.59,0,0,1-.36,1.26,3.12,3.12,0,0,1-.56.8c-.26.33-.54.63-.88,1,.64,0,.64,0,.85-.41a4.8,4.8,0,0,1,.3-.48,9.4,9.4,0,0,0,1.6-6.69,4.64,4.64,0,0,0-2.38-3.3,6.69,6.69,0,0,0-4.91-.85c-.61.09-1.21.2-1.81.32a5.32,5.32,0,0,0-.79.18c-1.1.36-2.19.77-3.3,1.09-.72.2-1.48.29-2.22.43l-1.42.26a2.79,2.79,0,0,1-.33,0c.08-.09.11-.15.16-.16l3.43-1a20.11,20.11,0,0,0,3-.94c1.45-.69,3-.55,4.48-.63a6.7,6.7,0,0,1,3.42.89,4.56,4.56,0,0,1,1.6,1.13,5.94,5.94,0,0,1,1.62,4.25,10.62,10.62,0,0,1-1.25,4.66,7,7,0,0,1-1.06,1.25c-.49.53-1,1-1.5,1.57l-.94,1a1.33,1.33,0,0,0-.1.24l.13.11c.59-.56,1.17-1.13,1.77-1.68.36-.32.75-.6,1.12-.92a2.13,2.13,0,0,0,.43-.52c.29-.48.57-1,.82-1.46a9.29,9.29,0,0,0,1-3.29c.05-.48,0-1,0-1.46a4.79,4.79,0,0,0-1.14-3.32,9.63,9.63,0,0,0-2-1.86,6.54,6.54,0,0,0-3.36-1,16.63,16.63,0,0,0-5.61.6c-1,.23-2,.54-2.95.85-.49.14-.95.37-1.43.53a2.32,2.32,0,0,1-.89.12c.07-.06.14-.17.22-.19.86-.29,1.72-.55,2.58-.83.2-.07.39-.2.59-.28.62-.24,1.23-.49,1.85-.72,2.49-.92,5-.6,7.49-.07a2.33,2.33,0,0,0,.69-.06c-.18-.13-.35-.33-.55-.37a14.85,14.85,0,0,0-6.22-.39,26.28,26.28,0,0,0-2.77.74c-1.05.32-2.07.72-3.1,1.09a1.29,1.29,0,0,1-.26,0c.1-.17.15-.37.25-.41a21.74,21.74,0,0,1,6.5-1.92,13.65,13.65,0,0,1,4.23.3c1,.24,2,.54,3,.81.15,0,.31,0,.47.07a1.29,1.29,0,0,1,1,.82l-1-.43,0,.07,1.23,1.16-.11.12c-.42-.53-1.21-.61-1.44-1.39-.06-.19-.45-.29-.7-.4,0,0-.21.13-.23.22a.43.43,0,0,0,.09.35c.27.26.57.47.86.71.08.06.13.17.21.19.79.14,1.07.83,1.45,1.39A7.16,7.16,0,0,1,286,990c-.32.71-.55,1.46-.86,2.18a3.15,3.15,0,0,1-.41.57,3.36,3.36,0,0,0-.41.71,4.79,4.79,0,0,1-1.87,2.34c-.48.34-.93.7-1.38,1.08a2.32,2.32,0,0,0-.35.46l.1.13c.27-.16.55-.29.81-.46a10.23,10.23,0,0,0,3.23-3.72,30.13,30.13,0,0,0,1.92-4.3,6.66,6.66,0,0,0-1.41-6.89l-.22-.27.08-.11c.14.08.34.13.42.25.37.58.72,1.17,1.06,1.77a6.53,6.53,0,0,1,.6,5,20.39,20.39,0,0,1-2.55,5.67c-.18.3-.38.58-.55.88a5.78,5.78,0,0,1-1.71,1.56c-.43.33-.88.62-1.31.93-.21.15-.4.31-.53-.08,0-.09-.24-.16-.37-.15a2.17,2.17,0,0,0-.56.13c-.78.3-1.55.6-2.31,1a5.27,5.27,0,0,0,3-.71l.07.2c-.37.19-.75.39-1.13.57a4.27,4.27,0,0,1-.91.38,10.89,10.89,0,0,1-1.28.14,6.26,6.26,0,0,0-1.31.11,2.88,2.88,0,0,1-1.79,0,5.57,5.57,0,0,0-1.3-.12l-.05.14a7.06,7.06,0,0,0,.87.33,9.79,9.79,0,0,0,3.62,0,8,8,0,0,0,1.4-.19,13,13,0,0,0,1.89-.79c.42-.21.77-.56,1.18-.77a7.05,7.05,0,0,0,2.69-2.33,23.54,23.54,0,0,0,2.86-5,10,10,0,0,0-.39-8.47,8.51,8.51,0,0,0-1.31-1.52c-.12-.13-.25-.25-.38-.37l.1-.12a3.43,3.43,0,0,1,.47.36c.26.27.5.56.73.85a4.12,4.12,0,0,1,.57.75,18,18,0,0,1,.79,1.73,8.27,8.27,0,0,1,.34,5.29,20.53,20.53,0,0,1-2.3,5.07,6.84,6.84,0,0,0-.34.93.87.87,0,0,1-.14.29,9.44,9.44,0,0,1-4.09,3.19c-.71.3-1.38.7-2.06,1.05a2,2,0,0,0,1.72-.41c.06-.05.09-.15.16-.17a1.42,1.42,0,0,1,.36,0c0,.14,0,.34-.06.4a2.13,2.13,0,0,1-.59.28l-1.25.43c-.06,0-.11.09-.16.14l0,.13a5.56,5.56,0,0,0,.83-.08c.37-.11.72-.29,1.08-.43s.86-.29,1.28-.47a8.2,8.2,0,0,0,.89-.55c.37-.25.72-.52,1.1-.74a6,6,0,0,0,1.81-1.9,6.09,6.09,0,0,0,.51-1.13c.65-1.41,1.36-2.81,1.94-4.25a5.88,5.88,0,0,0,.61-3.89c-.11-.38,0-.8-.12-1.19a16.34,16.34,0,0,0-1.73-3.6,1,1,0,0,1-.16-.5c.13.16.27.32.39.49a12.87,12.87,0,0,1,2,4.72,6.23,6.23,0,0,1-.82,4.18c-.27.52-.46,1.09-.69,1.64a11.41,11.41,0,0,0-.75,1.87,7.62,7.62,0,0,1-1.09,2.17,5.15,5.15,0,0,1-1.94,1.88c-.85.49-1.76.88-2.65,1.3a10.37,10.37,0,0,1-1.72.74,5.89,5.89,0,0,1-2,.25c-1.65-.16-3.28-.44-4.92-.67a.37.37,0,0,0-.32.08,8.31,8.31,0,0,0,2.19.62,20.31,20.31,0,0,0,2.34.35c.75.06,1.52,0,2.28,0l0,.13a1.1,1.1,0,0,1-.26.15,5.17,5.17,0,0,1-3.23,0,6.81,6.81,0,0,0-1.56-.28,8.27,8.27,0,0,0,4.4,1.17l0,.18c-.25,0-.5-.05-.75,0a2.08,2.08,0,0,0-.44.15l.35.23.25.2c-.4.22-.61,0-.81-.24a.89.89,0,0,0-.36-.31c-.87-.28-1.74-.53-2.61-.8s-1.79-.62-2.7-.87a7.86,7.86,0,0,1-3.35-2.23,5.25,5.25,0,0,0-.83-.56l-1-.63.09-.14,2.38.95c.1-.45,0-.57-.52-.78-1-.42-2-.85-3-1.34a7.12,7.12,0,0,1-1.11-.88c.14-.07.18-.1.19-.09.72.46,1.41.94,2.14,1.36a3,3,0,0,0,1,.29c1.25.21,2.51.41,3.77.6,0,0,0,0,.14-.1a1.33,1.33,0,0,0-.37-.22c-.41-.08-.84-.13-1.25-.22-.69-.15-1.38-.31-2.06-.5a13.14,13.14,0,0,1-1.5-.49.91.91,0,0,1-.4-.47,12.68,12.68,0,0,0,5.08,1.19l.05-.21-3.15-.74,0-.21a4.91,4.91,0,0,1,.55,0c.51.1,1,.22,1.52.3a1.13,1.13,0,0,0,.39-.08v-.14a5.28,5.28,0,0,0-.77-.24,14.9,14.9,0,0,1-5.27-1.75c-.13-.07-.31-.08-.44-.16a2.55,2.55,0,0,1-.38-.36l.11-.15a1.48,1.48,0,0,1,.35.13,12.3,12.3,0,0,0,9.46,1.71,29.08,29.08,0,0,0,2.81-.84l1.21-.35c-.17.58-.57.67-.95.8s-.72.28-1.1.38c-1,.26-2,.49-2.92.73-.19,0-.39.07-.59.11l0,.18a2.75,2.75,0,0,0,.5.09,11.41,11.41,0,0,0,4.13-1.1c1-.46,2-1,3-1.47a2.27,2.27,0,0,1,.48-.18,7.36,7.36,0,0,1-2.26,1.69,16.29,16.29,0,0,1-4.74,1.4,3.29,3.29,0,0,0-.67.3,2.62,2.62,0,0,0,.72.11,15.69,15.69,0,0,0,7.8-3.35,13,13,0,0,0,2.2-2.56,1.84,1.84,0,0,0,.17-.56l-.16-.1-.52.63c-.41.54-.81,1.08-1.24,1.6a3.67,3.67,0,0,1-.6.5c0-.95,1.13-1.13,1.18-1.93l-.13-.13c-.23.2-.54.35-.67.61a5.11,5.11,0,0,1-1.68,1.59.3.3,0,0,1-.29,0,.32.32,0,0,1-.13-.26c0-.06.15-.1.23-.15a5.51,5.51,0,0,0,1.84-1.76c-.5,0-.68.27-.9.53A5.42,5.42,0,0,1,278,993a1.27,1.27,0,0,1-.28.06,1.69,1.69,0,0,1-.26-.07l2.13-1.45-.09-.15a10,10,0,0,0-.93.45,6,6,0,0,1-2.45,1c-.12,0-.22.13-.33.14a2.85,2.85,0,0,1-.49-.06c.08-.12.12-.3.23-.35.67-.28,1.37-.49,2-.79s1.06-.58,1.58-.88l-.08-.2c-.15,0-.3.08-.44.14-1.09.47-2.15,1-3.26,1.41a13.89,13.89,0,0,1-1.83.42,6.16,6.16,0,0,1-1.1.23c-1,0-2,0-3.06,0l-.18,0-.05.14a2,2,0,0,0,.71.23c1.3-.07,2.6-.17,3.91-.28a8.2,8.2,0,0,0,.86-.18l.07.22a5,5,0,0,1-.74.34,11.08,11.08,0,0,1-6.45-.19c-1.08-.38-2.16-.75-3.23-1.18,1.59.2,3,1,4.66,1.12L269,993a2,2,0,0,0-.45-.33c-.83-.29-1.66-.55-2.5-.82-.31-.1-.63-.18-.94-.3a.76.76,0,0,1-.29-.25s.06-.19.08-.19a1.06,1.06,0,0,1,.34.12,8.43,8.43,0,0,0,3.16,1,26.28,26.28,0,0,0,3.07.14,16.4,16.4,0,0,0,2.46-.47c.46-.09.91-.23,1.37-.32a11.39,11.39,0,0,0,5.15-2.76,7.35,7.35,0,0,0,1.14-1.16,3.31,3.31,0,0,0,.43-1,3,3,0,0,0-.73-2.72.93.93,0,0,0-1.05-.36c-.73.19-1.47.36-2.19.61-.94.33-1.85.77-2.81,1.08-1.5.5-3,.85-4.52,1.41a10.65,10.65,0,0,1-3.1.51,5.57,5.57,0,0,1-1.13-.15l0-.17c.33,0,.67,0,1-.07a10.82,10.82,0,0,0,3.58-.76c.5-.25,1-.42,1.56-.62.83-.31,1.65-.63,2.49-.89a14.1,14.1,0,0,0,2.25-.82,5.47,5.47,0,0,1,1.77-.43,7.2,7.2,0,0,1,1.23,0,1.45,1.45,0,0,1,1.23.77c1,1.59,1.26,2.58.24,4.21a5.34,5.34,0,0,0-.42,1.28Zm-7.94,8a.68.68,0,0,0,.74.38,16,16,0,0,0,4.5-1.18,1.61,1.61,0,0,1,.49,0V997a12.56,12.56,0,0,1-1.31.69,10.56,10.56,0,0,1-1.49.41c-.49.1-1,.17-1.48.23s-1,.1-1.48.14l0,.16c1.13.49,2.32,0,3.58.26l-.32-.51c.28-.11.54-.22.8-.31.65-.23,1.33-.42,1.95-.7a5.17,5.17,0,0,0,.85-.71c.68-.51,1.38-1,2-1.52a5.16,5.16,0,0,0,.7-.9.56.56,0,0,0-.46.1l-2.63,2.26a.5.5,0,0,1-.3.16c-.08,0-.23-.14-.22-.2a.57.57,0,0,1,.18-.34c.12-.12.3-.17.42-.29a2.28,2.28,0,0,0,.3-.38c-.51.2-.94.45-1.38.67a11,11,0,0,1-4.65,1.38c-.28,0-.56,0-.84.08s-.85,0-1.1-.45c0-.05-.27,0-.47.06a1.48,1.48,0,0,0,1.42.61S273.64,997.74,273.69,997.66Zm8.57-4.46-.12-.18a9.13,9.13,0,0,0-.86.64,13.36,13.36,0,0,1-5.78,3.08,1.84,1.84,0,0,1-.47.07h-1.39l.08.42a10.41,10.41,0,0,0,4.72-1.18A10.26,10.26,0,0,0,282.26,993.2Zm-.17-3.18a5,5,0,0,0,1.4-2.26,4.44,4.44,0,0,0-.8-4.22,2.71,2.71,0,0,0-.49-.39l-.11.11c.07.15.13.3.21.45a7.93,7.93,0,0,1,.89,1.64,4.62,4.62,0,0,1-.28,2.88,14.89,14.89,0,0,1-.74,1.5C282.13,989.82,282.12,989.93,282.09,990Zm-5.37,10.08,0,.18a4.66,4.66,0,0,0,2.1.17c.11,0,.2-.19.29-.3-.13-.08-.26-.23-.4-.24a10.77,10.77,0,0,0-1.27,0A5.06,5.06,0,0,0,276.72,1000.1Zm-4.3-1.75c-.1-.17-.12-.24-.15-.25l-2.28-.5s-.11.08-.16.12.13.16.21.18c.62.16,1.24.3,1.87.43A3.49,3.49,0,0,0,272.42,998.35Zm-2.78-.26a2.44,2.44,0,0,0,2.5.82Zm11.41-9.22c-.36.33-.73.65-1.08,1-.05,0,0,.17,0,.25s.11,0,.16,0C280.4,990.07,281.11,989.23,281.05,988.87Zm.21.78L279.89,991A1.64,1.64,0,0,0,281.26,989.65Zm-10.8,9.76c.37.58.62.65,1,.34Zm13.71-6.27L284,993l-.33.53a1.25,1.25,0,0,0,.22.09C284,993.47,284.07,993.3,284.17,993.14Zm-12.1,2.74c-.3-.44-.51-.44-.76-.08Zm.54,2.31,0,.28.67,0,0-.23Z" transform="translate(1 1.78)"/><path d="M277.08,988.92a20.27,20.27,0,0,1-11.8.92c-.09,0-.15-.17-.15-.36a3.84,3.84,0,0,0,.9.31,24.33,24.33,0,0,0,2.83.09c1.48-.09,3-.25,4.43-.45.93-.12,1.84-.38,2.76-.57.4-.08.81-.14,1.22-.2a1.82,1.82,0,0,0,1.28-.77c.54-.71,1.15-1.36,1.74-2a1.2,1.2,0,0,1,.48-.27s.21.2.19.27a2.86,2.86,0,0,1-.29.58,10.16,10.16,0,0,1-2.63,2.6,7.69,7.69,0,0,1-3.52,1.5,23.94,23.94,0,0,1-7,.47,2.16,2.16,0,0,0-.44,0l-.05.17a2.83,2.83,0,0,0,.75.27,31.51,31.51,0,0,0,3.89-.05c3.1-.36,6.13-1,8.32-3.53a16.91,16.91,0,0,0,1.11-1.52.81.81,0,0,0,0-1.09c-.32-.29-.69,0-.92.23-.71.63-1.36,1.31-2.05,2,.24.5.11.66-.65.71l.22-.49c-.07,0-.12,0-.14,0a5.21,5.21,0,0,1-2.44.93c-1,.11-1.93.4-2.89.56a13.65,13.65,0,0,1-2.53.3,6.68,6.68,0,0,1-2.73-.32,4.4,4.4,0,0,0-.74-.14,2.87,2.87,0,0,1-.68-.23,2.13,2.13,0,0,1,1.64.18,1,1,0,0,0,.54.11c.62,0,1.26-.06,1.88-.13,1.38-.16,2.75-.33,4.12-.52a9,9,0,0,0,6-3.27,1.12,1.12,0,0,1,1.73.21,1.37,1.37,0,0,1-.06,1.57c-1,1.21-1.93,2.57-3.41,3.27a14.94,14.94,0,0,1-8,1.7,13.24,13.24,0,0,1-2.38-.25,14.86,14.86,0,0,1-2.78-1.22s.09,0,.12,0a7.33,7.33,0,0,0,3.48.2c.45,0,.91,0,1.36,0a20.55,20.55,0,0,0,2.61-.17c1.24-.21,2.47-.52,3.69-.83a5.08,5.08,0,0,0,1-.52Z" transform="translate(1 1.78)"/><path d="M278.15,985.4a1.85,1.85,0,0,0-.54.08c-2.93,1.58-6.16,2-9.39,2.48a3.76,3.76,0,0,1-.56,0c0-.09,0-.13.07-.14,1.1-.26,2.19-.6,3.3-.76a17.62,17.62,0,0,0,4-1.22l.08,0c1.11-.12,2-.83,3-1.11.83-.22,1.68-.37,2.53-.52.12,0,.28.16.4.27s0,.23,0,.23-.28,0-.42,0a2,2,0,0,0-.63,0,14.77,14.77,0,0,0-1.55.51c-.14,0-.24.22-.35.34Z" transform="translate(1 1.78)"/><path d="M278.13,985.41l.37,0,.42-.09.07.13c-.13.12-.25.25-.38.36a11.15,11.15,0,0,1-4.69,2.24,32.34,32.34,0,0,1-4.27.64,15,15,0,0,1-2.27-.09c.17-.11.25-.2.34-.21l1.35-.09c.18,0,.37-.07.55-.1l1.84-.22.18,0a28.84,28.84,0,0,0,5.81-1.83,1.12,1.12,0,0,0,.7-.71Z" transform="translate(1 1.78)"/><path d="M281.75,998.87a2.73,2.73,0,0,1,.47-.35,10.11,10.11,0,0,0,4.49-5.12c.79-1.64,1.4-3.37,2.08-5.06a.93.93,0,0,0,0-.47c-.06-.72-.14-1.44-.21-2.16l0-.49.17,0a14.61,14.61,0,0,1,.31,1.43,8.48,8.48,0,0,1,.05,1.51,4.41,4.41,0,0,1-.28.79,24.9,24.9,0,0,1-2.92,6.84,8.89,8.89,0,0,1-3.28,3,4.36,4.36,0,0,1-.82.26Z" transform="translate(1 1.78)"/><path d="M291.23,977.36a5.16,5.16,0,0,0-1.93-2.52,8.28,8.28,0,0,1-.7-.75,5.35,5.35,0,0,0-2-1.31,9.53,9.53,0,0,1-1.21-.67l.09-.19c.38.15.76.29,1.12.47s.61.37.92.54c.14.09.35.1.47.2a13.88,13.88,0,0,1,2.37,2.29,8.34,8.34,0,0,0,1.27,1.25,1.88,1.88,0,0,1,.62.79c.15.36.57.6.81.94a13.91,13.91,0,0,1,1.84,3.05c.23.6.54,1.16.8,1.74a2.14,2.14,0,0,1,.1.35c-.3,0-.5,0-.53-.35a2.27,2.27,0,0,0-.21-.86c-.43-.79-.88-1.56-1.36-2.31a7.59,7.59,0,0,0-1.29-1.84C292.08,977.88,291.93,977.18,291.23,977.36Z" transform="translate(1 1.78)"/><path d="M282.76,972.57c.39.16.8.29,1.18.48,1.06.53,2.15,1,3.16,1.65s1.68,1.33,2.59,1.89c1.88,1.16,3,3,4.25,4.7a13.82,13.82,0,0,1,1.23,2.8,2.22,2.22,0,0,1,.05.45l-.15.05c-.13-.32-.26-.65-.4-1-.22-.55-.45-1.1-.68-1.66a.08.08,0,0,0,0,0c-1.14-1.12-1.65-2.73-2.87-3.79-.58-.5-1.23-.91-1.83-1.38s-1-.89-1.6-1.3a8.79,8.79,0,0,0-1-.61c-.62-.36-1.24-.72-1.89-1.05s-1.2-.53-1.79-.82c-.13-.06-.22-.22-.32-.33Z" transform="translate(1 1.78)"/><path d="M288.43,996.17a8.63,8.63,0,0,0,.41-.94c.43-1.34.87-2.67,1.25-4a5.85,5.85,0,0,0,.07-1.26,2.08,2.08,0,0,1,0-.23,12.21,12.21,0,0,0-.3-4.26,7.54,7.54,0,0,0-.34-1.26,11.79,11.79,0,0,0-2.23-3.65c-.33-.34-.72-.62-1.07-.93a4.12,4.12,0,0,1-.67-.77,3.3,3.3,0,0,1,1.53,1,21.38,21.38,0,0,1,1.73,2.31,12.17,12.17,0,0,1,1.76,7.32,15.78,15.78,0,0,1-.9,3.84c-.25.72-.41,1.47-.65,2.19a3.21,3.21,0,0,1-.44.69Z" transform="translate(1 1.78)"/><path d="M291.86,983.52l.69,1.37.2-.08a5,5,0,0,0-.22-.89c-.3-.7-.65-1.37-1-2a14.43,14.43,0,0,0-.65-1.5,10.09,10.09,0,0,0-2.41-3c-.81-.6-1.53-1.33-2.32-2a8.94,8.94,0,0,0-1.15-.6c-.09,0-.14-.17-.2-.26.1,0,.24-.09.3,0,.79.54,1.57,1.09,2.35,1.65.27.19.51.41.8.58,1.05.63,1.55,1.75,2.28,2.67a11.58,11.58,0,0,1,1.25,2.3c.39.86.72,1.75,1.06,2.62.09.26.14.54.23.86l-.58-.06a6.7,6.7,0,0,1,.56,4.43,15.34,15.34,0,0,0-1.4-5.94Z" transform="translate(1 1.78)"/><path d="M277.07,993.3a15.39,15.39,0,0,1-1.44.64c-.74.25-1.49.48-2.26.66a7.09,7.09,0,0,1-1.31.1,14.13,14.13,0,0,1-4.57-.61,1.69,1.69,0,0,0-.5-.08c-.38,0-.48-.2-.48-.58l.69.24a11.85,11.85,0,0,0,6.25.24c.73-.14,1.43-.39,2.14-.57l1.4-.3Z" transform="translate(1 1.78)"/><path d="M284.8,980a2.47,2.47,0,0,1-.36-.19,6.72,6.72,0,0,0-3.18-1.2c-1.15-.12-2.28-.36-3.43-.49a14.25,14.25,0,0,0-2,0q-.75,0-1.5.09a1.72,1.72,0,0,0-.66.22,6.56,6.56,0,0,1-2.59.69c.17-.25.22-.56.66-.45.15,0,.36-.19.56-.26.73-.23,1.47-.45,2.22-.65a4.21,4.21,0,0,1,2.46,0,9.89,9.89,0,0,0,1.33.18l3.25.5c.09,0,.18.08.27.09a7.46,7.46,0,0,1,2.67,1c.15.07.26.25.39.37Z" transform="translate(1 1.78)"/><path d="M291.83,991.75c0-.12,0-.25,0-.37a14.49,14.49,0,0,0-.61-6.79c-.2-.66-.58-1.25-.78-1.91-.74-2.3-2.59-3.61-4.38-5a2.36,2.36,0,0,1-.56-.46,2.61,2.61,0,0,1,.73.24c.8.6,1.57,1.22,2.33,1.86a9.36,9.36,0,0,1,1.75,2.48,14,14,0,0,1,1,2A12,12,0,0,1,292.4,988a24.26,24.26,0,0,1-.24,3.06,3.25,3.25,0,0,1-.21.67Z" transform="translate(1 1.78)"/><path d="M295.8,981.85c-.56-1-1.11-2-1.71-2.92s-1.07-1.64-1.65-2.42a8.08,8.08,0,0,0-.93-.92c-.9-.88-1.8-1.77-2.71-2.64-.09-.1-.26-.12-.38-.19a.89.89,0,0,1-.26-.25.3.3,0,0,1,.09-.23.51.51,0,0,1,.35.06c.49.4,1,.8,1.45,1.24a27.67,27.67,0,0,1,4.57,5.44c.48.81.82,1.7,1.23,2.55,0,.08.07.17.11.25Z" transform="translate(1 1.78)"/><path d="M290.63,992.64c1-4.76.39-9.15-3-12.87l.06-.11a3.12,3.12,0,0,1,.63.49,10.28,10.28,0,0,1,.84,1.2c1.87,3,2.82,6.16,2,9.7-.07.31-.1.62-.16.93s-.13.46-.2.69Z" transform="translate(1 1.78)"/><path d="M293.78,987.72a8.34,8.34,0,0,1-.2-.83,20.28,20.28,0,0,0-.28-2.36,14,14,0,0,0-3-6.23c-.12-.12-.28-.21-.39-.34a.79.79,0,0,1-.07-.32c.12,0,.3,0,.36.1q.82,1,1.62,2.07a5.41,5.41,0,0,1,1.15,2.54,8.73,8.73,0,0,0,.44,1.37,9.1,9.1,0,0,1,.27,1c.12.53.25,1.06.32,1.6a12.52,12.52,0,0,1,0,1.37Z" transform="translate(1 1.78)"/><path d="M287.23,979.57l-.46-.35a11.82,11.82,0,0,0-1.37-1.08,14,14,0,0,0-5.14-2,23.56,23.56,0,0,0-4.11-.23c-.27,0-.57.29-.9-.17a17.69,17.69,0,0,1,6,.36,14.88,14.88,0,0,1,6.12,3.29Z" transform="translate(1 1.78)"/><path d="M273,977.33c.94-1.08,7-1.12,8.06-.35a16.46,16.46,0,0,0-4-.27Z" transform="translate(1 1.78)"/><path d="M291.23,982.52c-.15-.27-.3-.53-.44-.8a9.4,9.4,0,0,0-3.16-3.87c-1-.62-2-1.15-3-1.73a2,2,0,0,1-.59-.45l2,1,2,1a.71.71,0,0,1,.3.21,16.32,16.32,0,0,1,2.76,3.92c.08.21.15.44.22.65Z" transform="translate(1 1.78)"/><path d="M289.78,990.54c-.18.53-.34,1.06-.54,1.58q-1,2.57-2.07,5.12c-.26.64-.93.84-1.35,1.33l-.1-.11s0-.07,0-.08a8.08,8.08,0,0,0,2.22-3.51c.34-.9.71-1.79,1-2.69.16-.41.26-.85.41-1.27a2.55,2.55,0,0,1,.23-.43Z" transform="translate(1 1.78)"/><path d="M285,972.63a12.79,12.79,0,0,1,5.14,3.63c-.19,0-.27,0-.3,0-.53-.46-1.05-.93-1.59-1.38a6.75,6.75,0,0,0-1-.73c-.56-.32-1.15-.57-1.72-.88a5,5,0,0,1-.62-.52Z" transform="translate(1 1.78)"/><path d="M276,1003c-1.2-.06-3-.58-3.44-1.31.12,0,.24-.14.32-.11.45.16.89.36,1.35.52.71.26,1.42.49,2.14.75.07,0,.19.13.18.17a.65.65,0,0,1-.18.3.26.26,0,0,1-.25,0C276,1003.2,276,1003.08,276,1003Z" transform="translate(1 1.78)"/><path d="M282.66,978l-5.56-.74,0-.14A17,17,0,0,1,282.66,978Z" transform="translate(1 1.78)"/><path d="M267.22,984.17l2.61-.7,1.14-.31.08.24c-.56.21-1.11.46-1.68.62a15.55,15.55,0,0,1-1.8.38c-.13,0-.29-.08-.43-.12Z" transform="translate(1 1.78)"/><path d="M280.66,1000.75l1.43-.53a13.6,13.6,0,0,0,1.55-.56,15.74,15.74,0,0,0,1.34-.84.87.87,0,0,1,.31-.14s.15.17.13.21a.45.45,0,0,1-.24.23c-1,.49-2.06,1-3.11,1.43a7.88,7.88,0,0,1-1.37.36Z" transform="translate(1 1.78)"/><path d="M294.55,986.4a14.3,14.3,0,0,0-1.29-4.34C293.93,982.44,294.92,985.7,294.55,986.4Z" transform="translate(1 1.78)"/><path d="M283.22,974.62c1.91.56,4,1.69,4.23,2.32Z" transform="translate(1 1.78)"/><path d="M293.36,975.37c.41,1,1.36,1.57,1.59,2.64l-.13.09-1.71-2.56Z" transform="translate(1 1.78)"/><path d="M284.33,974.37l-3.19-1.29a.93.93,0,0,1,.94,0c.67.27,1.31.6,2,.92a2.8,2.8,0,0,1,.35.25Z" transform="translate(1 1.78)"/><path d="M282.41,975.66l1.46.61c.27.12.55.2.81.34a5.22,5.22,0,0,1,.6.45l-.07.1-2.87-1.35Z" transform="translate(1 1.78)"/><path d="M292.22,974.61l-1.73-1.56C291.16,973.05,292.29,974.09,292.22,974.61Z" transform="translate(1 1.78)"/><path d="M264.14,994l2.29,1a.79.79,0,0,1-.95-.13,3.44,3.44,0,0,0-.84-.4c-.2-.1-.39-.23-.59-.34Z" transform="translate(1 1.78)"/><path d="M286.78,980.79l-1.47-1.11A1.5,1.5,0,0,1,286.78,980.79Z" transform="translate(1 1.78)"/><path d="M281.1,975.47l-2.11-.39A2.25,2.25,0,0,1,281.1,975.47Z" transform="translate(1 1.78)"/><path d="M267.32,987.73c-.37.5-1.12.46-1.77,0Z" transform="translate(1 1.78)"/><path d="M276.78,974.7h.63c.28,0,.56,0,.84,0a.63.63,0,0,1,.34.16s0,.22,0,.23a.65.65,0,0,1-.34,0l-.94-.2-.49-.08Z" transform="translate(1 1.78)"/><path d="M283.57,977.85l-1.87-.76a3.15,3.15,0,0,1,1.93.61Z" transform="translate(1 1.78)"/><path d="M282.62,974.46l-1.85-.58.06-.17,1.84.57Z" transform="translate(1 1.78)"/><path d="M285.24,978.65a1.21,1.21,0,0,1-1.12-.64C284.53,977.92,284.89,978.11,285.24,978.65Z" transform="translate(1 1.78)"/><path d="M279.24,993.23l-1,.49-.12-.23,1-.55Z" transform="translate(1 1.78)"/><path d="M290.08,994c.11-.28.21-.57.34-.85,0,0,.17-.07.25-.06s.09.14.07.19l-.46.81Z" transform="translate(1 1.78)"/><path d="M284.86,979.17l-1.44-.8.08-.15L285,979Z" transform="translate(1 1.78)"/><path d="M267.8,995.57l-.81-.23,0-.19.83.16Z" transform="translate(1 1.78)"/><path d="M266.53,997.3l-.85-.64.06-.07.84.64Z" transform="translate(1 1.78)"/><path class="cls-3" d="M273.69,997.68c.28,0,.56-.07.84-.08a11,11,0,0,0,4.65-1.38c.44-.22.87-.47,1.38-.67a2.28,2.28,0,0,1-.3.38c-.12.12-.3.17-.42.29a.57.57,0,0,0-.18.34c0,.06.14.2.22.2a.5.5,0,0,0,.3-.16l2.63-2.26a.56.56,0,0,1,.46-.1,5.16,5.16,0,0,1-.7.9c-.65.54-1.35,1-2,1.52a5.17,5.17,0,0,1-.85.71c-.62.28-1.3.47-1.95.7-.26.09-.52.2-.8.31l.32.51c-1.26-.3-2.45.23-3.58-.26l0-.16c.49,0,1-.08,1.48-.14s1-.13,1.48-.23a10.56,10.56,0,0,0,1.49-.41,12.56,12.56,0,0,0,1.31-.69v-.14a1.61,1.61,0,0,0-.49,0,16,16,0,0,1-4.5,1.18.68.68,0,0,1-.74-.38Z" transform="translate(1 1.78)"/><path class="cls-3" d="M282.26,993.2a10.26,10.26,0,0,1-3.82,2.86,10.41,10.41,0,0,1-4.72,1.18l-.08-.42H275a1.84,1.84,0,0,0,.47-.07,13.36,13.36,0,0,0,5.78-3.08,9.13,9.13,0,0,1,.86-.64Z" transform="translate(1 1.78)"/><path class="cls-3" d="M282.09,990c0-.09,0-.2.08-.29a14.89,14.89,0,0,0,.74-1.5,4.62,4.62,0,0,0,.28-2.88,7.93,7.93,0,0,0-.89-1.64c-.08-.15-.14-.3-.21-.45l.11-.11a2.71,2.71,0,0,1,.49.39,4.44,4.44,0,0,1,.8,4.22A5,5,0,0,1,282.09,990Z" transform="translate(1 1.78)"/><path class="cls-3" d="M276.72,1000.1a5.06,5.06,0,0,1,.75-.17,10.77,10.77,0,0,1,1.27,0c.14,0,.27.16.4.24-.09.11-.18.3-.29.3a4.66,4.66,0,0,1-2.1-.17Z" transform="translate(1 1.78)"/><path class="cls-3" d="M272.42,998.35a3.49,3.49,0,0,1-.51,0c-.63-.13-1.25-.27-1.87-.43-.08,0-.14-.12-.21-.18s.12-.13.16-.12l2.28.5S272.32,998.18,272.42,998.35Z" transform="translate(1 1.78)"/><path class="cls-3" d="M269.64,998.09l2.5.82A2.44,2.44,0,0,1,269.64,998.09Z" transform="translate(1 1.78)"/><path class="cls-3" d="M281.05,988.87c.06.36-.65,1.2-.92,1.27-.05,0-.16,0-.16,0s-.05-.21,0-.25C280.32,989.52,280.69,989.2,281.05,988.87Z" transform="translate(1 1.78)"/><path class="cls-3" d="M281.26,989.65a1.64,1.64,0,0,1-1.37,1.37Z" transform="translate(1 1.78)"/><path class="cls-3" d="M273.69,997.66c-.05.08-.1.24-.15.24a1.48,1.48,0,0,1-1.42-.61c.2,0,.44-.11.47-.06.25.45.73.33,1.1.45Z" transform="translate(1 1.78)"/><path class="cls-3" d="M270.46,999.41l1,.34C271.08,1000.06,270.83,1000,270.46,999.41Z" transform="translate(1 1.78)"/><path class="cls-3" d="M284.17,993.14c-.1.16-.2.33-.31.49a1.25,1.25,0,0,1-.22-.09L284,993Z" transform="translate(1 1.78)"/><path class="cls-3" d="M272.07,995.88l-.76-.08C271.56,995.44,271.77,995.44,272.07,995.88Z" transform="translate(1 1.78)"/><path class="cls-3" d="M272.61,998.19l.65.08,0,.23-.67,0Z" transform="translate(1 1.78)"/></g></g><g id="hair"><path d="M801.93,465.71c53.05-9.82,49.79-83.17,95.55-102.83,1.75-.75-1-.73-1.68-.42-21.15,9.08-32.59,30-42.62,49.46-11,21.3-24.77,47.87-50.72,52.67-1.17.22-2.56,1.49-.53,1.12Z" transform="translate(1 1.78)"/></g><g id="scissors"><path class="cls-4" d="M1154.26,627.22a225.25,225.25,0,0,0,50.33,24.3s-4.42-8.69,3.68-11C1208.27,640.47,1166.29,628,1154.26,627.22Z" transform="translate(1 1.78)"/><path class="cls-4" d="M1204.59,651.52l32.65,17.68s7.12,3.44,6.39,6.87-2.7,10.56,1.47,14.49,20.13,20.13,33.63,3.44c0,0,9.33-18.42-18.65-25.54,0,0-6.14,0-8.6-2s-13.26-9.33-13.26-9.33l18.66,2.21s22.59,16,33.64,0c0,0,11.54-20.63-19.89-24.8,0,0-13.75,1.23-16.45,12,0,0-3.19,2.7-10.06.74s-28.73-6.39-28.73-6.39-4.86-1.5-7.12-.49" transform="translate(1 1.78)"/><path class="cls-4" d="M1277.51,640.47s-15.6-3.37-16.94,8.5,15.71,13.11,15.71,13.11,11.91-.54,11.54-11S1277.51,640.47,1277.51,640.47Z" transform="translate(1 1.78)"/><path class="cls-4" d="M1268.41,676.61s-13.64-8.28-18.79,2.51,10.58,17.51,10.58,17.51,11.44,3.38,14.51-6.65S1268.41,676.61,1268.41,676.61Z" transform="translate(1 1.78)"/><circle class="cls-5" cx="1211.44" cy="648.54" r="4.5"/><circle class="cls-6" cx="1211.44" cy="648.54" r="3.06"/><circle class="cls-7" cx="1211.44" cy="648.54" r="2.53"/></g><g id="Layer_12" data-name="Layer 12"><rect class="cls-8" x="186.15" y="610.87" width="29.1" height="35.17" rx="3.31" ry="3.31" transform="translate(-384.6 327.77) rotate(-45)"/><rect class="cls-9" x="165.77" y="601.38" width="29.1" height="13.39" rx="1.62" ry="1.62" transform="translate(-428.04 433.93) rotate(-57.38)"/><circle class="cls-10" cx="180.7" cy="625.09" r="1.46"/></g><g id="Layer_13" data-name="Layer 13"><path class="cls-11" d="M1231.91,545.9s.17-5.61.17-7.22-3-76.14-3-76.14-2.15-13.18,17-25.29c0,0,3.23-5.11,2.69-9.15s-3.23-6.45,2.15-31.2c0,0,3.23-11.57,1.62-13.72a3,3,0,0,1,.45-4s-2.07-2.15-1.8-3.76,1.8-21.8,1.8-21.8,14.35-3.76,26.45,0l1.88,10.23v11.3s-1.61,2.69-1.07,3.49,1.75,1.83.37,4.37c-.75,1.38,4.74,24.42,4.74,24.42a51,51,0,0,1,0,18.29c-1.88,9.42,9.15,16.15,9.15,16.15s12.64,8.34,12.1,21-1.34,80.44-1.34,80.44-2.48,11.84-37.42,11.57S1231.91,545.9,1231.91,545.9Z" transform="translate(1 1.78)"/><path class="cls-2" d="M1229.12,462.54s5.65,3.34,16.15,5.19,3.7-5.75,14.51-5.19,10.8,4.89,18.21,2.73a78.41,78.41,0,0,1,22.85-2.76c5.76.3,5.57,6.77,5.57,6.77l-1.15,74s-1.34,11-32.83,11.57-38.13-5.77-40.52-8.92l.7-3.77Z" transform="translate(1 1.78)"/><path class="cls-2" d="M1253,353.58l-1.8,21.8c9.44,2.51,19.28,3.28,30.13-.27v-11.3l-1.88-10.23S1266.22,349.35,1253,353.58Z" transform="translate(1 1.78)"/></g><g id="Layer_14" data-name="Layer 14"><polygon class="cls-12" points="3860.98 712.08 3315.78 605.82 3352.48 580.65 2593.13 445.38 1940.99 594.63 1940.99 1081.78 3860.98 1081.78 3860.98 712.08"/><line class="cls-13" x1="2593.03" y1="445.38" x2="2593.03" y2="1.78"/><polygon class="cls-12" points="1940.99 977.74 2900.99 564.91 2621.79 507.94 1940.99 698.1 1940.99 977.74"/><polyline class="cls-12" points="1940.99 995.09 2900.99 585.58 2919.13 578.6 2900.99 564.91"/><polyline class="cls-12" points="2877.86 595.45 2877.86 1081.78 1940.99 1081.78"/><polygon class="cls-12" points="2008.87 579.1 2008.87 147.8 2235.24 121.27 2228.35 528.86 2008.87 579.1"/><polygon class="cls-12" points="2886.26 55.97 3149.53 100.86 3131.16 290.66 2877.86 239.64 2886.26 55.97"/></g></svg>