<svg id="Layer_1" data-name="Layer 1" xmlns="http://www.w3.org/2000/svg" viewBox="0 0 35.9 26.42"><defs><style>.cls-1{fill:none;stroke:#000;stroke-miterlimit:10;stroke-width:0.52px;}</style></defs><title>boot</title><g id="I83JIL.tif"><path class="cls-1" d="M237.68,155.87l1.13.08a31.47,31.47,0,0,1,4.43.51c1.37.27,2.74.57,4.1.9a8.6,8.6,0,0,1,2.34.88l1.1.59v.07l-1,.21-3.17.56-1.89.31a1.84,1.84,0,0,1-1.15-.17,10.77,10.77,0,0,0-3.53-.92,22.88,22.88,0,0,0-4.22,0,8.62,8.62,0,0,0-1.94.42l-1.11.36a2.4,2.4,0,0,1-1.13,0l-4.8-.6-1.41-.18-.3-.09a.1.1,0,0,1,0-.07s0,0,.05,0c.47-.25.93-.51,1.4-.74a12.74,12.74,0,0,1,2.88-1c1.28-.27,2.56-.51,3.84-.73.75-.12,1.51-.19,2.26-.28l.21,0Z" transform="translate(-221.02 -155.61)"/><path class="cls-1" d="M248.37,180.37a13.06,13.06,0,0,1-2.16.67l-2.83.52a16.75,16.75,0,0,1-3,.2c-1.19,0-2.38,0-3.56,0-1.4,0-2.79-.16-4.18-.28a21.1,21.1,0,0,1-2.37-.33c-.67-.12-1.33-.31-2-.48s-1.13-.3-1.7-.43a2.81,2.81,0,0,1-.76-.46l-.2-.16c.23,0,.42-.09.61-.11l2.75-.25,3.55-.35a3.62,3.62,0,0,1,1.39.13c.14,0,.28.14.42.18a4.68,4.68,0,0,0,.8.2,22,22,0,0,0,3.34.15,9.51,9.51,0,0,0,2.65-.35,2.82,2.82,0,0,1,1.47.05c.52.12,1.05.22,1.57.31l3,.52c.36.06.71.14,1.07.21Z" transform="translate(-221.02 -155.61)"/><path class="cls-1" d="M246.38,169.9a2.46,2.46,0,0,1,.16-.24c.19-.21.4-.42.58-.64a1.26,1.26,0,0,0,.14-.33c.33,0,.69,0,1.05,0,1.07.06,2.14.12,3.21.2.77.06,1.53.16,2.3.23.35,0,.7,0,1.06.08a1.24,1.24,0,0,1,.36.11.18.18,0,0,1,0,.12c-.16.1-.13.3-.22.43s-.15.19-.21.29l-.14.22a2.12,2.12,0,0,1-.28.43.77.77,0,0,1-.42.16,4.87,4.87,0,0,1-1,0c-1.88-.29-3.75-.6-5.62-.9l-.62-.07A2.45,2.45,0,0,1,246.38,169.9Z" transform="translate(-221.02 -155.61)"/><path class="cls-1" d="M222.59,166.93l1.63-.08,5.66-.28h.29a1.22,1.22,0,0,1,1,.32c.32.26.66.5,1,.75a.6.6,0,0,1,.07.14l-1.36.15-3.75.38-2.69.28c-.26,0-.4-.13-.56-.26s-.45-.44-.68-.66-.36-.33-.53-.51S222.6,167,222.59,166.93Z" transform="translate(-221.02 -155.61)"/><path class="cls-1" d="M225.4,169.47l1.23-.17,3.94-.53c.81-.11,1.63-.23,2.45-.32a.9.9,0,0,1,.41.17c.5.29,1,.59,1.47.89a.68.68,0,0,1,.12.12c-.05,0-.1.08-.15.08l-5.51.94-1.44.26a.53.53,0,0,1-.44-.09c-.59-.39-1.19-.76-1.79-1.14Z" transform="translate(-221.02 -155.61)"/><path class="cls-1" d="M229.44,164.5a7.43,7.43,0,0,0,.16.77,1.84,1.84,0,0,0,.27.37s0,.09.08.14a.84.84,0,0,1-.14.06l-1.36.1c-2.15.12-4.3.2-6.45.17a2.42,2.42,0,0,0-.27,0l-.24-1.7Z" transform="translate(-221.02 -155.61)"/><path class="cls-1" d="M252.38,174.83c-.1.22-.08.46-.24.64a.19.19,0,0,0,0,.1,2.53,2.53,0,0,1-.14.49.44.44,0,0,1-.43.24l-1.29-.05-3.23-.16-2.56-.14a1.26,1.26,0,0,1-.28,0,.17.17,0,0,1-.1-.26.86.86,0,0,0,.07-.21c0-.1,0-.21.11-.26a.07.07,0,0,0,0-.06c0-.17.07-.34.12-.51a.12.12,0,0,1,.1-.08,2,2,0,0,1,.35,0l4.61.18,2.64.1A2.18,2.18,0,0,1,252.38,174.83Z" transform="translate(-221.02 -155.61)"/><path class="cls-1" d="M226.93,163.79l-3.71-.21-1.38,0a1.35,1.35,0,0,1-.4-.08.19.19,0,0,1-.13-.3s.07-.07.06-.1c0-.2.14-.28.21-.42a1.14,1.14,0,0,1,.33-.42,1.07,1.07,0,0,1,.54-.23c.47,0,.93,0,1.4,0,.68,0,1.35.12,2,.16l3.63.22c.07,0,.21,0,.21.06s0,.3,0,.36-.11.25-.1.37c0,.36-.15.45-.43.47-.52,0-1,0-1.56.06h-.67Z" transform="translate(-221.02 -155.61)"/><path class="cls-1" d="M255.77,168l.11.09s0,0-.06,0c-.63,0-1.26,0-1.88,0-1.31,0-2.61-.11-3.92-.15a8.18,8.18,0,0,1-1.48-.1c-.29-.06-.36-.11-.37-.4s0-.37,0-.55.17-.25.34-.26.61,0,.92,0c1.54,0,3.09,0,4.63,0,.55,0,1.08,0,1.63,0a4.39,4.39,0,0,1,.72.07.23.23,0,0,1,.19.36,5.91,5.91,0,0,1-.45.66A2.8,2.8,0,0,1,255.77,168Z" transform="translate(-221.02 -155.61)"/><path class="cls-1" d="M222.72,161l.51-.63a7.15,7.15,0,0,0,.53-.57.64.64,0,0,1,.59-.24l2.52.22c.94.1,1.87.22,2.81.34l1.56.22.2.06a3.48,3.48,0,0,0-.4.31c-.13.13-.22.29-.35.41a.57.57,0,0,0-.15.26.37.37,0,0,1-.25.12,5.77,5.77,0,0,1-.72,0c-1.38-.09-2.77-.15-4.15-.28q-1.21-.12-2.43-.15A1.05,1.05,0,0,1,222.72,161Z" transform="translate(-221.02 -155.61)"/><path class="cls-1" d="M225.89,175.21A1.92,1.92,0,0,1,226,175c.15-.13.32-.24.47-.38s.15-.24.26-.32.31-.17.45-.27a.67.67,0,0,0,.2-.21.24.24,0,0,1,.25-.14l2.46.12,2.22.06c.47,0,.93.07,1.4.11a1.72,1.72,0,0,1,.28.08c0,.17.09.37-.12.49,0,0,0,.07,0,.1a2.16,2.16,0,0,1-.21.55c-.1.22-.25.18-.4.18l-7-.11-.28,0Z" transform="translate(-221.02 -155.61)"/><path class="cls-1" d="M247.73,162.88a1.15,1.15,0,0,1,.6-.19c.56-.08,1.11-.19,1.68-.24.81-.07,1.63-.09,2.45-.13a1.39,1.39,0,0,0,.53-.1,1.24,1.24,0,0,1,.51-.07c.45,0,.89,0,1.33,0a.6.6,0,0,1,.57.35c.06.1.13.2.19.31l.18.36s0,.07,0,.1.13.18-.06.24a2.78,2.78,0,0,1-.63.11l-4.56.23a5.1,5.1,0,0,0-1.11.11,2.53,2.53,0,0,1-1.09.05.34.34,0,0,1-.26-.31,4,4,0,0,0-.12-.58C247.93,163,247.82,163,247.73,162.88Z" transform="translate(-221.02 -155.61)"/><path class="cls-1" d="M245.38,160.72c.1,0,.2-.05.3-.06l3.93-.6c.61-.09,1.21-.2,1.82-.3a1.19,1.19,0,0,1,.91.23l1,.79.37.27a1.54,1.54,0,0,1-.36.14c-.78.11-1.56.2-2.34.3s-1.32.2-2,.25a8.19,8.19,0,0,0-1.3.21,1.63,1.63,0,0,1-.49,0,.59.59,0,0,1-.4-.18,10.06,10.06,0,0,0-.94-.76,3.63,3.63,0,0,0-.52-.27Z" transform="translate(-221.02 -155.61)"/><path class="cls-1" d="M248.57,164.76c.35,0,.68-.08,1-.1,1-.07,2.11-.15,3.17-.2.49,0,1,0,1.47,0s.7-.09,1.05-.1a4.58,4.58,0,0,1,.83.09.31.31,0,0,1,.27.31.68.68,0,0,0,.1.36.61.61,0,0,1,0,.51c-.05.11-.27.17-.42.19a6.78,6.78,0,0,1-.9,0l-4,0h-2c-.61,0-.61,0-.61-.61Z" transform="translate(-221.02 -155.61)"/><path class="cls-1" d="M246.47,164.18c.05.38.09.72.13,1,0,.17,0,.24-.2.23a5.43,5.43,0,0,1-1-.07c-1.63-.31-3.25-.63-4.88-1l-.43-.11c-.15,0-.2-.15-.22-.3a5.29,5.29,0,0,0-.13-.54s-.07,0-.12-.1a1.93,1.93,0,0,1,1-.06c.43.08.86.14,1.29.21l3.76.57C245.93,164.14,246.2,164.16,246.47,164.18Z" transform="translate(-221.02 -155.61)"/><path class="cls-1" d="M251.74,177a.58.58,0,0,1-.21.51c-.09.07-.14.19-.23.25a1.5,1.5,0,0,1-1,.19c-.73,0-1.46-.08-2.19-.13l-3.67-.28-.78-.07a.27.27,0,0,1-.23-.38.25.25,0,0,0,0-.12c0-.3.2-.43.44-.46a2.78,2.78,0,0,1,.5,0c.76.06,1.52.13,2.28.18l4.61.26A4.35,4.35,0,0,1,251.74,177Z" transform="translate(-221.02 -155.61)"/><path class="cls-1" d="M228.79,177h-3.72c-.11,0-.16-.09-.12-.19a2.37,2.37,0,0,1,.19-.35,2.54,2.54,0,0,1,.16-.28.37.37,0,0,1,.19-.14,5.51,5.51,0,0,1,.9-.1c1.32,0,2.63.06,3.94.1l2.37.1h.18c.37.05.46.16.36.51a.55.55,0,0,1-.51.33,10.73,10.73,0,0,1-1.13.08h-2.81Z" transform="translate(-221.02 -155.61)"/><path class="cls-1" d="M246.43,167.42a5.54,5.54,0,0,1-1.67-.07c-1-.18-2.06-.39-3.09-.58l-1-.19c-.27-.06-.29-.08-.29-.36s0-.33,0-.5.12-.33.35-.3l3.06.43c.76.11,1.53.24,2.29.37a2.84,2.84,0,0,1,.56.19c.11.05.14.38.07.48S246.54,167.21,246.43,167.42Z" transform="translate(-221.02 -155.61)"/><path class="cls-1" d="M231.63,163.83c.05-.27.11-.5.13-.73a5.23,5.23,0,0,0,0-.56l3.08-.8c.62-.16,1.23-.33,1.85-.48a.54.54,0,0,1,.56.12s.05,0,.05.06.09.35.13.52a.42.42,0,0,0,0,.12.26.26,0,0,1-.17.44l-.88.22-2.3.59-2.08.49A1.64,1.64,0,0,1,231.63,163.83Z" transform="translate(-221.02 -155.61)"/><path class="cls-1" d="M232.79,178.32l-7.8.59a1.63,1.63,0,0,1-.19-.84.5.5,0,0,1,.35-.41,1.1,1.1,0,0,1,.26,0h6.22c.26,0,.53,0,.79,0s.4.14.37.42A2.23,2.23,0,0,0,232.79,178.32Z" transform="translate(-221.02 -155.61)"/><path class="cls-1" d="M231.66,164.92l2.26-.58,2.27-.58,1.14-.28a1.29,1.29,0,0,1,.34,0c.15,0,.26.07.27.27a3.76,3.76,0,0,0,.1.66c0,.17,0,.25-.21.29l-2.65.62c-.73.18-1.46.35-2.2.51a4,4,0,0,1-.5.06c-.26,0-.35-.07-.46-.32a2.7,2.7,0,0,0-.2-.31C231.76,165.15,231.72,165,231.66,164.92Z" transform="translate(-221.02 -155.61)"/><path class="cls-1" d="M243.64,178.06l2.06.17,2.79.24c.61.05,1.21.09,1.82.16a1.25,1.25,0,0,1,.41.14s0,.09,0,.1a8.24,8.24,0,0,1-.82.64,1.59,1.59,0,0,1-1.19.25c-1.25-.25-2.5-.5-3.75-.72-.61-.11-1.23-.16-1.84-.24-.12,0-.23-.06-.35-.09s-.18-.08-.11-.22.2-.43.51-.41A3.86,3.86,0,0,0,243.64,178.06Z" transform="translate(-221.02 -155.61)"/><path class="cls-1" d="M239.5,162.35c-.05-.29-.09-.59-.14-.88a1.15,1.15,0,0,0-.12-.25l0-.07c.29,0,.58,0,.87.07l3.05.46c.25,0,.51,0,.76,0a1.92,1.92,0,0,1,.4.09,5.35,5.35,0,0,1,1.13.67c.06,0,.24.16.07.31s0,.09,0,.15l.29.09s.06,0,.1.08-.06.1-.1.1a1.44,1.44,0,0,1-.46,0q-1-.13-2.07-.3l-3.65-.56Z" transform="translate(-221.02 -155.61)"/><path class="cls-1" d="M233.25,166.69l2-.52c.83-.21,1.66-.43,2.49-.62a1.37,1.37,0,0,1,.57,0,.41.41,0,0,1,.32.4c0,.15,0,.31,0,.45s-.06.2-.17.22c-1.12.3-2.24.59-3.37.87a4.31,4.31,0,0,1-.62.15c-.29.05-.57.1-.77-.22s-.32-.3-.45-.47S233.26,166.78,233.25,166.69Z" transform="translate(-221.02 -155.61)"/><path class="cls-1" d="M244.7,169.5l-1.12-.22-2.64-.6c-.15,0-.22-.1-.21-.26a3.85,3.85,0,0,0,0-.59c0-.18.07-.27.23-.25a9.31,9.31,0,0,1,1.06.14c1,.2,2,.43,2.94.64l.49.1c.18,0,.2.12.1.28a5.29,5.29,0,0,1-.29.52A.58.58,0,0,1,244.7,169.5Z" transform="translate(-221.02 -155.61)"/><path class="cls-1" d="M238.84,167.68l.3.95-1.25.34c-.34.08-.67.15-1,.26a.65.65,0,0,1-.56-.08c-.4-.22-.79-.45-1.18-.69,0,0-.05-.08-.08-.15l2.18-.41c.28-.05.56-.12.84-.16A6.86,6.86,0,0,1,238.84,167.68Z" transform="translate(-221.02 -155.61)"/><path class="cls-1" d="M233.24,161.24h-.07l-.27-.08a1,1,0,0,1,.12-.25,4.25,4.25,0,0,1,2.39-1.23c.35-.06.7-.1,1.06-.13a.41.41,0,0,1,.4.17c0,.05.12.08.17.13s.13.14.11.17a.32.32,0,0,1-.19.19c-.49.13-1,.22-1.48.36s-.91.31-1.37.46c-.28.09-.57.16-.86.24Z" transform="translate(-221.02 -155.61)"/><path class="cls-1" d="M238.89,160.17c0-.22,0-.43,0-.63,0,0,.08-.11.12-.11a3,3,0,0,1,.73,0c.73.18,1.46.37,2.18.61a8,8,0,0,1,1.09.55,1.53,1.53,0,0,1,.21.14s.06.05.05.07,0,.06-.07.06a4.71,4.71,0,0,1-.53,0c-.83-.17-1.65-.37-2.49-.53C239.78,160.24,239.34,160.22,238.89,160.17Z" transform="translate(-221.02 -155.61)"/><path class="cls-1" d="M237.6,176a3.68,3.68,0,0,1-.47,0c-.5-.08-1-.15-1.49-.26a1.27,1.27,0,0,1-.52-.31.36.36,0,0,1,0-.32.87.87,0,0,1,.64-.36,2.05,2.05,0,0,1,1,.13l.93.28a.28.28,0,0,1,.13.4,2.56,2.56,0,0,1-.2.26s0,.09,0,.13Z" transform="translate(-221.02 -155.61)"/><path class="cls-1" d="M242.43,175.87l-1,.17a4.77,4.77,0,0,1-1.36.08c-.32,0-.4-.23-.23-.51a.87.87,0,0,0,0-.27c.14,0,.31-.06.47-.07a9.49,9.49,0,0,0,1.59-.21.6.6,0,0,1,.23,0c.08,0,.2.05.22.1a.35.35,0,0,1,0,.26A.39.39,0,0,0,242.43,175.87Z" transform="translate(-221.02 -155.61)"/><path class="cls-1" d="M235.41,176.47a2.64,2.64,0,0,1,1.07.27c.16,0,.31.13.46.19s.14.21.1.31a.33.33,0,0,1-.24.16,2.35,2.35,0,0,1-.59,0c-.46-.08-.93-.18-1.39-.28a.9.9,0,0,1-.31-.18s0-.11,0-.13A1.05,1.05,0,0,1,235.41,176.47Z" transform="translate(-221.02 -155.61)"/><path class="cls-1" d="M240.87,178.12a1,1,0,0,1-.11.17c-.1.12-.21.23-.31.34a1,1,0,0,1-.66.34,6.91,6.91,0,0,1-.9.11c-.24,0-.28-.11-.16-.32a.08.08,0,0,0,0,0c0-.29.2-.31.38-.36.45-.11.9-.2,1.35-.29a2.16,2.16,0,0,1,.36,0Z" transform="translate(-221.02 -155.61)"/><path class="cls-1" d="M234.28,178.16a.79.79,0,0,1,.81-.21c.32.06.64.12.95.21s.28.11.28.38,0,.37-.2.38a1.34,1.34,0,0,1-.53,0,7.67,7.67,0,0,1-1.06-.45C234.42,178.39,234.36,178.26,234.28,178.16Z" transform="translate(-221.02 -155.61)"/><path class="cls-1" d="M241.59,176.82v.46c-.35.05-.7.12-1.05.16s-.64.05-1,.07a.67.67,0,0,1-.28,0,.18.18,0,0,1-.13-.27c.07-.1.13-.22.3-.23.54,0,1.08-.13,1.62-.18C241.24,176.79,241.41,176.82,241.59,176.82Z" transform="translate(-221.02 -155.61)"/></g></svg>