<svg id="Layer_1" data-name="Layer 1" xmlns="http://www.w3.org/2000/svg" viewBox="0 0 94.61 82.76"><defs><style>.cls-1{fill:none;stroke:#000;stroke-miterlimit:10;stroke-width:0.5px;}</style></defs><title>gun</title><path class="cls-1" d="M208.53,130.85,240.48,140s6,3.14,10.21,2.88,33,8.38,33,8.38,5.54.6,5.22,5.72l-.86,3.41a70.13,70.13,0,0,0,2.24,8.85c1,2.24-1.06,5.54-1.06,5.54l-11.3,2.35,2,16.62s.54,11.62-4.79,17.48a15.85,15.85,0,0,1-8.74,1.71c-4.48-.64-17.91-5.22-17.91-5.22s-7.89-6.29-1.39-9.6c0,0,.64-.42.75-2s3-19.4,3-19.4a3.27,3.27,0,0,0-1.81-3.41c-2.24-1.17-25.79-8.53-25.79-8.53a5.51,5.51,0,0,1-.86-4.8c.86-2.66,1.6-5.22.64-6.28s-22.49-6.83-22.49-6.83-.42-3.19,1-4.79A38.79,38.79,0,0,0,204.8,137Z" transform="translate(-200.22 -130.56)"/><path class="cls-1" d="M288.52,162.72c-.51-2.24-5-3.62-5-3.62L267.76,155l-18.07-4.79c-3.35.27-8.23-2.35-8.23-2.35l-21.77-5.78c-2-2.44-6.87-1.81-6.87-1.81l-2.89-.81s.72.45.9-1.45-6-1.08-6-1.08" transform="translate(-200.22 -130.56)"/><path class="cls-1" d="M222.15,161.37s-1,5.32,1.51,7.4S238.93,175,238.93,175s5.38-.18,6.58.55,3.09-.28,4.9,3.88" transform="translate(-200.22 -130.56)"/><path class="cls-1" d="M230.39,154s-5.78,2-6.15,4.43-.26,3.93,1.54,5.33S241.87,169,241.87,169s5.42,2.17,8.13-1.62,1.44-4.16,1.44-4.16a4,4,0,0,0-.24-3.34C250.27,158,230.39,154,230.39,154Z" transform="translate(-200.22 -130.56)"/><path class="cls-1" d="M232.48,166.31s10.32-.88,9.2-9.77" transform="translate(-200.22 -130.56)"/><path class="cls-1" d="M236.18,167.42s4.69-1.57,6.52-3.48,4.17-.52,5.47-1.65,3-2.4,3-2.4" transform="translate(-200.22 -130.56)"/><path class="cls-1" d="M250.72,166.31l-.72,1.08a5.52,5.52,0,0,1,4.76,4.57c.73,4.19-2.38,22.55-2.38,22.55a5.2,5.2,0,0,0-4.52,1.61" transform="translate(-200.22 -130.56)"/><path class="cls-1" d="M276.77,209c-.09-5.23-7.48-7.44-7.69-8.17s-11.31-3.73-12.14-3.94-3.53-.21-3.53-.78,2.7-24.33,2.6-25.72a7.85,7.85,0,0,0-1.14-3s1.35-.09,1.45-2.07a2.76,2.76,0,0,0-1-2.63v-1.3l3.84-1.53s-.1-2.84,1-2.84,3.53.95,3.94-.51a10.4,10.4,0,0,1,.77-2.07" transform="translate(-200.22 -130.56)"/><ellipse class="cls-1" cx="65.75" cy="36.64" rx="2.27" ry="1.85"/><ellipse class="cls-1" cx="63.28" cy="60.67" rx="2.69" ry="1.97"/><path class="cls-1" d="M288.9,157a8.93,8.93,0,0,0,1.64,1.89c.9.72,3.88.48,3.88.48s.72,2-.95,2-5,.58-5,.58" transform="translate(-200.22 -130.56)"/><path class="cls-1" d="M294.42,159.37s.29,3.72,0,3.9-2.77.61-5.3,1.26" transform="translate(-200.22 -130.56)"/></svg>