<svg id="Layer_6" data-name="Layer 6" xmlns="http://www.w3.org/2000/svg" viewBox="0 0 432.5 289.52"><defs><style>.cls-1{fill:#fff;}.cls-2,.cls-4{fill:#1d1d1b;}.cls-3,.cls-4{isolation:isolate;}.cls-4{font-size:15px;font-family:AndaleMono, Andale Mono;}</style></defs><title>note24</title><rect class="cls-1" x="1.9" y="1.66" width="428.6" height="286.3"/><path class="cls-2" d="M431.8,286.3c0,2.1.2,1.4.2,1.7C432,284.4,431.7,286.4,431.8,286.3Z" transform="translate(0 -0.04)"/><polygon class="cls-2" points="431.3 251.36 431.4 251.96 431.2 246.86 431.3 251.36"/><path class="cls-2" d="M431.3,218.8c-.3,3.1.1,11.8-.1,17.6l-.1,1,.3,2.6C431.4,233,431.2,223.8,431.3,218.8Z" transform="translate(0 -0.04)"/><path class="cls-2" d="M432.1,201.5c-.1,1.1-.1-3.8,0,4v-4Z" transform="translate(0 -0.04)"/><path class="cls-2" d="M432.1,204.8C432.1,208.2,432.2,202.5,432.1,204.8Z" transform="translate(0 -0.04)"/><path class="cls-2" d="M432,189l.1,4.5c.1-.9.1-5,.2-3.5C432.2,185.3,432.1,186.3,432,189Z" transform="translate(0 -0.04)"/><path class="cls-2" d="M431.7,184.6v2.3A8.84,8.84,0,0,0,431.7,184.6Z" transform="translate(0 -0.04)"/><path class="cls-2" d="M431.9,192l-.1-5a8.85,8.85,0,0,0,0,2.3C431.7,188.9,431.8,189.8,431.9,192Z" transform="translate(0 -0.04)"/><path class="cls-2" d="M431.8,194.8c-.1,2.5-.1,5.8-.2,1.3C431.6,204.7,431.9,203.4,431.8,194.8Z" transform="translate(0 -0.04)"/><path class="cls-2" d="M430.9,217.2l-.1,3.4.1,2.9C430.9,222,431,217,430.9,217.2Z" transform="translate(0 -0.04)"/><path class="cls-2" d="M432.2,160.8c-.1.6-.2,1.2-.3,1.9l.1,3.3A32.78,32.78,0,0,1,432.2,160.8Z" transform="translate(0 -0.04)"/><path class="cls-2" d="M431.9,162.6l-.1-5C431.7,162.1,431.8,163,431.9,162.6Z" transform="translate(0 -0.04)"/><polygon class="cls-2" points="431.3 183.76 431.6 191.96 431.3 182.16 431.3 183.76"/><polygon class="cls-2" points="432.2 141.66 432.4 144.46 432.1 139.46 432.2 141.66"/><path class="cls-2" d="M432.2,129c.2,2.1.2-2.9.3-.7,0-3.4-.2-6.4-.3-9C432.3,122.2,432.3,125.2,432.2,129Z" transform="translate(0 -0.04)"/><path class="cls-2" d="M432,115c0,1.4.1,2.9.2,4.4A31.68,31.68,0,0,0,432,115Z" transform="translate(0 -0.04)"/><path class="cls-2" d="M431.8,149.1a25.49,25.49,0,0,0,.2-3.9l-.2,2Z" transform="translate(0 -0.04)"/><path class="cls-2" d="M431.8,147.2h0v0Z" transform="translate(0 -0.04)"/><path class="cls-2" d="M431.8,149.6v0Z" transform="translate(0 -0.04)"/><path class="cls-2" d="M431.5,170.7c-.1-2.9-.2-9-.4-3.1C431.2,169.7,431.3,166.3,431.5,170.7Z" transform="translate(0 -0.04)"/><path class="cls-2" d="M431.5,152.1v5.3c.1-.1.1-1.1.2.4Z" transform="translate(0 -0.04)"/><polygon class="cls-2" points="431.5 149.46 431.5 151.96 431.5 150.06 431.5 149.46"/><path class="cls-2" d="M431.9,124c-.1-2.3-.1-4.8-.1-7.6,0,3-.1,6.2-.1,9.2C431.8,126,431.9,127.3,431.9,124Z" transform="translate(0 -0.04)"/><path class="cls-2" d="M431.8,135.3v0Z" transform="translate(0 -0.04)"/><path class="cls-2" d="M431.8,88.5v0Z" transform="translate(0 -0.04)"/><path class="cls-2" d="M431.7,126c0,2.3,0,3.6.1,4.9v-5.5C431.7,125.3,431.6,125.3,431.7,126Z" transform="translate(0 -0.04)"/><path class="cls-2" d="M432,107.1c0,1.2-.1,2.5-.1,4C431.9,110,432,107.6,432,107.1Z" transform="translate(0 -0.04)"/><path class="cls-2" d="M431.9,134v0Z" transform="translate(0 -0.04)"/><path class="cls-2" d="M431.9,134c0-1.2-.1-2.1-.1-3,0,1.4,0,2.7.1,3.8A1.1,1.1,0,0,1,431.9,134Z" transform="translate(0 -0.04)"/><path class="cls-2" d="M430.4,80a89.84,89.84,0,0,1,.2,11.6c.2,5.1.8,1.8,1.2-2.7-.1-.2-.2-.2-.3-5.4-.1,1.8-.2,11.6-.4,7.2-.1-3,0-6.1.2-9.1-.2,2.9-.4-8.8-.7-7.3l.1,6.1C430.5,80.6,430.4,78.4,430.4,80Z" transform="translate(0 -0.04)"/><path class="cls-2" d="M431.7,99v2.2c0-2.5.1-4.2.3-7.5,0-1.5-.1-3.1-.2-4.6V99.7Z" transform="translate(0 -0.04)"/><path class="cls-2" d="M431.7,110.8c-.2-1.7-.3-6.9-.5-3.7,0,6.3.2,4.4.3,8.2-.1-10.2.1,2.9.2-4.5v5.6c0-1.8.1-3.6.1-5.3v.3h0v-.1a4.33,4.33,0,0,0-.1-.5c0-3,.1-.5.1.5v.1h0l-.1-10.2Z" transform="translate(0 -0.04)"/><path class="cls-2" d="M430.6,162.1c0-.3,0-.3.1-.3C430.7,161.2,430.7,161,430.6,162.1Z" transform="translate(0 -0.04)"/><path class="cls-2" d="M430.8,158c0,.8.1,1.4.1,3.8-.1,2.1-.1,0-.2.1.1,1.5.2,5.1.3.5v-.7c.1-4.1.3-9.4.4-8.7A26.33,26.33,0,0,0,430.8,158Z" transform="translate(0 -0.04)"/><path class="cls-2" d="M431.2,134.1l-.1-8.5-.2,4.4.1-.2C431,134.5,431.1,133.5,431.2,134.1Z" transform="translate(0 -0.04)"/><polygon class="cls-2" points="431.9 87.46 432.1 88.56 431.8 83.66 431.9 87.46"/><polygon class="cls-2" points="431.8 76.36 432 76.76 431.9 73.86 431.8 76.36"/><path class="cls-2" d="M3.1,123.3l.1,2.5C3.2,124.6,3.1,123.9,3.1,123.3Z" transform="translate(0 -0.04)"/><path class="cls-2" d="M3.1,105.2l-.1-.4C3.1,105.6,3.1,106,3.1,105.2Z" transform="translate(0 -0.04)"/><path class="cls-2" d="M233.3.4c-3.7-.2-7.7-.5-7.3-.2l1.1.2Z" transform="translate(0 -0.04)"/><path class="cls-2" d="M47,1.7l1.1.1,2.5-.2Z" transform="translate(0 -0.04)"/><path class="cls-2" d="M44.4,2.6l-4.8-.1C40.7,2.5,42.2,2.6,44.4,2.6Z" transform="translate(0 -0.04)"/><path class="cls-2" d="M3.3,222.4l.2,2.9C3.6,220.7,3.5,222.7,3.3,222.4Z" transform="translate(0 -0.04)"/><path class="cls-2" d="M391.9.5c-3.2-.1-5.7-.1-7.8-.1C386.7.5,389.3.6,391.9.5Z" transform="translate(0 -0.04)"/><path class="cls-2" d="M.8,116.2a14.77,14.77,0,0,0,.1,2.1C.9,116.8.9,115.9.8,116.2Z" transform="translate(0 -0.04)"/><path class="cls-2" d="M375,.4h1.7c2.3,0,4.6-.1,7.4,0C381.2.3,378,.2,375,.4Z" transform="translate(0 -0.04)"/><path class="cls-2" d="M295.5,286.7h0Z" transform="translate(0 -0.04)"/><path class="cls-2" d="M400.2,288.9h-4.3A28.46,28.46,0,0,0,400.2,288.9Z" transform="translate(0 -0.04)"/><path class="cls-2" d="M431.9,31.9Z" transform="translate(0 -0.04)"/><path class="cls-2" d="M431,43.3a2.77,2.77,0,0,0-.1-.9A2.77,2.77,0,0,1,431,43.3Z" transform="translate(0 -0.04)"/><path class="cls-2" d="M351.6,1.7h0Z" transform="translate(0 -0.04)"/><path class="cls-2" d="M431.8,35.4c0-.9,0-1.9.1-3C431.9,32.9,431.9,33.8,431.8,35.4Z" transform="translate(0 -0.04)"/><path class="cls-2" d="M431.9,35v2.1C432,37.3,432,37,431.9,35Z" transform="translate(0 -0.04)"/><path class="cls-2" d="M431.9,28.6v0Z" transform="translate(0 -0.04)"/><path class="cls-2" d="M103.1,287.3h.5C106,287.2,104.9,287.2,103.1,287.3Z" transform="translate(0 -0.04)"/><path class="cls-2" d="M172.2,2.7Z" transform="translate(0 -0.04)"/><path class="cls-2" d="M163.7,2.8a78.52,78.52,0,0,1,8.4-.2L169.3,2Z" transform="translate(0 -0.04)"/><path class="cls-2" d="M3.2,166.7l.2-5.9c.3,7.1.2,12.3.5,6.8-.7-.8-.1-23-.8-23.9l.2-3.9v2.4c.3-7.6-.5-5.6-.4-15.4.1-3.4.2-5.8.2-3.5l-.2-7.6c0-2.2.1-1.7.1.5V104.7c-.1-1.7-.3-5.4-.3-7.2.1-3,.1,1.5.2.7l-.2-6.4c.2-2.6.3,2.7.3,7.2.7-6-.2-5.3.2-18.3l.1,6.1c.4-3.9.2-8.6.5-15.5C3.7,72.9,3.2,85,3,78c0-2,.1-4.6-.1-8.3.2,0,.2-3.7.2-8.3l.3.3c-.1-5-.3-4.6-.4-7.5a42.48,42.48,0,0,1,.5-8c0-8.9-.4,6.1-.5-4.4.1-7.4,0-12.5-.2-21.4.1-5.2.2.9.3-.9L2.9,15c0-1.1.1-.8.1-.6,0-3.8-.3-.3-.4-6.4a16.15,16.15,0,0,1,0-2.2V3.9a7.57,7.57,0,0,1,.1-1.5l1,.1,1.5.1,3.5.1c2.3,0,4.7,0,6.8-.1,1.8.1-.9.2-.3.3,10.3-.3,8.8-.2,17.3-.6l7.2.2c-5.4-.3,1.3-.6,7.3-.8l-4.6-.3,9.4-.2c1.1,0,.2.2-1.4.3l1.7-.1c3.4.1,1.6.3-.8.5L48,1.8c-2.3.2-4.5.4-4,.6.6,0,1.8-.1,3.1-.1-.6.1-1,.1-.7.1s1.3,0,2.8-.1l2.1.4.5-.1,12.3.2c8.8-.4,16.5-.9,30.6-1-3.5.3-.7.4-.9.7-3.7-.4-10.8.1-18,0,3.8,0,3,.2,2,.2l13-.3c-.3.3,2.8.2,6.1.3-2.6-.5,9.7-.3,14.9-.5.3.2-.9.3-7.4.3,7.1.4,9.2-.6,16.1-.3-1,0-2,0-3,.1,3.7-.1,12.7,0,10.5.1h-1.6c10.4.1,31.8,0,33.3-.4a6.64,6.64,0,0,1-2,.6l18.6-1.4c-1.6.4,4.7,1.2-4,1.4,2.5.1,5.6.1,10.8,0-1.7,0-4.2-.5-1.9-.6,6.4.4,4.4.2,12.2.6-2.5-.1.3-.6,4.3-.6-.6.1.3.6-1.1.6l10-.6c-2.5.1-.4.5,1.8.6-1-.1,8.6,0,11.3-.1l-4.2-.1c11.3.1,11.2-.8,22.3-.8-1.4.1-3.3.7,2.3.8,2.6-.3,11.6-1.4,21.4-1.6l1.9.2L271,.8c-4.7.4-18,1.4-25.3,1.7,4.2.1,1.2.2,7.5.2,2.2.2-3.4.2-5.3.2l14.7.1c-.7-.3,11.3-.3,10.7-.6l-16,.4c-.7-.3,9.2-1,19.7-.9,2.7.1-2,.6-1.8.7,1.3-.1,9.9-.2,10.8-.1l-4,.3c5.8.1,9.5-.4,16.4-.1,2.4,0,7.2.4,7.6.2-3.9-.4-4.7-1.6-2.1-1.9.8,0,12.6.4,15.4.6,4,.3-6,.7-2.6,1,1.1-.1,2.2-.2,3.2-.2,2.5.1-1.1.3,4.4.2.9-.3,11.2,0,2.6-.3,5.4-.1,5.7.1,12,.1-2-.2,5.7-.8,11-.9-.3.1.9.2,1.5.2l27.2.2c1,.1,5.9.2,3.8.3,1.5-.1,2.8-.2,6-.2,6.1.3-7.1,0-2.4.4.4-.2,8.2-.3,12.7-.4-1.4-.3-10.4-.1-14.9.1,0-.4,7.8-.9,18.6-1.1,8.5-.1,3.7.3,5.2.2,7.1,0,10.6-.1,13.4-.2l4.1-.2,2.4-.1h3.9v5c-.3,5.3-.5.2-.7,1.4V1.5l-5.2-.1c-1.6,0-3.1-.1-4.8-.1l5.8.1c-2.2.1-6.8.2-9.4.1,1,0,2.7.1,5.1.1h8.3V15c0,4.5,0,8.9-.1,12.5.1,2.2.2,6,.3,4.2V27.8c.2-3.6.3,7.4.4,2.4.2,5.2.4,11.1.3,18.5l-.3,1.4a66.85,66.85,0,0,0,.1-6.9c.1,3.1-.4,11.3,0,14.7l.2-5.2c.2,5.3.5,11.8.4,18.3.3-3,0-1.5.3-6.2-.4,4,0-16.8-.4-10.3.4-4.8.2-8.3.5-14.5-.1.2-.2,2.2-.2-3.3,0-.2-.1-.8-.1-1.2v0a15.16,15.16,0,0,1-.2,2.8c-.2-2.7-.2-11.5-.3-14.4,0-3.3.1,1.4.2-.4l-.2-4.4c.2-.4.4-8.7.5-1V11.2c0-1.5.1-3.1.1-4.8V.2h-4.7c-3.3-.1-8.2.2-5.4.1L411.1.4H411c-10.7,0-22,.4-34.3,0-3.6.1-7.3.1-13.4.1L362.1.3c-4.6.1-13.9-.2-15.9,0-5-.5-22.4-.1-30.6-.2l-.3.2c-5.6,0-11,.1-17.9.2l.4.2c-6,.2-15.4-.2-24.9-.1a37.5,37.5,0,0,1,4.8,0c-11.3-.5-23.9.4-34.2,0-2.6.1-4.4,0-6.2,0H237L233.4.5c1.1.1,2.1.1,3,.1-2,0-5,0-7.9.1L227.3.5h-.7c-2.9-.1-2.3.1-.8.3-1.5,0-2.8.1-3.9.1-2.3-.4-7.7.1-10.9-.3-2,.2-14.8.2-16.3.6-.1-.1-1-.1.6-.1-3.3,0-6.5-.1-9.5,0L184.4.8l-7.2.4c-4.3-.2-6.1-.3-1.8-.5-10.3.3-8.4,0-17.2.4l.4-.2c-3.2,0-8.2.3-10.1.1-7.1-.4-35,0-53.2-.4,3.5.6-8.4-.3-9.2.2C85,.7,82.5.6,85.4.5,76.1.6,71.5.3,65.1.7c-1.1-.1,2-.2,1-.3-.7,0-3,.1-3.9,0S63.6.3,65,.2C55.6.2,54.6.6,54,1a76.43,76.43,0,0,0-10.7.1C41.6,1,38.8.8,44.7.8,41.4.8,24.5.6,24.1.9c-1-.1-4.6,0-5.5,0H5.3c-.5.1-1,.1-1.6.2s-1.3,0-2.1.1V10c-.3,13.5.1,5.8-.2,19.1l.2-.7c.5,1.2-.3,11.8-.1,19.5l.1-2.8c.2,4.2-.7,11.8-.8,16a25.28,25.28,0,0,1-.1-2.8c-.3,11.1.3,1.4.4,9.7-.2,1.5-.4-2-.5,3.6,0,2.8.7,16.2.4,23.8.1-1.7.3-3.3.4.5.1,5.9-.5,15.9-.1,21.2a4.1,4.1,0,0,1-.1,1.1c.1,4.5.2,14.6.4,17.3-.8,4.2.4,28-.4,27.9v13.8l-.1-.4c-.1,8.8.1,12,.3,15.1-.1,2-.1.6-.2.4-.2,12.9-.1,14.2.3,25l-.2,1.1c.2,2.9-.4,18.7-.1,31.4a6.6,6.6,0,0,1-.1-1.4c.2,7.1,0,15.7-.1,23.1,0,3.7-.1,7.1,0,9.9,0,1.4,0,2.7.1,3.7,0,.7.1,1.3.1,1.8a7.77,7.77,0,0,0,.2,1.6v.1l10.2-.2c-12.2-.1,1.8-.4-3.2-.5,4.8,0,12.4.3,6.5.3H14c-2.2.5,15.1.2,14.8.5,23.9,0,47.3.2,69.7.3l-2.6-.4h7.8c2,.1,2.8.3-2.8.3a55.87,55.87,0,0,0,5.8,0l3.7-.2c10.9.1-4.3.4-.9.4h3.6c3.7-.1,4-.3,10.7-.3,4.2.1,2.2.2,3.8.2H140l-4-.3c4.4-.1,9.3,0,4.7-.3,6.7.5,36.8.2,40.9.3,6.1-.2,12.2-.2,19.6-.2-1.9-.1-3-.4,3.5-.3-2.4.7,11.8.3,17,.8-4.7-.3,18.3-.1,11-.5,5.4,0,.3.2,4.4.4,12.8-.2,28.2.2,44.1.1.2-.1-2.4-.2,1-.4l8.4.4c3.1,0,2.9-.5,8.6-.2-.8-.1-2-.2.1-.2,31,.4,63.4-.4,94.9.5-4.3-.2-1.4-.2,1.8-.2-2.1,0,0-.2-.4-.3l13.2.3c2.4-.3,14.1,0,15.5-.3l-4.2.1c5.6-.4-7.8-.8-7-1.3-6.2.4-16.4-.6-26.6,0-2.2-.1,1.9-.1.7-.3-2.6.2-5.7.2-11.5.2h.7c-16.3,0-23.2-.1-41.5-.3l1.3.2c-3.9,0-4.8-.1-6.6-.2-4.5.4,11,0,6.9.4-5.2-.5-27.7,0-31.2-.5-6,0,1.8.3-4.3.3l-1.6-.1-1.5.2a31.2,31.2,0,0,1-6.1-.3h3.8c-5.1-.2-14.5.1-16.2,0l5.8.1c-16.5.1-36.6-.1-52.6.2l1.2.1c-12.2.2-9.8-.1-23.1,0h.5c-2.7.1-6.2.2-9.9.1,3.4-.1-6.3-.2-1.9-.4-13.2.2-6.5.2-15.2.6l-2-.2c-3,.2-3.2.2-9.9.3,5.5-.2-4.2-.3,1.9-.5-14-.4-20.8.4-27.2-.2-6.4.5,12.1.3,8.5.4,3,.2-5.3.4-9.7.3s-7.6-.6-18.8-.6h2.3c-4.2-.1-8.2.2-13.4,0-2.9.3-6.7,0-7.5.4l10.3-.1c-5.8.1-11.3.6-21,.4.8-.1,3.6-.2,5.6-.2-2.8-.1-5.4.1-8.3,0,.8-.4,12.5-.1,18.8-.4-3-.2-11.9.3-8.7-.1-4.5.5-11.1-.1-18.7.4l.5-.2c-1.2,0-3.7.1-5.9.1l4-.3c-6.2.3-11.9-.2-17.8-.1,12.4,0,2.8.3,8,.5-15.3.3-8.8-.6-25.9-.5,2.3,0,8.7.1,5.1.2-3.2,0-7.6-.1-9.6-.3-11.3,0,1.7.2-3.1.4-3.8-.3-5.6.1-10.5.2v-.2c-12.9-.2-3.4.5-15.1.3l4.9-.3-6.1.1,1.2-.3c-3.1.1-5.2.1-7.2.1H3.1v-.4c-.1.3-.2.4-.3-.2a3.87,3.87,0,0,0-.1-.9,5.63,5.63,0,0,1,0-1.3v-3.6c.1-3.9.2,2.2.2-5.9a45.56,45.56,0,0,1,.1,7.4,16.35,16.35,0,0,1,.2,2.2c.2-4.2,0-10.6,0-13.5a30.14,30.14,0,0,1-.1,3.2l-.3-11.8c.1-1.9.2-.4.2,1.1,0-2.4-.1-4-.2-7.5.2.9.4.7.5,5.6l-.2-11.2c.1-.7.2-5.7.3-4.3.1-6.2-.4-15.2-.2-23.5,0-.4-.1-1.3-.1-3,0-7.7.3-14.6,0-23.8l.3-5.2c-.1-7.2-.4,7-.6-4.9-.1-8.5.3-3.2.4-6.1-.2-4.2-.5-11.5-.2-19.3A61.21,61.21,0,0,1,3.2,166.7ZM3,78.2c0,1.7.2,5.1.1,6.4A45.58,45.58,0,0,1,3,78.2Zm57-76c-1.3.1-3.2,0-5.5,0a50.37,50.37,0,0,1,5.5,0ZM431.7,6.1V6c.1-3.9.1-2.5,0,.1Zm-.1,8c0,.8.1.7.1.4a30.2,30.2,0,0,1,0-4.4c-.1,1.4-.1,2.7-.1,4ZM128.2,289l-1.6-.1C130.1,288.8,129.1,288.8,128.2,289Z" transform="translate(0 -0.04)"/><path class="cls-2" d="M44.8,2.5c-.2,0-.5-.1-.7-.1C43.3,2.4,43.3,2.5,44.8,2.5Z" transform="translate(0 -0.04)"/><path class="cls-2" d="M3.3,221.8v0Z" transform="translate(0 -0.04)"/><path class="cls-2" d="M319.8,2.7c-1.6,0-2.6-.1-3.2-.1C317.7,2.7,318.8,2.7,319.8,2.7Z" transform="translate(0 -0.04)"/><path class="cls-2" d="M432,56.2l-.1-5.1c0,2.5,0,3.3-.1,4.6C432,55.6,432,54.6,432,56.2Z" transform="translate(0 -0.04)"/><path class="cls-2" d="M430.6,100.4v2.3l.1-.2C430.7,99.3,430.6,97.1,430.6,100.4Z" transform="translate(0 -0.04)"/><path class="cls-2" d="M431.2,61a62.93,62.93,0,0,0-.1,7.2v-.6C431.4,68.5,431.3,64.7,431.2,61Z" transform="translate(0 -0.04)"/><path class="cls-2" d="M431.2,68.9v3.3A18.19,18.19,0,0,0,431.2,68.9Z" transform="translate(0 -0.04)"/><path class="cls-2" d="M431.8,24.2c0,1.7.3,1.1.2,2C432.2,28.1,431.6,14.9,431.8,24.2Z" transform="translate(0 -0.04)"/><polygon class="cls-2" points="430.6 63.76 430.8 62.46 430.6 60.46 430.6 63.76"/><path class="cls-2" d="M430.8,35.6l-.1,5.7a7.57,7.57,0,0,1,.1,1.5Z" transform="translate(0 -0.04)"/><path class="cls-2" d="M430.8,42.9v0Z" transform="translate(0 -0.04)"/><polygon class="cls-2" points="430.5 55.96 430.5 54.26 430.6 50.26 430.5 55.96"/><path class="cls-2" d="M403.3,1.4l-6.2.1c-.6.1,1.1.1,3.4.1C401.9,1.6,404.2,1.5,403.3,1.4Z" transform="translate(0 -0.04)"/><path class="cls-2" d="M422.1,2.1a14.68,14.68,0,0,1-2.7-.2l-.2.3Z" transform="translate(0 -0.04)"/><path class="cls-2" d="M403.9,2.2c-.6.1-9,.2-1.1.2C403.4,2.3,409.7,2.3,403.9,2.2Z" transform="translate(0 -0.04)"/><polygon class="cls-2" points="310.2 1.76 311.8 1.76 311.6 1.26 310.2 1.76"/><path class="cls-2" d="M227.6,3c7.4.1,1.8-.3,8.4-.2,1.7-.1-5.4-.1-3.7-.2C227.9,2.8,225.6,2.7,227.6,3Z" transform="translate(0 -0.04)"/><path class="cls-2" d="M232.4,2.6l2.3-.1C233.4,2.6,232.8,2.6,232.4,2.6Z" transform="translate(0 -0.04)"/><polygon class="cls-2" points="417.5 289.16 422.2 289.26 419.2 289.06 417.5 289.16"/><path class="cls-2" d="M426.6,288.8l1.1.3,2.8-.3C429.5,288.8,427.4,288.9,426.6,288.8Z" transform="translate(0 -0.04)"/><path class="cls-2" d="M3.7,65l-.1-.4a36.93,36.93,0,0,0-.1,4.1Z" transform="translate(0 -0.04)"/><polygon class="cls-2" points="3.4 129.26 3.4 128.16 3.2 130.26 3.4 129.26"/><path class="cls-2" d="M3.8,183.2v-7C3.8,181,3.5,183.8,3.8,183.2Z" transform="translate(0 -0.04)"/><path class="cls-2" d="M.7,3.3C.7,1.2.5,1.9.5,1.6.5,5.2.8,3.3.7,3.3Z" transform="translate(0 -0.04)"/><polygon class="cls-2" points="1.2 38.16 1.1 37.56 1.3 42.66 1.2 38.16"/><path class="cls-2" d="M1.2,70.8c.3-3.1-.1-11.8.1-17.6l.1-1L1,49.5C1.1,56.6,1.3,65.8,1.2,70.8Z" transform="translate(0 -0.04)"/><path class="cls-2" d="M.4,88.1C.5,87,.5,91.9.4,84v4.1Z" transform="translate(0 -0.04)"/><path class="cls-2" d="M.4,84.8C.4,81.4.3,87.1.4,84.8Z" transform="translate(0 -0.04)"/><path class="cls-2" d="M.5,100.7.4,96.2c-.1,1-.1,5-.2,3.5C.3,104.3.4,103.3.5,100.7Z" transform="translate(0 -0.04)"/><path class="cls-2" d="M.8,105v-2.3A8.84,8.84,0,0,0,.8,105Z" transform="translate(0 -0.04)"/><path class="cls-2" d="M.6,97.7l.1,5a8.85,8.85,0,0,0,0-2.3C.8,100.7.7,99.8.6,97.7Z" transform="translate(0 -0.04)"/><path class="cls-2" d="M.7,94.8c.1-2.5.1-5.8.2-1.3C.8,85,.6,86.2.7,94.8Z" transform="translate(0 -0.04)"/><path class="cls-2" d="M1.6,72.4,1.7,69l-.1-2.9C1.6,67.6,1.4,72.6,1.6,72.4Z" transform="translate(0 -0.04)"/><path class="cls-2" d="M.3,128.8c.1-.6.2-1.2.3-1.9l-.1-3.3C.5,125.4.4,128.6.3,128.8Z" transform="translate(0 -0.04)"/><path class="cls-2" d="M.6,127l.1,5C.8,127.5.7,126.7.6,127Z" transform="translate(0 -0.04)"/><polygon class="cls-2" points="1.2 105.76 0.9 97.56 1.2 107.26 1.2 105.76"/><polygon class="cls-2" points="0.3 147.86 0.1 145.06 0.4 150.06 0.3 147.86"/><path class="cls-2" d="M.3,160.6c-.2-2.1-.2,2.9-.3.7,0,3.4.2,6.4.3,9C.2,167.4.2,164.4.3,160.6Z" transform="translate(0 -0.04)"/><path class="cls-2" d="M.4,174.7c-.1-1.4-.1-2.9-.2-4.4C.3,171.7.3,173.2.4,174.7Z" transform="translate(0 -0.04)"/><path class="cls-2" d="M.7,140.5a25.49,25.49,0,0,0-.2,3.9l.2-2Z" transform="translate(0 -0.04)"/><path class="cls-2" d="M.7,142.4h0v0Z" transform="translate(0 -0.04)"/><path class="cls-2" d="M.7,140v0Z" transform="translate(0 -0.04)"/><path class="cls-2" d="M1,118.9c.1,2.9.2,9.1.4,3.1C1.2,119.9,1.2,123.3,1,118.9Z" transform="translate(0 -0.04)"/><path class="cls-2" d="M1,137.6v-5.3c-.1.1-.1,1.1-.2-.4Z" transform="translate(0 -0.04)"/><polygon class="cls-2" points="1 140.06 1 137.46 1 139.46 1 140.06"/><path class="cls-2" d="M.6,165.6c.1,2.3.1,4.8.1,7.6,0-3,.1-6.2.1-9.1C.7,163.7.6,162.3.6,165.6Z" transform="translate(0 -0.04)"/><path class="cls-2" d="M.7,154.3v0Z" transform="translate(0 -0.04)"/><path class="cls-2" d="M.7,201.1v0Z" transform="translate(0 -0.04)"/><path class="cls-2" d="M.8,163.6c0-2.3,0-3.6-.1-5v5.5C.8,164.3.9,164.3.8,163.6Z" transform="translate(0 -0.04)"/><path class="cls-2" d="M.5,182.5c0-1.2.1-2.5.1-4C.6,179.7.5,182,.5,182.5Z" transform="translate(0 -0.04)"/><path class="cls-2" d="M.6,155.6v0Z" transform="translate(0 -0.04)"/><path class="cls-2" d="M.6,155.6c0,1.2.1,2.1.1,3,0-1.4,0-2.7-.1-3.8A1.1,1.1,0,0,1,.6,155.6Z" transform="translate(0 -0.04)"/><path class="cls-2" d="M2.1,209.6A89.84,89.84,0,0,1,1.9,198c-.2-5.1-.8-1.8-1.2,2.7.1.2.2.2.3,5.4.1-1.8.2-11.6.4-7.2.1,3,0,6.1-.2,9.1.2-2.9.4,8.8.7,7.3l-.1-6.1C2,209,2,211.2,2.1,209.6Z" transform="translate(0 -0.04)"/><path class="cls-2" d="M.8,190.7v-2.2c0,2.5-.1,4.2-.3,7.5,0,1.5.1,3.1.2,4.6V190Z" transform="translate(0 -0.04)"/><path class="cls-2" d="M.8,178.8c.2,1.7.3,6.9.5,3.7,0-6.3-.2-4.4-.3-8.2.1,10.2-.1-2.9-.2,4.5v-5.6c0,1.8-.1,3.6-.1,5.3v-.3h0v.1a4.33,4.33,0,0,0,.1.5c0,3-.1.5-.1-.5v-.1h0l.1,10.2Z" transform="translate(0 -0.04)"/><path class="cls-2" d="M1.9,127.5v.3C1.8,128.4,1.8,128.7,1.9,127.5Z" transform="translate(0 -0.04)"/><path class="cls-2" d="M1.7,131.7c0-.8-.1-1.4-.1-3.8.1-2.1.1,0,.2-.1-.1-1.5-.2-5.1-.3-.5v.7c-.1,4.1-.3,9.4-.4,8.7A45.31,45.31,0,0,0,1.7,131.7Z" transform="translate(0 -0.04)"/><path class="cls-2" d="M1.3,155.5l.1,8.5.2-4.3-.1.2C1.5,155.1,1.4,156.1,1.3,155.5Z" transform="translate(0 -0.04)"/><polygon class="cls-2" points="0.6 202.06 0.4 200.86 0.7 205.86 0.6 202.06"/><polygon class="cls-2" points="0.7 213.16 0.5 212.66 0.6 215.66 0.7 213.16"/><path class="cls-2" d="M429.4,166.3l-.1-2.5C429.3,165,429.4,165.7,429.4,166.3Z" transform="translate(0 -0.04)"/><path class="cls-2" d="M429.4,184.4l.1.5C429.4,184,429.4,183.7,429.4,184.4Z" transform="translate(0 -0.04)"/><path class="cls-2" d="M199.2,289.2c3.7.2,7.7.5,7.3.2l-1.1-.2Z" transform="translate(0 -0.04)"/><path class="cls-2" d="M385.5,287.9l-1.1-.1-2.4.2Z" transform="translate(0 -0.04)"/><path class="cls-2" d="M388.1,287l4.8.1C391.8,287.1,390.3,287,388.1,287Z" transform="translate(0 -0.04)"/><path class="cls-2" d="M429.2,67.2l-.2-2.9C428.9,68.9,429,66.9,429.2,67.2Z" transform="translate(0 -0.04)"/><path class="cls-2" d="M40.6,289.1c3.1.1,5.7.1,7.8.1C45.8,289.1,43.2,289,40.6,289.1Z" transform="translate(0 -0.04)"/><path class="cls-2" d="M431.7,173.4a14.77,14.77,0,0,0-.1-2.1C431.6,172.8,431.6,173.7,431.7,173.4Z" transform="translate(0 -0.04)"/><path class="cls-2" d="M57.6,289.2H55.9c-2.3,0-4.6.1-7.4,0C51.3,289.3,54.5,289.4,57.6,289.2Z" transform="translate(0 -0.04)"/><path class="cls-2" d="M137,3h0Z" transform="translate(0 -0.04)"/><path class="cls-2" d="M32.3.7h0Z" transform="translate(0 -0.04)"/><path class="cls-2" d="M.6,257.7Z" transform="translate(0 -0.04)"/><path class="cls-2" d="M1.4,246.3a2.77,2.77,0,0,0,.1.9C1.5,246.9,1.4,246.6,1.4,246.3Z" transform="translate(0 -0.04)"/><path class="cls-2" d="M81,288h.2C80.5,287.9,80.6,287.9,81,288Z" transform="translate(0 -0.04)"/><path class="cls-2" d="M.7,254.2c0,.9,0,1.9-.1,3C.6,256.7.6,255.8.7,254.2Z" transform="translate(0 -0.04)"/><path class="cls-2" d="M.6,254.7v-2.1C.6,252.3.5,252.6.6,254.7Z" transform="translate(0 -0.04)"/><path class="cls-2" d="M.6,261v0Z" transform="translate(0 -0.04)"/><path class="cls-2" d="M329.4,2.3h-.5C326.6,2.4,327.6,2.4,329.4,2.3Z" transform="translate(0 -0.04)"/><path class="cls-2" d="M260.3,287Z" transform="translate(0 -0.04)"/><path class="cls-2" d="M268.8,286.8a78.52,78.52,0,0,1-8.4.2l2.8.6Z" transform="translate(0 -0.04)"/><path class="cls-2" d="M429.3,122.9l-.2,5.9c-.3-7.2-.2-12.3-.5-6.8.7.8.1,23,.8,23.9l-.2,3.9v-2.4c-.3,7.6.5,5.6.4,15.4,0,3.4-.2,5.8-.2,3.5l.2,7.6c0,2.2-.1,1.7-.1-.5v11.5c.1,1.6.3,5.4.3,7.2-.1,3-.1-1.5-.2-.7l.2,6.4c-.2,2.6-.3-2.7-.3-7.1-.7,6,.2,5.3-.2,18.3l-.1-6.1c-.4,3.9-.2,8.6-.5,15.5.1-1.6.6-13.7.8-6.8,0,2-.1,4.5.1,8.3-.2,0-.2,3.7-.2,8.3l-.3-.3c.1,5,.3,4.6.4,7.5a42.48,42.48,0,0,1-.5,8c-.1,8.9.4-6.1.5,4.4-.1,7.4,0,12.5.2,21.4-.1,5.1-.2-.9-.3.9l.3,4.6c0,1.1-.1.8-.1.6.1,3.9.3.3.4,6.4a17.7,17.7,0,0,1,.1,2.3v1.9a7.57,7.57,0,0,1-.1,1.5h-2.5l-3.5-.1c-2.3,0-4.7,0-6.8.1-1.8-.1.9-.2.3-.3-10.3.3-8.8.2-17.3.5l-7.2-.2c5.3.2-1.5.5-7.4.8l4.6.3-9.4.2c-1.1-.1-.2-.2,1.4-.3l-1.7.1c-3.4-.1-1.6-.3.8-.5l3.4.2c2.3-.2,4.5-.4,4-.6-.6,0-1.8.1-3.1.1.6,0,1-.1.7-.1s-1.3,0-2.8.1l-2.1-.4-.5.1-12.3-.2c-8.8.4-16.5.9-30.6,1,3.5-.3.7-.4.9-.7,3.8.3,10.9-.1,18.1-.1-3.8,0-3-.2-2-.2l-13,.3c.3-.2-2.8-.2-6.1-.3,2.6.5-9.7.3-14.9.5-.3-.2.9-.3,7.4-.3-7.1-.4-9.2.6-16.1.3,1,0,2,0,3-.1-3.7.1-12.7,0-10.5-.1h1.7c-10.4-.1-31.8,0-33.3.4a6.64,6.64,0,0,1,2-.6l-18.6,1.4c1.6-.4-4.7-1.2,4-1.4-2.5,0-5.6-.1-10.8,0,1.7,0,4.2.5,1.9.6-6.4-.4-4.4-.2-12.2-.6,2.5.1-.3.6-4.3.6.6-.1-.3-.6,1.1-.6l-10,.6c2.5-.1.4-.5-1.8-.6,1,.1-8.6,0-11.3,0l4.2.1c-11.3-.1-11.2.8-22.3.8,1.4-.1,3.3-.7-2.3-.8-2.6.3-11.6,1.4-21.4,1.6l-1.9-.2-7.6.2c4.7-.4,18-1.3,25.3-1.7-4.2-.1-1.2-.2-7.5-.2-2.2-.1,3.4-.2,5.3-.2l-14.7-.1c.7.3-11.3.3-10.7.6l16-.4c.7.3-9.2,1-19.7.9-2.7-.1,2-.6,1.8-.7-1.3.1-9.9.2-10.8.1l4.4-.2c-5.8-.1-9.5.5-16.4.1-2.4,0-7.2-.4-7.6-.2,3.9.4,4.7,1.6,2.1,1.9-.8,0-12.6-.4-15.4-.6-4-.3,6-.7,2.6-1-1.1.1-2.2.2-3.2.2-2.5-.1,1-.3-4.4-.2-.9.3-11.2,0-2.6.3-5.4.1-5.7-.1-12-.1,2,.2-5.7.8-11,.9.3-.1-.9-.2-1.5-.2L54.7,288c-1-.1-5.9-.2-3.8-.3-1.5.1-2.8.2-6,.2-6.1-.3,7.1,0,2.4-.4-.4.2-8.2.3-12.7.4,1.4.3,10.4.1,15-.1,0,.4-7.8.9-18.6,1-8.5.1-3.7-.3-5.2-.2-7.1,0-10.6.1-13.4.2l-4.1.2H1v-5c.3-5.3.5-.2.7-1.4v5.6l5.2.1c1.6,0,3.1.1,4.8.1L6,288c2.2-.1,6.8-.2,9.4-.1-.9,0-2.7-.1-5.1-.1H1.9V274.4c0-4.5,0-8.9.1-12.5-.1-2.2-.2-6-.3-4.2v3.9c-.2,3.6-.3-7.4-.4-2.4-.1-5.2-.3-11.1-.2-18.5l.3-1.4a66.85,66.85,0,0,0-.1,6.9c-.1-3.1.4-11.3,0-14.7l-.2,5.2c-.2-5.3-.5-11.8-.4-18.3-.3,3,0,1.5-.3,6.2.4-4,0,16.8.4,10.3-.4,4.8-.2,8.3-.5,14.5.1-.2.2-2.2.2,3.3,0,.2.1.8.1,1.2v0a15.16,15.16,0,0,1,.2-2.8c.2,2.7.2,11.5.3,14.4,0,3.3-.1-1.4-.2.4l.2,4.4c-.2.4-.4,8.7-.5,1v6.9c0,1.5-.1,3.1-.1,4.8v6.4H5.3c3.3,0,8.2-.2,5.4-.1l10.8-.1h.1c10.7,0,22-.4,34.3,0,3.6-.1,7.3-.1,13.4-.1l1.2.2c4.6-.1,13.9.2,15.9,0,5,.5,22.4.1,30.6.2l.3-.3c5.6,0,11,0,17.9-.2l-.4-.2c6-.2,15.4.2,24.9.1a37.31,37.31,0,0,1-4.8,0c11.3.5,23.9-.4,34.2,0,2.6-.1,4.4-.1,6.2,0h.4l3.6.1c-1.1,0-2.1-.1-3-.1,2,0,5,0,7.9-.1l1.2.2h.7c2.9.1,2.3-.1.8-.3,1.5,0,2.8-.1,3.9-.1,2.3.4,7.7-.1,10.9.3,2-.2,14.8-.1,16.3-.6.1,0,1,.1-.6.1,3.3,0,6.5.1,9.5,0l1.4.3,7.2-.4c4.3.2,6.1.3,1.8.5,10.4-.4,8.4-.1,17.3-.5l-.4.2c3.2,0,8.2-.3,10.1-.1,7.1.4,35,0,53.2.4-3.5-.6,8.4.3,9.2-.2,1.1.1,3.6.2.7.3,9.3-.1,13.9.2,20.3-.2,1.1.1-2,.2-1,.3.7,0,2.9-.1,3.9,0s-1.4.1-2.8.2c9.5,0,10.4-.5,11.1-.8a76.43,76.43,0,0,0,10.7-.1c1.7.1,4.5.3-1.4.3,3.3,0,20.2.2,20.6-.1,1,.1,4.6,0,5.5,0h15.6l-2.2-.1a8.08,8.08,0,0,1,1.6-.1h2.1v-8.8c.3-13.5-.1-5.8.2-19.1l-.2.7c-.5-1.2.3-11.8.1-19.5l-.1,2.8c-.2-4.2.7-11.8.8-16a24.37,24.37,0,0,1,.1,2.7c.3-11.1-.3-1.4-.4-9.7.2-1.5.4,2,.5-3.6.1-2.8-.6-16.1-.2-23.7-.1,1.7-.3,3.3-.4-.5,0-5.9.5-15.9.1-21.2a4.1,4.1,0,0,1,.1-1.1c-.1-4.5-.2-14.6-.4-17.3.8-4.1-.4-28,.4-27.9V112.3l.1.4c0-8.8-.1-12-.3-15.1,0-2,.1-.5.2-.4.2-12.9.1-14.2-.3-25l.2-1.1c-.1-2.9.4-18.7.1-31.3a6.6,6.6,0,0,1,.1,1.4c-.2-7.1,0-15.6.1-23.1,0-3.7.1-7.1,0-9.9,0-1.4,0-2.7-.1-3.8,0-.7-.1-1.3-.1-1.8a7.77,7.77,0,0,0-.2-1.6V.9L421,1.1c12.2.1-1.8.4,3.2.5-4.8.1-12.4-.3-6.5-.3h.9c2.2-.5-15.1-.2-14.8-.5C379.9.8,356.5.6,334.1.5l2.6.4h-7.8c-2-.1-2.8-.3,2.8-.3a55.87,55.87,0,0,0-5.8,0l-3.7.2c-10.9-.1,4.3-.4.9-.4h-3.6c-3.7.1-4,.3-10.7.3-1.3,0-2.6-.1-3.8-.2H292.6l4,.3c-4.4.1-9.3,0-4.7.3C285.2.6,255.1.9,251,.8c-6.1.2-12.1.2-19.6.2,1.9.1,3,.4-3.5.4,2.4-.7-11.8-.3-17-.8,4.7.3-18.3.1-11,.5-5.4,0-.3-.3-4.4-.4C182.7,1,167.3.5,151.4.6c-.2.1,2.4.2-1,.4L142,.6c-3.1,0-2.9.5-8.6.2.8.1,2,.2-.1.2-31-.4-63.4.4-94.9-.4,4.3.2,1.4.2-1.8.2,2.1,0,0,.2.4.3L23.8.7C21.4,1,9.6.7,8.3,1L12.5.9c-5.6.4,7.8.8,7,1.3,6.2-.4,16.4.6,26.6,0,2.2.1-1.9.1-.7.3,2.6-.2,5.7-.2,11.5-.1l-.7.1c16.3-.1,23.2.1,41.5.3l-1.3-.2c3.9,0,4.8.1,6.6.2,4.5-.4-11,0-6.9-.4,5.2.5,27.7,0,31.2.6,6,0-1.8-.3,4.3-.3l1.6.1,1.5-.2a33,33,0,0,1,6.1.3H137c5.1.2,14.5,0,16.2,0l-5.8-.1c16.5-.2,36.6,0,52.6-.3l-1.2-.1c12.2-.2,9.8.1,23.1,0h-.5c2.7-.1,6.2-.2,9.9-.2-3.4.1,6.3.3,1.9.4,13.2-.2,6.5-.2,15.2-.6l2,.2a96.69,96.69,0,0,1,9.9-.3c-5.5.2,4.2.3-1.9.5,14,.4,20.8-.4,27.2.2,6.4-.5-12.1-.3-8.5-.4-3-.2,5.3-.4,9.7-.3s7.6.7,18.8.6h-2.3c4.2.1,8.2-.2,13.4,0,2.9-.3,6.7,0,7.5-.4L314,2.2c5.8-.1,11.3-.6,21-.3-.8.1-3.6.2-5.6.2,2.8.1,5.4-.1,8.3,0-.7.4-12.5.1-18.7.4,3,.2,11.9-.3,8.7.1,4.5-.6,11.1.1,18.7-.4l-.5.2c1.2,0,3.7-.1,5.9-.1l-4,.3c6.2-.3,11.9.2,17.8.1-12.4,0-2.8-.3-8-.5,15.3-.3,8.8.6,25.9.5-2.3,0-8.7-.1-5.1-.3,3.2.1,7.6.1,9.6.3,11.3-.1-1.7-.2,3.1-.4,3.8.3,5.6-.1,10.5-.2v.2c12.9.1,3.4-.5,15-.3l-4.9.3,6.1-.1-1.2.3c3.1-.1,5.2-.1,7.2-.1h5.6v.4c.1-.3.2-.4.3.2a3.87,3.87,0,0,0,.1.9,5.63,5.63,0,0,1,0,1.3V8.8c-.1,3.9-.2-2.2-.2,5.9a45.56,45.56,0,0,1-.1-7.4,16.35,16.35,0,0,1-.2-2.2c-.2,4.2,0,10.6,0,13.5a30.14,30.14,0,0,1,.1-3.2l.3,11.8c-.1,1.9-.2.4-.2-1.1,0,2.4.1,4,.2,7.5-.2-.9-.4-.7-.5-5.6l.2,11.2c-.1.8-.2,5.8-.3,4.3-.1,6.2.4,15.2.2,23.5,0,.4.1,1.3.1,3,0,7.7-.3,14.6,0,23.8l-.3,5.2c.1,7.2.4-7.1.6,4.9.1,8.5-.3,3.2-.4,6.1.2,4.2.5,11.5.2,19.3C429.3,127.3,429.3,125.3,429.3,122.9Zm.2,88.5c0-1.7-.2-5.1-.1-6.4a45.58,45.58,0,0,1,.1,6.4Zm-57,76c1.3-.1,3.2,0,5.5,0a50.37,50.37,0,0,1-5.5,0ZM.8,283.4v.2c-.1,3.9-.1,2.5,0-.2Zm.1-7.9c0-.8-.1-.8-.1-.4a30.2,30.2,0,0,1,0,4.4c.1-1.4.1-2.7.1-4ZM304.3.7l1.6.1C302.4.8,303.4.8,304.3.7Z" transform="translate(0 -0.04)"/><path class="cls-2" d="M387.7,287.1a1.7,1.7,0,0,1,.7.1C389.1,287.2,389.2,287.1,387.7,287.1Z" transform="translate(0 -0.04)"/><path class="cls-2" d="M429.2,67.8v0Z" transform="translate(0 -0.04)"/><path class="cls-2" d="M112.7,287c1.6,0,2.6.1,3.2.1A11.56,11.56,0,0,0,112.7,287Z" transform="translate(0 -0.04)"/><path class="cls-2" d="M.5,233.4l.1,5.1c0-2.5,0-3.3.1-4.6C.6,234,.5,235,.5,233.4Z" transform="translate(0 -0.04)"/><path class="cls-2" d="M2,189.2v-2.3l-.1.2C1.8,190.3,1.9,192.5,2,189.2Z" transform="translate(0 -0.04)"/><path class="cls-2" d="M1.3,228.7a62.93,62.93,0,0,0,.1-7.2v.6C1,221.1,1.2,225,1.3,228.7Z" transform="translate(0 -0.04)"/><path class="cls-2" d="M1.3,220.7v-3.3A18.19,18.19,0,0,0,1.3,220.7Z" transform="translate(0 -0.04)"/><path class="cls-2" d="M.7,265.5c0-1.7-.3-1.1-.2-2C.3,261.5.9,274.7.7,265.5Z" transform="translate(0 -0.04)"/><polygon class="cls-2" points="1.9 225.76 1.7 227.06 1.9 229.06 1.9 225.76"/><path class="cls-2" d="M1.8,254l.1-5.7a7.57,7.57,0,0,1-.1-1.5C1.7,250.3,1.7,254.1,1.8,254Z" transform="translate(0 -0.04)"/><path class="cls-2" d="M1.7,246.7v0Z" transform="translate(0 -0.04)"/><polygon class="cls-2" points="2 233.56 2 235.26 1.9 239.26 2 233.56"/><path class="cls-2" d="M29.2,288.2l6.2-.1c.6-.1-1.1-.1-3.4-.1C30.6,288.1,28.3,288.1,29.2,288.2Z" transform="translate(0 -0.04)"/><path class="cls-2" d="M10.4,287.5a24.52,24.52,0,0,1,2.7.2l.2-.3Z" transform="translate(0 -0.04)"/><path class="cls-2" d="M28.6,287.4c.6-.1,9-.2,1.1-.2C29,287.3,22.8,287.3,28.6,287.4Z" transform="translate(0 -0.04)"/><polygon class="cls-2" points="122.3 287.76 120.7 287.76 120.9 288.26 122.3 287.76"/><path class="cls-2" d="M204.9,286.6c-7.4-.1-1.8.3-8.4.2-1.7.1,5.4.1,3.7.2C204.6,286.8,206.9,287,204.9,286.6Z" transform="translate(0 -0.04)"/><path class="cls-2" d="M200.1,287l-2.3.1Z" transform="translate(0 -0.04)"/><polygon class="cls-2" points="15 0.36 10.2 0.26 13.3 0.46 15 0.36"/><path class="cls-2" d="M5.9.8,4.8.5,1.9.8Z" transform="translate(0 -0.04)"/><path class="cls-2" d="M428.8,224.6l.1.4a36.93,36.93,0,0,0,.1-4.1Z" transform="translate(0 -0.04)"/><polygon class="cls-2" points="429.1 160.26 429 161.36 429.4 159.26 429.1 160.26"/><path class="cls-2" d="M428.7,106.4v7C428.7,108.6,429,105.8,428.7,106.4Z" transform="translate(0 -0.04)"/><g class="cls-3"><text class="cls-4" transform="translate(128.84 126.31)">A redwood cigarette <tspan x="-40.51" y="36">the tip is stained with blood</tspan></text></g><g id="DquXDw.tif"><path d="M2.7,76.4c2.2.1,4.5.2,6.7.2H430.9l.2,1.5a9.73,9.73,0,0,1-2.3,1.1,44.69,44.69,0,0,1-5.2.1H9.9c-2.4,0-4.8.2-7.2.3Z" transform="translate(0 -0.04)"/><path d="M2.7,94c2.4.1,4.8.3,7.2.3H424.6a11.88,11.88,0,0,1,6.4,1.5,6.71,6.71,0,0,1-2.3,1,44.69,44.69,0,0,1-5.2.1H9.4c-2.2-.1-4.4.1-6.7.1Z" transform="translate(0 -0.04)"/><ellipse cx="215.85" cy="7.16" rx="215.85" ry="1.5"/><path d="M2.7,23.8H430.8c0,.6.1,1.1.1,1.7a28.45,28.45,0,0,1-4.1.4H3.7a3.4,3.4,0,0,1-1-.1Z" transform="translate(0 -0.04)"/><path d="M2.7,41.3q211.05,0,422,.1c2.1,0,4.1.2,6.2.3v1.4c-1.4.2-2.7.4-4.1.5H4.8a13.55,13.55,0,0,1-2-.2Z" transform="translate(0 -0.04)"/><path d="M2.7,58.9c2.2,0,4.5.1,6.7.1H430.8l.2,1.3a14.76,14.76,0,0,1-2.7,1c-1.4.1-2.7.1-4.1.1H8.8c-2,0-4.1-.3-6.1-.4V58.9Z" transform="translate(0 -0.04)"/><path d="M2.7,112.5c2-.1,4.1-.4,6.1-.4H424.7c2.1,0,4.1.3,6.2.4V114c-2,.1-4.1.4-6.1.4H91.5q-44.4,0-88.8.1Z" transform="translate(0 -0.04)"/><path d="M2.7,130.1c2.1-.1,4.1-.2,6.2-.2H424.2c2.2,0,4.5.2,6.7.4l-.1,1.9H2.7Z" transform="translate(0 -0.04)"/><path d="M2.7,147.6c1.7,0,3.4-.1,5.2-.1H424.8c2.1,0,4.1.2,6.2.3l-.1,1.8H2.7Z" transform="translate(0 -0.04)"/><path d="M2.7,165.2q211.35,0,422.6.1c1.9,0,3.8,1.3,5.8,2q-212.1,0-424.2-.1C5.6,167.1,2.4,169.2,2.7,165.2Z" transform="translate(0 -0.04)"/></g><g id="DquXDw.tif-2"><path d="M2.7,254c2.2.1,4.5.2,6.7.2H430.9l.2,1.5a6.71,6.71,0,0,1-2.3,1,44.69,44.69,0,0,1-5.2.1H9.9c-2.4,0-4.8.2-7.2.3Z" transform="translate(0 -0.04)"/><path d="M2.7,271.5c2.4.1,4.8.3,7.2.3H424.6a11.88,11.88,0,0,1,6.4,1.5,6.71,6.71,0,0,1-2.3,1,44.69,44.69,0,0,1-5.2.1H9.4c-2.2,0-4.5.1-6.7.2Z" transform="translate(0 -0.04)"/><ellipse cx="216.25" cy="184.76" rx="216.25" ry="1.5"/><path d="M2.7,201.3H430.8c0,.6.1,1.1.1,1.7a28.45,28.45,0,0,1-4.1.4H3.8a3.4,3.4,0,0,1-1-.1Z" transform="translate(0 -0.04)"/><path d="M2.7,218.8q211.05,0,422,.1c2.1,0,4.1.2,6.2.3v1.4c-1.4.2-2.7.4-4.1.5H4.8a12.31,12.31,0,0,1-2-.2Z" transform="translate(0 -0.04)"/><path d="M2.7,236.4c2.2,0,4.5.1,6.7.1H430.8l.2,1.3a14.76,14.76,0,0,1-2.7,1c-1.4.1-2.7.1-4.1.1H8.8c-2,0-4.1-.3-6.1-.4v-2.1Z" transform="translate(0 -0.04)"/></g></svg>