<svg xmlns="http://www.w3.org/2000/svg" viewBox="0 0 1662.16 844.53"><defs><style>.cls-1,.cls-2{stroke:#fff;stroke-miterlimit:10;}.cls-1{stroke-width:2px;}.cls-2{stroke-width:4px;}</style></defs><title>Lineup</title><g id="Layer_17" data-name="Layer 17"><rect class="cls-1" x="2" y="1" width="1654.28" height="7.82"/><rect class="cls-2" x="2" y="98.18" width="1654.28" height="7.82"/><rect class="cls-1" x="2" y="208.37" width="1654.28" height="7.82"/><rect class="cls-2" x="2" y="305.55" width="1654.28" height="7.82"/><rect class="cls-1" x="5.88" y="420.97" width="1654.28" height="7.82"/><rect class="cls-2" x="5.88" y="518.16" width="1654.28" height="7.82"/><rect class="cls-1" x="5.88" y="628.34" width="1654.28" height="7.82"/><rect class="cls-2" x="5.88" y="725.52" width="1654.28" height="7.82"/><rect class="cls-1" x="2" y="835.71" width="1654.28" height="7.82"/></g><g id="Layer_18" data-name="Layer 18"><path d="M2212.71,1016.09s12.64-123.06,20-144.17-21.12-9.5-21.12-9.5-43.28,14.78-41.17-40.12,3.17-76,14.78-108.74,21.11-88.68,33.78-102.4,99.24-23.48,114-40.77-14.91-24.69-18-43.69-8.38-34.15-8.38-57-15.84-39.06-2.11-58.06,31.67-33.78,53.84-33.78,51.73-6.34,71.78,13.72,25.34,23.23,25.34,46.45,1.06,25.34,0,41.17-17.95,46.46-17.95,52.79-10.55,34.36,0,34.36,70.74,32.15,76,34.26,54.9,35.34,58.07,54.9-1.06,196.36-12.67,209S2541,899.37,2541,924.7s-5.28,91.39-5.28,91.39Z" transform="translate(-2098.25 -173.71)"/><path d="M3025.24,1016.09s-10.14-98.67-16.06-115.6,16.93-7.62,16.93-7.62,34.71,11.85,33-32.17-2.54-61-11.85-87.19-16.93-71.11-27.09-82.11-79.57-18.83-91.42-32.7,12-19.79,14.44-35,6.72-27.39,6.72-45.72,12.7-31.32,1.7-46.55-25.4-27.09-43.18-27.09-41.48-5.08-57.56,11-20.32,18.62-20.32,37.25-.84,20.31,0,33S2845,622.83,2845,627.91s8.47,27.55,0,27.55-56.71,25.78-60.94,27.47-44,28.34-46.56,44,.84,157.45,10.15,167.61,14.4,27.94,14.4,48.25,4.23,73.28,4.23,73.28Z" transform="translate(-2098.25 -173.71)"/><path d="M2772.13,904.37s-29.15,24-35.5,19.17c-18.88-14.25-24.13-79.86-17.74-101.16S2744.94,715,2744.94,715l67.65,125.49Z" transform="translate(-2098.25 -173.71)"/><path d="M2833.88,680s3.2-28.75,0-37.27-19.53-28.65-21.29-36.2c-6.39-27.4-1.38-68.14-.16-73.47s30-41,53.4-37.86,67.07,5.35,75.59,11,39.4,29,39.4,42.88-22.36,62.86-20.23,74-22.36,38.9-18.1,45.4,26.62,32.83,26.62,32.83l-94.77,51.09Z" transform="translate(-2098.25 -173.71)"/><path d="M3596.75,1016.09s-13.67-153.32-21.65-179.62,22.82-11.84,22.82-11.84,46.78,18.41,44.5-50-3.42-94.7-16-135.48-22.83-110.48-36.52-127.58-107.26-29.25-123.23-50.8,16.11-30.75,19.47-54.42,9-42.55,9-71,17.12-48.66,2.28-72.34-34.23-42.09-58.19-42.09S3383.4,213,3361.72,238s-27.39,28.94-27.39,57.87-1.14,31.57,0,51.3,19.4,57.87,19.4,65.76,11.41,42.81,0,42.81-76.45,40.06-82.16,42.69-59.33,44-62.76,68.39,1.15,244.65,13.7,260.43,19.4,43.4,19.4,75,5.7,113.86,5.7,113.86Z" transform="translate(-2098.25 -173.71)"/></g></svg>