<svg id="background" xmlns="http://www.w3.org/2000/svg" viewBox="0 0 1921.99 1082.78"><defs><style>.cls-1{fill:none;stroke:#1d1d1b;stroke-miterlimit:10;stroke-width:2px;}</style></defs><title>background</title><path class="cls-1" d="M807.42,1080l18.41-33.46,446-151.3s123.67,6.58,176.29,22.37S1787.55,1080,1787.55,1080Z" transform="translate(1 1.78)"/><polyline class="cls-1" points="96.83 99.78 1 104.1 1 1082.78"/><polyline class="cls-1" points="1847.8 1063.67 961 111.69 902.83 111.69 842.11 66.15 377.67 87.11"/><line class="cls-1" x1="842.11" y1="66.15" x2="842.11" y2="1.02"/><line class="cls-1" x1="902.83" y1="111.69" x2="902.83" y2="1.02"/><line class="cls-1" x1="961" y1="111.69" x2="961" y2="3.06"/><path class="cls-1" d="M0-.76V64.37S251.27,114,263.9,109.91C269.68,108,350.14,56.57,435.78,1.27" transform="translate(1 1.78)"/><path class="cls-1" d="M0,64.37v18s249.07,41,260.79,41C266.65,123.39,363.05,63,458,2.61" transform="translate(1 1.78)"/><polygon class="cls-1" points="143.3 107.27 143.3 437.61 207.94 452.62 207.94 117.5 143.3 107.27"/><polyline class="cls-1" points="218.48 119.13 218.48 437.61 207.94 452.62"/><polyline class="cls-1" points="312.22 125.17 312.22 304.83 366.06 311.76 366.06 87.63 218.48 190.52"/><polyline class="cls-1" points="366.06 311.76 377.67 297.9 377.67 55.84"/><polygon class="cls-1" points="1157.1 1.78 1128.88 291.91 1271.84 445.38 1333.21 1.02 1157.1 1.78"/><polygon class="cls-1" points="1413.42 1.02 1920.99 300.21 1920.99 338.58 1387.26 3.06 1413.42 1.02"/><path class="cls-1" d="M1689.66,443.6,1920,424Z" transform="translate(1 1.78)"/><polygon class="cls-1" points="1920.99 664.64 1690.66 469.35 1690.66 445.38 1920.99 631.51 1920.99 664.64"/><path class="cls-1" d="M562.73,382.28l-21.59,38.38a7.1,7.1,0,0,0,5.18,10.51l49.09,7A15.35,15.35,0,0,0,611,430.36l18.52-33.87a8,8,0,0,0-5.84-11.69l-51.1-7.39A9.74,9.74,0,0,0,562.73,382.28Z" transform="translate(1 1.78)"/></svg>