<?xml version="1.0" encoding="utf-8"?>
<!-- Generator: Adobe Illustrator 22.0.1, SVG Export Plug-In . SVG Version: 6.00 Build 0)  -->
<svg version="1.1" id="Layer_1" xmlns="http://www.w3.org/2000/svg" xmlns:xlink="http://www.w3.org/1999/xlink" x="0px" y="0px"
	 viewBox="0 0 139.5 74.7" style="enable-background:new 0 0 139.5 74.7;" xml:space="preserve">
<style type="text/css">
	.st0{fill:none;stroke:#000000;stroke-width:0.2565;stroke-miterlimit:10;}
	.st1{fill:none;stroke:#000000;stroke-width:0.1282;stroke-miterlimit:10;}
	.st2{fill:none;stroke:#000000;stroke-width:8.720647e-02;stroke-miterlimit:10;}
	.st3{fill:none;stroke:#000000;stroke-width:7.181709e-02;stroke-miterlimit:10;}
</style>
<title>clips</title>
<path class="st0" d="M39.7,18.1c8.1,5.2,16.7,9.4,25.8,12.5c0,0-2.3-4.5,1.9-5.7C67.4,24.9,45.9,18.5,39.7,18.1z"/>
<path class="st0" d="M65.5,30.6l16.8,9.1c0,0,3.7,1.8,3.3,3.5c-0.4,1.8-1.4,5.4,0.8,7.4c2.1,2,10.3,10.3,17.3,1.8
	c0,0,4.8-9.4-9.6-13.1c0,0-3.1,0-4.4-1s-6.8-4.8-6.8-4.8l9.6,1.1c0,0,11.6,8.2,17.3,0c0,0,5.9-10.6-10.2-12.7c0,0-7.1,0.6-8.4,6.2
	c0,0-1.6,1.4-5.2,0.4c-3.5-1-14.7-3.3-14.7-3.3s-2.5-0.8-3.7-0.3"/>
<path class="st0" d="M102.9,24.9c0,0-8-1.7-8.7,4.4s8.1,6.7,8.1,6.7s6.1-0.3,5.9-5.6C108,25,102.9,24.9,102.9,24.9z"/>
<path class="st0" d="M98.3,43.4c0,0-7-4.2-9.6,1.3s5.4,9,5.4,9s5.9,1.7,7.4-3.4C103.1,45.2,98.3,43.4,98.3,43.4z"/>
<circle class="st1" cx="68.5" cy="28.1" r="2.3"/>
<circle class="st2" cx="68.5" cy="28.1" r="1.6"/>
<circle class="st3" cx="68.5" cy="28.1" r="1.3"/>
</svg>
