<svg id="Layer_1" data-name="Layer 1" xmlns="http://www.w3.org/2000/svg" viewBox="0 0 32.06 31.41"><defs><style>.cls-1{fill:#fff;}</style></defs><title>print</title><g id="_6cXFEH" data-name="6cXFEH"><path d="M426.9,393.17a6.43,6.43,0,0,0,1.24-3.87,4,4,0,0,0-.48-1.36,2.73,2.73,0,0,0-.55-.88,2.64,2.64,0,0,0-1.08-.68,5,5,0,0,0-3,.28c-.73.29-1.51.47-2.26.73-1.19.41-2.37.85-3.55,1.29-1,.37-2,.82-3,1.13a7.6,7.6,0,0,1-1.73.11l0-.23a1.66,1.66,0,0,1,.45-.17,12.06,12.06,0,0,0,4.42-1.53,33.46,33.46,0,0,1,4.43-1.63c.29-.1.61-.14.91-.26a6.44,6.44,0,0,1,4.37.18c.41.12.85.13,1.11.54s.35.62.56.92a3.34,3.34,0,0,1,.53,2.86c-.14.56-.19,1.15-.31,1.72a5.64,5.64,0,0,1-.25.64,1.35,1.35,0,0,0,0,.29c.11,0,.27,0,.33-.05a1.55,1.55,0,0,0,.3-.53,7.47,7.47,0,0,0-.12-5.27,2.73,2.73,0,0,0-1.48-1.33,7.71,7.71,0,0,0-6.29-.13,16.33,16.33,0,0,1-3.05.95,4.41,4.41,0,0,0-1.36.63,5.61,5.61,0,0,1-2.82,1.12c-.4.44-.94.21-1.41.28a.64.64,0,0,1-.46-.11c.08-.05.17-.14.25-.14a9.78,9.78,0,0,0,3.34-1,1.27,1.27,0,0,0,.61-.43,2.5,2.5,0,0,1,1.35-.8c1.34-.47,2.65-1,4-1.39a8.15,8.15,0,0,1,4.3.09c.58.17,1.16.33,1.73.52a1.12,1.12,0,0,1,.44.27,5.51,5.51,0,0,1,1.76,4.48,24.38,24.38,0,0,1-.57,2.67,7.59,7.59,0,0,1-.36,1.26,3.43,3.43,0,0,1-.57.8c-.26.33-.54.63-.87,1,.64,0,.63,0,.84-.41a3.56,3.56,0,0,1,.31-.48,9.44,9.44,0,0,0,1.6-6.69,4.64,4.64,0,0,0-2.38-3.3,6.69,6.69,0,0,0-4.91-.85c-.61.09-1.22.21-1.82.32a6.79,6.79,0,0,0-.78.18c-1.11.36-2.19.77-3.31,1.09a20.71,20.71,0,0,1-2.22.43l-1.42.26a2.79,2.79,0,0,1-.33,0c.09-.09.12-.15.16-.16l3.43-1a21.05,21.05,0,0,0,3-.93c1.44-.7,3-.56,4.47-.64a6.7,6.7,0,0,1,3.42.89,4.6,4.6,0,0,1,1.6,1.13,6,6,0,0,1,1.63,4.25,10.9,10.9,0,0,1-1.25,4.66,7.39,7.39,0,0,1-1.06,1.25c-.49.53-1,1.05-1.51,1.57-.31.32-.63.64-.93,1a.64.64,0,0,0-.1.24l.13.11c.58-.56,1.16-1.13,1.76-1.67.36-.33.76-.61,1.12-.93a2.43,2.43,0,0,0,.44-.52c.28-.48.57-1,.81-1.46a9.52,9.52,0,0,0,1-3.29c0-.48,0-1,0-1.45a4.79,4.79,0,0,0-1.13-3.33,9.68,9.68,0,0,0-2-1.86,6.57,6.57,0,0,0-3.35-1,16.69,16.69,0,0,0-5.62.6c-1,.23-2,.54-2.95.85-.48.15-.94.37-1.42.53a2.21,2.21,0,0,1-.9.12c.08-.06.14-.17.22-.19.86-.29,1.72-.55,2.58-.83.21-.07.39-.2.6-.28l1.85-.71c2.48-.93,5-.61,7.49-.08a2.36,2.36,0,0,0,.69-.06c-.19-.13-.35-.33-.56-.37a14.85,14.85,0,0,0-6.22-.39,26.94,26.94,0,0,0-2.77.74c-1,.33-2.07.72-3.1,1.09a1.3,1.3,0,0,1-.26,0c.11-.17.15-.37.26-.41a21.65,21.65,0,0,1,6.5-1.92,13.7,13.7,0,0,1,4.23.3c1,.24,2,.54,3,.81.15,0,.31,0,.46.07a1.29,1.29,0,0,1,1,.82l-1-.43,0,.07,1.24,1.16-.11.12c-.42-.53-1.21-.61-1.45-1.39-.05-.19-.45-.29-.7-.4,0,0-.2.13-.22.22a.42.42,0,0,0,.08.35c.27.26.58.47.87.71.07.06.13.17.2.19.8.14,1.08.83,1.46,1.39a7.16,7.16,0,0,1,.83,7.38c-.32.71-.55,1.46-.85,2.18a3.73,3.73,0,0,1-.41.57,3,3,0,0,0-.41.71,4.81,4.81,0,0,1-1.88,2.34c-.47.34-.93.7-1.37,1.08a2.36,2.36,0,0,0-.36.46l.1.13c.27-.15.56-.29.82-.46a10.3,10.3,0,0,0,3.22-3.72,29.1,29.1,0,0,0,1.93-4.3,6.68,6.68,0,0,0-1.42-6.89l-.22-.27.08-.11c.15.08.34.13.42.25.38.58.72,1.17,1.07,1.77a6.63,6.63,0,0,1,.6,5A20.29,20.29,0,0,1,430,398c-.18.3-.38.58-.55.88a5.66,5.66,0,0,1-1.71,1.56c-.42.33-.87.62-1.31.94-.21.14-.39.3-.53-.09,0-.09-.24-.16-.36-.15a2.24,2.24,0,0,0-.57.13c-.77.3-1.54.6-2.3,1a5.32,5.32,0,0,0,3-.72l.08.2c-.38.19-.75.39-1.13.57a4.75,4.75,0,0,1-.91.38,11.06,11.06,0,0,1-1.29.14,6.26,6.26,0,0,0-1.31.11,2.88,2.88,0,0,1-1.79,0,6.11,6.11,0,0,0-1.3-.12l0,.14a6.07,6.07,0,0,0,.86.33,9.79,9.79,0,0,0,3.62,0,8.25,8.25,0,0,0,1.41-.19,13,13,0,0,0,1.89-.79c.41-.21.76-.56,1.18-.77a7,7,0,0,0,2.68-2.33,24,24,0,0,0,2.87-5,10,10,0,0,0-.4-8.47,8.45,8.45,0,0,0-1.31-1.52c-.11-.13-.25-.25-.37-.37l.1-.12a4.17,4.17,0,0,1,.47.36c.25.27.49.56.73.85a4.63,4.63,0,0,1,.57.75,17.92,17.92,0,0,1,.78,1.73,8.27,8.27,0,0,1,.34,5.29,20.33,20.33,0,0,1-2.29,5.07,4.77,4.77,0,0,0-.34.94,1.25,1.25,0,0,1-.15.28,9.37,9.37,0,0,1-4.09,3.19c-.71.3-1.38.7-2.06,1a2,2,0,0,0,1.73-.41c.05-.05.09-.15.15-.17a1.42,1.42,0,0,1,.36-.05c0,.14,0,.34-.06.4a2.13,2.13,0,0,1-.59.28l-1.24.43c-.07,0-.11.09-.16.14l0,.13a5.56,5.56,0,0,0,.83-.08c.37-.11.72-.29,1.09-.43s.86-.29,1.27-.47a7.34,7.34,0,0,0,.89-.55c.37-.25.72-.52,1.11-.74a5.94,5.94,0,0,0,1.8-1.9,6.09,6.09,0,0,0,.51-1.13c.65-1.41,1.36-2.8,1.94-4.25a5.82,5.82,0,0,0,.61-3.89c-.11-.38,0-.8-.11-1.19a16.37,16.37,0,0,0-1.74-3.6,1.09,1.09,0,0,1-.16-.5,4.41,4.41,0,0,1,.39.49,12.54,12.54,0,0,1,2,4.72,6.22,6.22,0,0,1-.82,4.18c-.27.53-.46,1.09-.69,1.64a11.16,11.16,0,0,0-.75,1.88,7.7,7.7,0,0,1-1.09,2.16,5.1,5.1,0,0,1-1.94,1.89c-.85.49-1.76.87-2.65,1.29a10.27,10.27,0,0,1-1.71.74,6,6,0,0,1-2,.25c-1.65-.16-3.28-.44-4.91-.67a.43.43,0,0,0-.33.08,8.53,8.53,0,0,0,2.19.62,21,21,0,0,0,2.34.35c.76.06,1.52,0,2.29,0v.12a1.28,1.28,0,0,1-.25.15,5.2,5.2,0,0,1-3.24,0,6.72,6.72,0,0,0-1.55-.28,8.24,8.24,0,0,0,4.39,1.17l0,.18c-.24,0-.49-.05-.74,0a1.76,1.76,0,0,0-.44.15l.34.23.26.2c-.41.22-.62,0-.82-.24a.89.89,0,0,0-.36-.31c-.86-.28-1.74-.53-2.61-.8s-1.79-.62-2.7-.87a7.73,7.73,0,0,1-3.34-2.23,5.34,5.34,0,0,0-.84-.56l-1-.63.08-.14,2.38.95c.11-.45,0-.57-.51-.78-1-.42-2-.85-3-1.34a7.17,7.17,0,0,1-1.12-.88c.15-.07.19-.1.2-.09.71.46,1.41.94,2.14,1.36a3,3,0,0,0,1,.29c1.25.21,2.51.41,3.77.6,0,0,.05,0,.15-.1a1.49,1.49,0,0,0-.37-.22c-.42-.08-.84-.12-1.26-.22-.69-.15-1.38-.31-2.06-.5a13.65,13.65,0,0,1-1.49-.49.92.92,0,0,1-.41-.47,12.76,12.76,0,0,0,5.08,1.19l.05-.21-3.15-.73,0-.22c.19,0,.38,0,.56,0,.51.1,1,.22,1.52.3a1.08,1.08,0,0,0,.38-.08l0-.14a5.4,5.4,0,0,0-.78-.24,14.85,14.85,0,0,1-5.26-1.75,4.5,4.5,0,0,1-.44-.16,1.85,1.85,0,0,1-.38-.36l.1-.15a1.33,1.33,0,0,1,.35.13,12.21,12.21,0,0,0,9.46,1.71,28.26,28.26,0,0,0,2.81-.84l1.21-.35c-.16.58-.56.67-.94.8s-.73.28-1.1.38c-1,.26-1.95.49-2.93.73-.19.05-.39.07-.58.11l0,.18a3.1,3.1,0,0,0,.5.09,11.46,11.46,0,0,0,4.14-1.1c1-.46,2-1,3-1.47a2.5,2.5,0,0,1,.48-.18,7.32,7.32,0,0,1-2.25,1.69,16.14,16.14,0,0,1-4.75,1.4,3,3,0,0,0-.66.3,2.56,2.56,0,0,0,.71.11,15.72,15.72,0,0,0,7.81-3.35,13.31,13.31,0,0,0,2.19-2.56,1.6,1.6,0,0,0,.17-.56l-.15-.1-.53.63c-.41.54-.81,1.08-1.24,1.6a4,4,0,0,1-.59.5c0-.95,1.13-1.13,1.17-1.93l-.12-.13c-.23.2-.55.35-.68.61a5.08,5.08,0,0,1-1.67,1.59.27.27,0,0,1-.43-.25c0-.06.15-.1.23-.15a5.42,5.42,0,0,0,1.84-1.76c-.49,0-.68.27-.9.53a5.38,5.38,0,0,1-2.57,1.69,1.31,1.31,0,0,1-.27.06,1.24,1.24,0,0,1-.26-.07l2.12-1.45-.09-.15a9.79,9.79,0,0,0-.92.45,6,6,0,0,1-2.46,1.05c-.11,0-.21.13-.33.14a2.63,2.63,0,0,1-.48-.06c.07-.12.12-.3.22-.35.67-.27,1.37-.49,2-.79s1.05-.58,1.58-.88l-.09-.2c-.15.05-.3.08-.44.14-1.08.47-2.15,1-3.25,1.41a13.68,13.68,0,0,1-1.84.42,7,7,0,0,1-1.1.24c-1,0-2,0-3.06,0l-.18,0-.05.14a2,2,0,0,0,.71.23c1.31-.06,2.61-.17,3.91-.28.29,0,.58-.11.87-.17l.07.21a4.56,4.56,0,0,1-.75.34,11,11,0,0,1-6.45-.19c-1.08-.38-2.16-.75-3.22-1.18,1.59.2,3,1,4.65,1.12l.07-.16a2,2,0,0,0-.44-.33c-.83-.29-1.67-.55-2.5-.82-.32-.1-.64-.18-1-.3a.76.76,0,0,1-.29-.25s.07-.19.08-.19a1.25,1.25,0,0,1,.34.12,8.49,8.49,0,0,0,3.16,1.05,26.28,26.28,0,0,0,3.07.14,15,15,0,0,0,2.46-.47c.46-.09.92-.23,1.38-.32a11.39,11.39,0,0,0,5.15-2.76,8.33,8.33,0,0,0,1.14-1.16,3.31,3.31,0,0,0,.43-1,3,3,0,0,0-.73-2.72,1,1,0,0,0-1.06-.36c-.73.19-1.47.36-2.18.61-1,.33-1.86.77-2.81,1.08-1.5.5-3.05.86-4.52,1.41a10.77,10.77,0,0,1-3.11.51,5.38,5.38,0,0,1-1.12-.15v-.17c.34,0,.68,0,1-.07a10.77,10.77,0,0,0,3.58-.76,16.52,16.52,0,0,1,1.57-.62c.82-.3,1.65-.63,2.49-.89a13.51,13.51,0,0,0,2.25-.82,5.47,5.47,0,0,1,1.77-.43,7.09,7.09,0,0,1,1.22,0,1.44,1.44,0,0,1,1.23.77c1,1.59,1.26,2.58.24,4.21a5.82,5.82,0,0,0-.42,1.28Zm-7.95,8a.68.68,0,0,0,.74.38,16.06,16.06,0,0,0,4.51-1.18,1.54,1.54,0,0,1,.48,0v.14a13.5,13.5,0,0,1-1.3.69,11,11,0,0,1-1.49.41c-.49.1-1,.17-1.49.23s-1,.1-1.47.14v.16c1.14.49,2.33,0,3.58.26l-.31-.51c.27-.11.53-.22.8-.31.65-.23,1.32-.41,1.95-.7a6.15,6.15,0,0,0,.85-.71c.67-.51,1.38-1,2-1.52a5.11,5.11,0,0,0,.69-.9.56.56,0,0,0-.46.1l-2.62,2.26a.55.55,0,0,1-.31.16.32.32,0,0,1-.22-.2.57.57,0,0,1,.18-.34c.13-.12.3-.17.43-.29a1.82,1.82,0,0,0,.29-.38c-.5.2-.93.45-1.37.67a11.09,11.09,0,0,1-4.66,1.38c-.28,0-.56.05-.83.08-.38-.12-.85,0-1.11-.45,0,0-.27,0-.47.06a1.49,1.49,0,0,0,1.43.61S418.9,401.29,419,401.2Zm8.58-4.46-.13-.18c-.28.21-.59.4-.86.64a13.3,13.3,0,0,1-5.78,3.08,1.83,1.83,0,0,1-.46.07h-1.4l.08.42a10.48,10.48,0,0,0,4.73-1.18A10.26,10.26,0,0,0,427.53,396.74Zm-.18-3.18a5,5,0,0,0,1.4-2.26,4.46,4.46,0,0,0-.79-4.22,2.79,2.79,0,0,0-.5-.39l-.11.11.21.45a7.48,7.48,0,0,1,.89,1.64,4.61,4.61,0,0,1-.27,2.88c-.2.52-.5,1-.74,1.5A1.61,1.61,0,0,0,427.35,393.56ZM422,403.64l0,.18a4.71,4.71,0,0,0,2.11.17c.1,0,.19-.19.29-.3-.14-.08-.27-.23-.4-.24a10.73,10.73,0,0,0-1.27,0A4.79,4.79,0,0,0,422,403.64Zm-4.31-1.75c-.1-.17-.12-.24-.15-.24-.76-.18-1.51-.35-2.27-.51-.05,0-.11.08-.17.12s.13.16.21.18c.62.16,1.25.3,1.87.43A3.56,3.56,0,0,0,417.68,401.89Zm-2.78-.26a2.44,2.44,0,0,0,2.5.82Zm11.42-9.22c-.37.33-.73.65-1.09,1,0,0,0,.17,0,.25s.11,0,.17,0C425.66,393.61,426.37,392.77,426.32,392.41Zm.2.78-1.36,1.38A1.65,1.65,0,0,0,426.52,393.19ZM415.72,403c.38.58.62.66,1,.34Zm13.71-6.27-.2-.13-.33.53a1.68,1.68,0,0,0,.22.09C429.24,397,429.33,396.84,429.43,396.68Zm-12.09,2.74c-.3-.44-.52-.44-.76-.08Zm.53,2.31,0,.28.68,0,0-.23Z" transform="translate(-409.17 -375.46)"/><path d="M422.34,392.46a20.26,20.26,0,0,1-11.8.92c-.08,0-.14-.17-.15-.36a3.56,3.56,0,0,0,.9.31,22.3,22.3,0,0,0,2.83.09c1.48-.09,3-.25,4.44-.45.93-.12,1.84-.38,2.76-.57.4-.08.8-.14,1.21-.2a1.83,1.83,0,0,0,1.29-.77c.53-.71,1.14-1.36,1.73-2a1.17,1.17,0,0,1,.49-.27s.2.2.18.28a2.86,2.86,0,0,1-.29.58,10.24,10.24,0,0,1-2.62,2.59,7.73,7.73,0,0,1-3.53,1.5,23.87,23.87,0,0,1-7,.47,2.26,2.26,0,0,0-.45,0l-.05.17a2.89,2.89,0,0,0,.76.27,31.38,31.38,0,0,0,3.88,0c3.11-.36,6.14-1,8.32-3.53a15.16,15.16,0,0,0,1.11-1.52.81.81,0,0,0,0-1.09c-.31-.29-.68,0-.92.23-.7.63-1.36,1.31-2,2,.24.5.11.66-.65.71l.21-.49c-.07,0-.12,0-.14,0a5.21,5.21,0,0,1-2.44.93c-1,.11-1.92.4-2.89.56a13.65,13.65,0,0,1-2.53.3,6.68,6.68,0,0,1-2.73-.32,4.22,4.22,0,0,0-.74-.14,2.87,2.87,0,0,1-.68-.23,2.13,2.13,0,0,1,1.64.18,1,1,0,0,0,.54.11c.63,0,1.26-.06,1.88-.13,1.38-.16,2.76-.32,4.13-.52a9,9,0,0,0,6-3.27,1.13,1.13,0,0,1,1.74.21,1.38,1.38,0,0,1-.06,1.57c-1,1.21-1.94,2.57-3.42,3.27a14.92,14.92,0,0,1-8,1.7,13.24,13.24,0,0,1-2.38-.25,14.78,14.78,0,0,1-2.77-1.22s.08,0,.11,0a7.37,7.37,0,0,0,3.49.2c.45,0,.9,0,1.35,0a20.83,20.83,0,0,0,2.62-.17c1.24-.21,2.46-.52,3.68-.83a5.45,5.45,0,0,0,1-.52Z" transform="translate(-409.17 -375.46)"/><path d="M423.41,388.94a1.78,1.78,0,0,0-.53.08c-2.94,1.58-6.17,2-9.39,2.48a3.63,3.63,0,0,1-.56,0c0-.09.05-.13.06-.14,1.1-.26,2.19-.6,3.3-.76a17.62,17.62,0,0,0,4-1.22l.09,0c1.1-.12,2-.83,3-1.11.83-.22,1.68-.37,2.53-.51.12,0,.29.15.41.26s0,.23,0,.23-.28,0-.43,0a1.89,1.89,0,0,0-.62,0c-.53.14-1.05.32-1.56.51-.14.05-.23.22-.35.34Z" transform="translate(-409.17 -375.46)"/><path d="M423.39,389l.38,0c.14,0,.27-.06.41-.09l.07.13c-.12.12-.24.25-.37.37a11.35,11.35,0,0,1-4.7,2.23,32.34,32.34,0,0,1-4.27.64,13.83,13.83,0,0,1-2.27-.09c.17-.11.25-.2.34-.21l1.35-.09c.19,0,.37-.07.56-.1l1.83-.22.19,0a29,29,0,0,0,5.81-1.83,1.13,1.13,0,0,0,.69-.71Z" transform="translate(-409.17 -375.46)"/><path d="M427,402.41a3.82,3.82,0,0,1,.47-.35,10.11,10.11,0,0,0,4.49-5.12c.79-1.64,1.41-3.37,2.09-5.06a1.22,1.22,0,0,0,0-.47l-.21-2.16c0-.16,0-.33,0-.49l.16,0c.11.48.25.95.32,1.43a8.47,8.47,0,0,1,0,1.51,3.52,3.52,0,0,1-.27.79,25.21,25.21,0,0,1-2.92,6.84,8.92,8.92,0,0,1-3.29,3,4.5,4.5,0,0,1-.81.26Z" transform="translate(-409.17 -375.46)"/><path d="M436.5,380.9a5.18,5.18,0,0,0-1.94-2.52,10,10,0,0,1-.7-.75,5.35,5.35,0,0,0-2-1.31,10.14,10.14,0,0,1-1.2-.67l.09-.19c.37.15.75.29,1.12.47s.6.37.91.55c.15.08.35.09.47.19a14.32,14.32,0,0,1,2.38,2.29,8,8,0,0,0,1.27,1.26,1.94,1.94,0,0,1,.62.78c.14.36.57.6.8.94a14,14,0,0,1,1.85,3.05c.22.6.53,1.16.8,1.74a2.21,2.21,0,0,1,.09.35c-.3,0-.5,0-.52-.35a2.28,2.28,0,0,0-.22-.86c-.42-.79-.88-1.56-1.35-2.31a7.91,7.91,0,0,0-1.3-1.84C437.34,381.43,437.19,380.72,436.5,380.9Z" transform="translate(-409.17 -375.46)"/><path d="M428,376.11c.39.16.8.29,1.18.48,1.07.53,2.16,1,3.17,1.65s1.68,1.33,2.58,1.89c1.88,1.16,3,3,4.25,4.7a13.29,13.29,0,0,1,1.23,2.8,1.35,1.35,0,0,1,.05.45l-.14.05c-.14-.32-.27-.65-.41-1l-.67-1.65,0-.05c-1.14-1.12-1.64-2.73-2.86-3.79-.58-.5-1.24-.91-1.84-1.38s-1-.89-1.59-1.3a10,10,0,0,0-1-.61c-.62-.36-1.24-.72-1.88-1.05s-1.21-.53-1.8-.82c-.13-.06-.21-.22-.32-.33Z" transform="translate(-409.17 -375.46)"/><path d="M433.7,399.71c.13-.31.3-.62.4-.94.43-1.34.87-2.67,1.25-4a5.85,5.85,0,0,0,.07-1.26,2,2,0,0,1,0-.23,12.46,12.46,0,0,0-.31-4.26,6,6,0,0,0-.34-1.26,11.61,11.61,0,0,0-2.23-3.65c-.33-.34-.71-.62-1.06-.93a4.17,4.17,0,0,1-.68-.77,3.33,3.33,0,0,1,1.54,1.05,21.29,21.29,0,0,1,1.72,2.31,12.1,12.1,0,0,1,1.76,7.32,15.33,15.33,0,0,1-.9,3.84c-.24.72-.41,1.47-.65,2.19a3.21,3.21,0,0,1-.44.69Z" transform="translate(-409.17 -375.46)"/><path d="M437.12,387.06l.69,1.37.2-.08a5,5,0,0,0-.21-.89c-.31-.7-.66-1.37-1-2a14.38,14.38,0,0,0-.64-1.5,10,10,0,0,0-2.42-3c-.81-.6-1.52-1.33-2.32-2a8.94,8.94,0,0,0-1.15-.6c-.09-.05-.13-.17-.2-.26.11,0,.25-.09.31-.05.79.54,1.56,1.1,2.34,1.65.27.19.52.41.8.58a9.55,9.55,0,0,1,2.28,2.67,10.64,10.64,0,0,1,1.25,2.3c.4.86.72,1.75,1.06,2.63a6.86,6.86,0,0,1,.23.85l-.57-.06a6.7,6.7,0,0,1,.56,4.43,15.34,15.34,0,0,0-1.4-5.94Z" transform="translate(-409.17 -375.46)"/><path d="M422.33,396.84a15.22,15.22,0,0,1-1.43.64c-.75.25-1.5.48-2.26.66a7.27,7.27,0,0,1-1.32.1,14.11,14.11,0,0,1-4.56-.61,1.81,1.81,0,0,0-.51-.08c-.38,0-.48-.2-.48-.58l.69.24a11.78,11.78,0,0,0,6.26.24c.72-.14,1.42-.39,2.14-.57.46-.11.93-.2,1.4-.3Z" transform="translate(-409.17 -375.46)"/><path d="M430.06,383.55a2.47,2.47,0,0,1-.36-.19,6.68,6.68,0,0,0-3.18-1.2c-1.14-.12-2.28-.36-3.42-.49a14.4,14.4,0,0,0-2,0q-.75,0-1.5.09a1.67,1.67,0,0,0-.65.22,6.61,6.61,0,0,1-2.59.69c.17-.25.21-.56.65-.45.16,0,.36-.19.56-.25q1.11-.36,2.22-.66a4.24,4.24,0,0,1,2.47,0,9.47,9.47,0,0,0,1.33.18l3.25.5c.09,0,.18.08.27.09a7.48,7.48,0,0,1,2.66,1c.15.07.26.25.39.37Z" transform="translate(-409.17 -375.46)"/><path d="M437.1,395.29c0-.12,0-.25,0-.37a14.49,14.49,0,0,0-.61-6.79c-.2-.65-.57-1.25-.78-1.91-.73-2.3-2.58-3.61-4.37-5a2.4,2.4,0,0,1-.57-.46,2.79,2.79,0,0,1,.74.24c.79.6,1.56,1.22,2.32,1.86a9.29,9.29,0,0,1,1.76,2.49,14.34,14.34,0,0,1,1,2,11.61,11.61,0,0,1,1.09,4.23,24.26,24.26,0,0,1-.24,3.06,2.74,2.74,0,0,1-.21.67Z" transform="translate(-409.17 -375.46)"/><path d="M441.07,385.39c-.57-1-1.12-2-1.72-2.92s-1.07-1.64-1.64-2.42a8.17,8.17,0,0,0-.94-.92c-.9-.88-1.8-1.77-2.7-2.64-.1-.1-.27-.12-.39-.19a.75.75,0,0,1-.25-.25.24.24,0,0,1,.09-.23.52.52,0,0,1,.35.06c.49.4,1,.8,1.44,1.24a27.33,27.33,0,0,1,4.57,5.44c.48.81.83,1.7,1.23,2.55l.12.25Z" transform="translate(-409.17 -375.46)"/><path d="M435.89,396.18c1-4.76.39-9.15-3-12.87l.07-.11a3.79,3.79,0,0,1,.63.49,11.12,11.12,0,0,1,.83,1.2c1.88,3,2.83,6.16,2,9.7-.07.31-.09.62-.16.93s-.13.46-.2.69Z" transform="translate(-409.17 -375.46)"/><path d="M439,391.26a8.34,8.34,0,0,1-.2-.83,22.7,22.7,0,0,0-.27-2.36,14.15,14.15,0,0,0-3-6.23c-.11-.12-.28-.21-.38-.34s-.06-.21-.08-.32.3,0,.36.1q.84,1,1.62,2.07a5.41,5.41,0,0,1,1.15,2.54,7.84,7.84,0,0,0,.45,1.37c.1.33.19.66.26,1a14.61,14.61,0,0,1,.32,1.6,12.52,12.52,0,0,1,0,1.37Z" transform="translate(-409.17 -375.46)"/><path d="M432.49,383.11l-.46-.35a12.63,12.63,0,0,0-1.36-1.08,14.07,14.07,0,0,0-5.15-2.05,24.52,24.52,0,0,0-4.11-.23c-.27,0-.56.29-.9-.17a18,18,0,0,1,6,.36,14.91,14.91,0,0,1,6.11,3.29Z" transform="translate(-409.17 -375.46)"/><path d="M418.3,380.87c.94-1.08,7-1.12,8.06-.35a16.43,16.43,0,0,0-4-.27Z" transform="translate(-409.17 -375.46)"/><path d="M436.5,386.06c-.15-.27-.31-.53-.45-.8a9.4,9.4,0,0,0-3.16-3.87c-1-.62-2-1.15-3-1.73a2.1,2.1,0,0,1-.59-.45l2,1c.68.33,1.35.67,2,1a1,1,0,0,1,.31.21,16.4,16.4,0,0,1,2.75,3.92c.09.21.15.44.22.65Z" transform="translate(-409.17 -375.46)"/><path d="M435.05,394.08c-.18.53-.35,1.06-.55,1.58-.68,1.71-1.36,3.42-2.07,5.12-.26.64-.93.84-1.34,1.33L431,402s0-.07,0-.08a8.1,8.1,0,0,0,2.23-3.51c.33-.9.7-1.79,1-2.69.16-.41.27-.85.41-1.27a3.62,3.62,0,0,1,.24-.43Z" transform="translate(-409.17 -375.46)"/><path d="M430.29,376.17a12.82,12.82,0,0,1,5.15,3.63c-.2,0-.28,0-.31,0-.53-.46-1-.93-1.58-1.38a7.29,7.29,0,0,0-1-.73c-.56-.32-1.16-.57-1.72-.88a4.46,4.46,0,0,1-.63-.52Z" transform="translate(-409.17 -375.46)"/><path d="M421.24,406.53c-1.2-.06-3-.58-3.43-1.31.11,0,.23-.14.31-.11.46.16.9.36,1.35.52.71.26,1.43.5,2.14.75.07,0,.19.13.18.17a.58.58,0,0,1-.18.3s-.19,0-.24,0A.9.9,0,0,1,421.24,406.53Z" transform="translate(-409.17 -375.46)"/><path d="M427.93,381.56l-5.56-.74,0-.14A17.36,17.36,0,0,1,427.93,381.56Z" transform="translate(-409.17 -375.46)"/><path d="M412.48,387.71l2.62-.7,1.13-.31.08.24c-.56.21-1.1.46-1.68.62a15.38,15.38,0,0,1-1.79.38c-.14,0-.29-.08-.44-.12Z" transform="translate(-409.17 -375.46)"/><path d="M425.92,404.29l1.44-.53a14.33,14.33,0,0,0,1.55-.56,15.59,15.59,0,0,0,1.33-.84,1,1,0,0,1,.32-.14s.15.17.13.21a.53.53,0,0,1-.24.23c-1,.49-2.06,1-3.11,1.43a8.24,8.24,0,0,1-1.38.36Z" transform="translate(-409.17 -375.46)"/><path d="M439.81,389.94a14,14,0,0,0-1.29-4.34C439.2,386,440.19,389.24,439.81,389.94Z" transform="translate(-409.17 -375.46)"/><path d="M428.48,378.16c1.92.56,4,1.69,4.24,2.32Z" transform="translate(-409.17 -375.46)"/><path d="M438.62,378.91c.42,1,1.37,1.57,1.59,2.64l-.12.09-1.71-2.56Z" transform="translate(-409.17 -375.46)"/><path d="M429.6,377.91l-3.19-1.29a.91.91,0,0,1,.93,0c.67.27,1.32.6,2,.92a2.7,2.7,0,0,1,.34.25Z" transform="translate(-409.17 -375.46)"/><path d="M427.67,379.2l1.46.61c.27.12.56.2.81.34a5.32,5.32,0,0,1,.61.45l-.08.1-2.86-1.35Z" transform="translate(-409.17 -375.46)"/><path d="M437.48,378.15l-1.73-1.56C436.42,376.59,437.55,377.63,437.48,378.15Z" transform="translate(-409.17 -375.46)"/><path d="M409.4,397.53l2.29,1a.79.79,0,0,1-.95-.13,3.36,3.36,0,0,0-.83-.4c-.21-.1-.4-.23-.6-.34Z" transform="translate(-409.17 -375.46)"/><path d="M432.05,384.33l-1.48-1.11A1.52,1.52,0,0,1,432.05,384.33Z" transform="translate(-409.17 -375.46)"/><path d="M426.36,379l-2.11-.39A2.25,2.25,0,0,1,426.36,379Z" transform="translate(-409.17 -375.46)"/><path d="M412.58,391.27c-.36.5-1.12.46-1.77,0Z" transform="translate(-409.17 -375.46)"/><path d="M422,378.24h.63c.28,0,.56,0,.84,0a.7.7,0,0,1,.35.16s0,.22-.05.23a.65.65,0,0,1-.34,0l-.94-.2-.49-.08Z" transform="translate(-409.17 -375.46)"/><path d="M428.83,381.39l-1.86-.76a3.2,3.2,0,0,1,1.92.61Z" transform="translate(-409.17 -375.46)"/><path d="M427.88,378l-1.85-.57.06-.18,1.84.57Z" transform="translate(-409.17 -375.46)"/><path d="M430.5,382.19a1.21,1.21,0,0,1-1.12-.64C429.8,381.46,430.15,381.65,430.5,382.19Z" transform="translate(-409.17 -375.46)"/><path d="M424.51,396.77l-1,.49-.12-.23,1-.55Z" transform="translate(-409.17 -375.46)"/><path d="M435.34,397.53c.11-.28.22-.57.35-.85,0-.05.16-.07.24-.06s.09.14.07.19c-.14.27-.3.54-.46.81Z" transform="translate(-409.17 -375.46)"/><path d="M430.12,382.71l-1.44-.8.09-.15,1.46.78Z" transform="translate(-409.17 -375.46)"/><path d="M413.07,399.11l-.82-.23.05-.19.82.16Z" transform="translate(-409.17 -375.46)"/><path d="M411.79,400.84l-.85-.64.06-.07.85.64Z" transform="translate(-409.17 -375.46)"/><path class="cls-1" d="M419,401.22c.28,0,.56-.07.84-.08a11.09,11.09,0,0,0,4.66-1.38c.44-.22.87-.47,1.37-.67a1.82,1.82,0,0,1-.29.38c-.13.12-.3.17-.43.29a.57.57,0,0,0-.18.34.32.32,0,0,0,.22.2.55.55,0,0,0,.31-.16l2.62-2.26a.56.56,0,0,1,.46-.1,5.11,5.11,0,0,1-.69.9c-.65.54-1.36,1-2,1.52a6.15,6.15,0,0,1-.85.71c-.63.29-1.3.47-1.95.7-.27.09-.53.2-.8.31l.31.51c-1.25-.3-2.44.23-3.58-.26V402c.49,0,1-.08,1.47-.14s1-.13,1.49-.23a11,11,0,0,0,1.49-.41,13.5,13.5,0,0,0,1.3-.69v-.14a1.54,1.54,0,0,0-.48,0,16.06,16.06,0,0,1-4.51,1.18.68.68,0,0,1-.74-.38Z" transform="translate(-409.17 -375.46)"/><path class="cls-1" d="M427.53,396.74a10.26,10.26,0,0,1-3.82,2.86,10.48,10.48,0,0,1-4.73,1.18l-.08-.42h1.4a1.83,1.83,0,0,0,.46-.07,13.3,13.3,0,0,0,5.78-3.08c.27-.24.58-.43.86-.64Z" transform="translate(-409.17 -375.46)"/><path class="cls-1" d="M427.35,393.56a1.61,1.61,0,0,1,.09-.29c.24-.5.54-1,.74-1.5a4.61,4.61,0,0,0,.27-2.88,7.48,7.48,0,0,0-.89-1.64l-.21-.45.11-.11a2.79,2.79,0,0,1,.5.39,4.46,4.46,0,0,1,.79,4.22A5,5,0,0,1,427.35,393.56Z" transform="translate(-409.17 -375.46)"/><path class="cls-1" d="M422,403.64a4.79,4.79,0,0,1,.75-.17,10.73,10.73,0,0,1,1.27,0c.13,0,.26.16.4.24-.1.11-.19.3-.29.3a4.71,4.71,0,0,1-2.11-.17Z" transform="translate(-409.17 -375.46)"/><path class="cls-1" d="M417.68,401.89a3.56,3.56,0,0,1-.51,0c-.62-.13-1.25-.27-1.87-.43-.08,0-.14-.12-.21-.18s.12-.13.17-.12c.76.16,1.51.33,2.27.51C417.56,401.65,417.58,401.72,417.68,401.89Z" transform="translate(-409.17 -375.46)"/><path class="cls-1" d="M414.9,401.63l2.5.82A2.44,2.44,0,0,1,414.9,401.63Z" transform="translate(-409.17 -375.46)"/><path class="cls-1" d="M426.32,392.41c.05.36-.66,1.2-.92,1.27-.06,0-.17,0-.17,0s0-.21,0-.25C425.59,393.06,426,392.74,426.32,392.41Z" transform="translate(-409.17 -375.46)"/><path class="cls-1" d="M426.52,393.19a1.65,1.65,0,0,1-1.36,1.38Z" transform="translate(-409.17 -375.46)"/><path class="cls-1" d="M419,401.2c-.05.09-.1.24-.14.24a1.49,1.49,0,0,1-1.43-.61c.2,0,.45-.11.47-.06.26.45.73.33,1.11.45Z" transform="translate(-409.17 -375.46)"/><path class="cls-1" d="M415.72,403l1,.34C416.34,403.61,416.1,403.53,415.72,403Z" transform="translate(-409.17 -375.46)"/><path class="cls-1" d="M429.43,396.68c-.1.16-.19.33-.31.49a1.68,1.68,0,0,1-.22-.09l.33-.53Z" transform="translate(-409.17 -375.46)"/><path class="cls-1" d="M417.34,399.42l-.76-.08C416.82,399,417,399,417.34,399.42Z" transform="translate(-409.17 -375.46)"/><path class="cls-1" d="M417.87,401.73l.66.08,0,.23-.68,0Z" transform="translate(-409.17 -375.46)"/></g></svg>